<?xml version="1.0" standalone="no"?>
<!DOCTYPE svg PUBLIC "-//W3C//DTD SVG 20010904//EN"
 "http://www.w3.org/TR/2001/REC-SVG-20010904/DTD/svg10.dtd">
<svg version="1.0" xmlns="http://www.w3.org/2000/svg" width="476" height="170" viewBox="0 0 2688.000000 960.000000">
<g transform="translate(0.000000,960.000000) scale(0.100000,-0.100000)"
fill="#000000" stroke="none">
<path d="M7560 8220 c0 -18 -7 -20 -60 -20 -53 0 -60 -2 -60 -20 0 -17 -7 -20
-40 -20 -33 0 -40 -3 -40 -20 0 -13 -7 -20 -20 -20 -13 0 -20 -7 -20 -20 0
-17 -7 -20 -40 -20 l-40 0 0 -40 c0 -33 -3 -40 -20 -40 -13 0 -20 -7 -20 -20
0 -13 -7 -20 -20 -20 -13 0 -20 -7 -20 -20 0 -13 -7 -20 -20 -20 -17 0 -20 -7
-20 -40 0 -33 -3 -40 -20 -40 -18 0 -20 -7 -20 -60 0 -53 -2 -60 -20 -60 -17
0 -20 -7 -20 -40 0 -33 -3 -40 -20 -40 -18 0 -20 -7 -20 -60 0 -53 -2 -60 -20
-60 -18 0 -20 -7 -20 -60 0 -53 -2 -60 -20 -60 -18 0 -20 -7 -20 -60 0 -53 -2
-60 -20 -60 -18 0 -20 -7 -20 -60 0 -53 -2 -60 -20 -60 -18 0 -20 -7 -20 -60
0 -53 -2 -60 -20 -60 -18 0 -20 -7 -20 -60 0 -53 -2 -60 -20 -60 -18 0 -20 -7
-20 -60 0 -53 -2 -60 -20 -60 -18 0 -20 -7 -20 -60 0 -53 -2 -60 -20 -60 -18
0 -20 -7 -20 -60 0 -53 -2 -60 -20 -60 -18 0 -20 -7 -20 -60 0 -53 -2 -60 -20
-60 -18 0 -20 -7 -20 -60 0 -53 -2 -60 -20 -60 -19 0 -20 -7 -20 -160 0 -153
1 -160 20 -160 17 0 20 -7 20 -40 l0 -40 40 0 c33 0 40 -3 40 -20 0 -13 7 -20
20 -20 13 0 20 -7 20 -20 0 -20 7 -20 680 -20 673 0 680 0 680 20 0 18 7 20
60 20 53 0 60 2 60 20 0 17 7 20 40 20 33 0 40 3 40 20 0 13 7 20 20 20 13 0
20 7 20 20 0 13 7 20 20 20 13 0 20 7 20 20 0 13 7 20 20 20 13 0 20 7 20 20
0 13 7 20 20 20 13 0 20 7 20 20 0 13 7 20 20 20 17 0 20 7 20 40 0 33 3 40
20 40 17 0 20 7 20 40 0 33 3 40 20 40 17 0 20 7 20 40 0 33 3 40 20 40 18 0
20 7 20 60 0 53 2 60 20 60 18 0 20 7 20 60 0 53 2 60 20 60 17 0 20 7 20 40
l0 40 -300 0 -300 0 0 -40 c0 -33 -3 -40 -20 -40 -18 0 -20 -7 -20 -60 0 -53
-2 -60 -20 -60 -17 0 -20 -7 -20 -40 0 -33 -3 -40 -20 -40 -17 0 -20 -7 -20
-40 l0 -40 -40 0 c-33 0 -40 -3 -40 -20 0 -20 -7 -20 -320 -20 -313 0 -320 0
-320 20 0 13 -7 20 -20 20 -18 0 -20 7 -20 60 0 53 2 60 20 60 18 0 20 7 20
60 0 53 2 60 20 60 18 0 20 7 20 60 0 53 2 60 20 60 18 0 20 7 20 60 0 53 2
60 20 60 18 0 20 7 20 60 0 53 2 60 20 60 18 0 20 7 20 60 0 53 2 60 20 60 18
0 20 7 20 60 0 53 2 60 20 60 18 0 20 7 20 60 0 53 2 60 20 60 18 0 20 7 20
60 0 53 2 60 20 60 18 0 20 7 20 60 0 53 2 60 20 60 18 0 20 7 20 60 0 53 2
60 20 60 17 0 20 7 20 40 0 33 3 40 20 40 13 0 20 7 20 20 0 20 7 20 360 20
353 0 360 0 360 -20 0 -13 7 -20 20 -20 13 0 20 -7 20 -20 0 -13 -7 -20 -20
-20 -18 0 -20 -7 -20 -60 0 -53 -2 -60 -20 -60 -18 0 -20 -7 -20 -60 0 -53 -2
-60 -20 -60 -13 0 -20 -7 -20 -20 0 -20 7 -20 300 -20 293 0 300 0 300 20 0
13 7 20 20 20 18 0 20 7 20 60 0 53 2 60 20 60 18 0 20 7 20 60 0 53 2 60 20
60 18 0 20 7 20 60 0 53 2 60 20 60 19 0 20 7 20 140 0 133 -1 140 -20 140
-13 0 -20 7 -20 20 0 13 -7 20 -20 20 -13 0 -20 7 -20 20 0 13 -7 20 -20 20
-13 0 -20 7 -20 20 0 17 -7 20 -40 20 -33 0 -40 3 -40 20 0 20 -7 20 -660 20
-653 0 -660 0 -660 -20z"/>
<path d="M9480 8200 c0 -33 -3 -40 -20 -40 -18 0 -20 -7 -20 -60 0 -53 -2 -60
-20 -60 -18 0 -20 -7 -20 -60 0 -53 -2 -60 -20 -60 -18 0 -20 -7 -20 -60 0
-53 -2 -60 -20 -60 -18 0 -20 -7 -20 -60 0 -53 -2 -60 -20 -60 -18 0 -20 -7
-20 -60 0 -53 -2 -60 -20 -60 -18 0 -20 -7 -20 -60 0 -53 -2 -60 -20 -60 -18
0 -20 -7 -20 -60 0 -53 -2 -60 -20 -60 -18 0 -20 -7 -20 -60 0 -53 -2 -60 -20
-60 -18 0 -20 -7 -20 -60 0 -53 -2 -60 -20 -60 -18 0 -20 -7 -20 -60 0 -53 -2
-60 -20 -60 -18 0 -20 -7 -20 -60 0 -53 -2 -60 -20 -60 -18 0 -20 -7 -20 -60
0 -53 -2 -60 -20 -60 -17 0 -20 -7 -20 -40 0 -33 -3 -40 -20 -40 -18 0 -20 -7
-20 -60 0 -53 -2 -60 -20 -60 -18 0 -20 -7 -20 -60 0 -53 -2 -60 -20 -60 -18
0 -20 -7 -20 -60 0 -53 -2 -60 -20 -60 -18 0 -20 -7 -20 -60 0 -53 -2 -60 -20
-60 -18 0 -20 -7 -20 -60 0 -53 -2 -60 -20 -60 -18 0 -20 -7 -20 -60 0 -53 -2
-60 -20 -60 -17 0 -20 -7 -20 -40 l0 -40 300 0 300 0 0 40 c0 33 3 40 20 40
18 0 20 7 20 60 0 53 2 60 20 60 18 0 20 7 20 60 0 53 2 60 20 60 18 0 20 7
20 60 0 53 2 60 20 60 18 0 20 7 20 60 0 53 2 60 20 60 18 0 20 7 20 60 0 53
2 60 20 60 18 0 20 7 20 60 0 53 2 60 20 60 13 0 20 7 20 20 0 19 7 20 220 20
l220 0 0 -160 c0 -153 1 -160 20 -160 19 0 20 -7 20 -240 0 -233 1 -240 20
-240 17 0 20 -7 20 -40 l0 -40 300 0 300 0 0 220 c0 213 -1 220 -20 220 -19 0
-20 7 -20 240 0 233 1 240 20 240 13 0 20 7 20 20 0 18 7 20 60 20 53 0 60 2
60 20 0 13 7 20 20 20 13 0 20 7 20 20 0 17 7 20 40 20 33 0 40 3 40 20 0 13
7 20 20 20 17 0 20 7 20 40 0 33 3 40 20 40 13 0 20 7 20 20 0 13 7 20 20 20
17 0 20 7 20 40 0 33 3 40 20 40 17 0 20 7 20 40 0 33 3 40 20 40 17 0 20 7
20 40 0 33 3 40 20 40 18 0 20 7 20 60 0 53 2 60 20 60 18 0 20 7 20 60 0 53
2 60 20 60 18 0 20 7 20 60 0 53 2 60 20 60 18 0 20 7 20 60 0 53 2 60 20 60
19 0 20 7 20 180 0 173 -1 180 -20 180 -13 0 -20 7 -20 20 0 13 -7 20 -20 20
-13 0 -20 7 -20 20 0 13 -7 20 -20 20 -13 0 -20 7 -20 20 0 18 -7 20 -60 20
-53 0 -60 2 -60 20 0 20 -7 20 -800 20 l-800 0 0 -40z m1200 -520 c0 -73 -2
-80 -20 -80 -18 0 -20 -7 -20 -60 0 -53 -2 -60 -20 -60 -18 0 -20 -7 -20 -60
0 -53 -2 -60 -20 -60 -18 0 -20 -7 -20 -60 0 -53 -2 -60 -20 -60 -13 0 -20 -7
-20 -20 0 -13 -7 -20 -20 -20 -13 0 -20 -7 -20 -20 0 -20 -7 -20 -380 -20
-373 0 -380 0 -380 20 0 13 7 20 20 20 18 0 20 7 20 60 0 53 2 60 20 60 18 0
20 7 20 60 0 53 2 60 20 60 18 0 20 7 20 60 0 53 2 60 20 60 18 0 20 7 20 60
0 53 2 60 20 60 17 0 20 7 20 40 l0 40 380 0 380 0 0 -80z"/>
<path d="M11760 8220 c0 -13 -7 -20 -20 -20 -18 0 -20 -7 -20 -60 0 -53 -2
-60 -20 -60 -18 0 -20 -7 -20 -60 0 -53 -2 -60 -20 -60 -18 0 -20 -7 -20 -60
0 -53 -2 -60 -20 -60 -18 0 -20 -7 -20 -60 0 -53 -2 -60 -20 -60 -17 0 -20 -7
-20 -40 0 -33 -3 -40 -20 -40 -18 0 -20 -7 -20 -60 0 -53 -2 -60 -20 -60 -18
0 -20 -7 -20 -60 0 -53 -2 -60 -20 -60 -18 0 -20 -7 -20 -60 0 -53 -2 -60 -20
-60 -18 0 -20 -7 -20 -60 0 -53 -2 -60 -20 -60 -18 0 -20 -7 -20 -60 0 -53 -2
-60 -20 -60 -18 0 -20 -7 -20 -60 0 -53 -2 -60 -20 -60 -18 0 -20 -7 -20 -60
0 -53 -2 -60 -20 -60 -18 0 -20 -7 -20 -60 0 -53 -2 -60 -20 -60 -18 0 -20 -7
-20 -60 0 -53 -2 -60 -20 -60 -18 0 -20 -7 -20 -60 0 -53 -2 -60 -20 -60 -18
0 -20 -7 -20 -60 0 -53 -2 -60 -20 -60 -18 0 -20 -7 -20 -60 0 -53 -2 -60 -20
-60 -18 0 -20 -7 -20 -60 0 -53 -2 -60 -20 -60 -18 0 -20 -7 -20 -60 0 -53 -2
-60 -20 -60 -18 0 -20 -7 -20 -60 l0 -60 900 0 900 0 0 60 c0 53 2 60 20 60
18 0 20 7 20 60 0 53 2 60 20 60 18 0 20 7 20 60 0 53 2 60 20 60 18 0 20 7
20 60 l0 60 -580 0 -580 0 0 40 c0 33 3 40 20 40 18 0 20 7 20 60 0 53 2 60
20 60 18 0 20 7 20 60 0 53 2 60 20 60 18 0 20 7 20 60 0 53 2 60 20 60 17 0
20 7 20 40 l0 40 580 0 c573 0 580 0 580 20 0 13 7 20 20 20 18 0 20 7 20 60
0 53 2 60 20 60 18 0 20 7 20 60 0 53 2 60 20 60 18 0 20 7 20 60 0 53 2 60
20 60 17 0 20 7 20 40 l0 40 -580 0 c-573 0 -580 0 -580 20 0 13 7 20 20 20
18 0 20 7 20 60 0 53 2 60 20 60 17 0 20 7 20 40 0 33 3 40 20 40 18 0 20 7
20 60 0 53 2 60 20 60 17 0 20 7 20 40 l0 40 600 0 600 0 0 40 c0 33 3 40 20
40 18 0 20 7 20 60 0 53 2 60 20 60 18 0 20 7 20 60 0 53 2 60 20 60 18 0 20
7 20 60 0 53 2 60 20 60 13 0 20 7 20 20 0 20 -7 20 -900 20 -893 0 -900 0
-900 -20z"/>
<path d="M13680 8120 c0 -113 -1 -120 -20 -120 -19 0 -20 -7 -20 -100 0 -93
-1 -100 -20 -100 -19 0 -20 -7 -20 -120 0 -113 -1 -120 -20 -120 -19 0 -20 -7
-20 -120 0 -113 -1 -120 -20 -120 -19 0 -20 -7 -20 -100 0 -93 -1 -100 -20
-100 -19 0 -20 -7 -20 -120 0 -113 -1 -120 -20 -120 -19 0 -20 -7 -20 -100 0
-93 -1 -100 -20 -100 -19 0 -20 -7 -20 -120 0 -113 -1 -120 -20 -120 -19 0
-20 -7 -20 -120 0 -113 -1 -120 -20 -120 -19 0 -20 -7 -20 -100 0 -93 -1 -100
-20 -100 -18 0 -20 -7 -20 -80 l0 -80 340 0 c333 0 340 0 340 20 0 13 7 20 20
20 17 0 20 7 20 40 0 33 3 40 20 40 17 0 20 7 20 40 0 33 3 40 20 40 17 0 20
7 20 40 0 33 3 40 20 40 13 0 20 7 20 20 0 13 7 20 20 20 17 0 20 7 20 40 0
33 3 40 20 40 17 0 20 7 20 40 0 33 3 40 20 40 13 0 20 7 20 20 0 13 7 20 20
20 17 0 20 7 20 40 0 33 3 40 20 40 17 0 20 7 20 40 0 33 3 40 20 40 17 0 20
7 20 40 0 33 3 40 20 40 13 0 20 7 20 20 0 13 7 20 20 20 17 0 20 7 20 40 0
33 3 40 20 40 17 0 20 7 20 40 0 33 3 40 20 40 13 0 20 7 20 20 0 13 7 20 20
20 17 0 20 7 20 40 0 33 3 40 20 40 19 0 20 -7 20 -180 0 -173 -1 -180 -20
-180 -19 0 -20 -7 -20 -200 0 -193 -1 -200 -20 -200 -19 0 -20 -7 -20 -160 l0
-160 340 0 340 0 0 40 c0 33 3 40 20 40 17 0 20 7 20 40 0 33 3 40 20 40 17 0
20 7 20 40 0 33 3 40 20 40 17 0 20 7 20 40 0 33 3 40 20 40 17 0 20 7 20 40
0 33 3 40 20 40 17 0 20 7 20 40 0 33 3 40 20 40 17 0 20 7 20 40 0 33 3 40
20 40 17 0 20 7 20 40 0 33 3 40 20 40 17 0 20 7 20 40 0 33 3 40 20 40 17 0
20 7 20 40 0 33 3 40 20 40 17 0 20 7 20 40 0 33 3 40 20 40 17 0 20 7 20 40
0 33 3 40 20 40 17 0 20 7 20 40 0 33 3 40 20 40 17 0 20 7 20 40 0 33 3 40
20 40 17 0 20 7 20 40 0 33 3 40 20 40 17 0 20 7 20 40 0 33 3 40 20 40 17 0
20 7 20 40 0 33 3 40 20 40 17 0 20 7 20 40 0 33 3 40 20 40 17 0 20 7 20 40
0 33 3 40 20 40 17 0 20 7 20 40 0 33 3 40 20 40 17 0 20 7 20 40 0 33 3 40
20 40 17 0 20 7 20 40 0 33 3 40 20 40 17 0 20 7 20 40 0 33 3 40 20 40 17 0
20 7 20 40 0 33 3 40 20 40 17 0 20 7 20 40 0 33 3 40 20 40 17 0 20 7 20 40
0 33 3 40 20 40 17 0 20 7 20 40 0 33 3 40 20 40 17 0 20 7 20 40 0 33 3 40
20 40 17 0 20 7 20 40 0 33 3 40 20 40 17 0 20 7 20 40 l0 40 -280 0 c-273 0
-280 0 -280 -20 0 -13 -7 -20 -20 -20 -17 0 -20 -7 -20 -40 0 -33 -3 -40 -20
-40 -17 0 -20 -7 -20 -40 0 -33 -3 -40 -20 -40 -17 0 -20 -7 -20 -40 0 -33 -3
-40 -20 -40 -17 0 -20 -7 -20 -40 0 -33 -3 -40 -20 -40 -17 0 -20 -7 -20 -40
0 -33 -3 -40 -20 -40 -17 0 -20 -7 -20 -40 0 -33 -3 -40 -20 -40 -17 0 -20 -7
-20 -40 0 -33 -3 -40 -20 -40 -17 0 -20 -7 -20 -40 0 -33 -3 -40 -20 -40 -17
0 -20 -7 -20 -40 0 -33 -3 -40 -20 -40 -17 0 -20 -7 -20 -40 0 -33 -3 -40 -20
-40 -17 0 -20 -7 -20 -40 0 -33 -3 -40 -20 -40 -17 0 -20 -7 -20 -40 0 -33 -3
-40 -20 -40 -17 0 -20 -7 -20 -40 0 -33 -3 -40 -20 -40 -17 0 -20 -7 -20 -40
0 -33 -3 -40 -20 -40 -17 0 -20 -7 -20 -40 0 -33 -3 -40 -20 -40 -17 0 -20 -7
-20 -40 0 -33 -3 -40 -20 -40 -13 0 -20 -7 -20 -20 0 -13 -7 -20 -20 -20 -17
0 -20 7 -20 40 0 33 3 40 20 40 19 0 20 7 20 140 0 133 1 140 20 140 19 0 20
7 20 160 0 153 1 160 20 160 19 0 20 7 20 140 0 133 1 140 20 140 19 0 20 7
20 160 0 153 1 160 20 160 17 0 20 7 20 40 l0 40 -240 0 -240 0 0 -40 c0 -33
-3 -40 -20 -40 -13 0 -20 -7 -20 -20 0 -13 -7 -20 -20 -20 -17 0 -20 -7 -20
-40 0 -33 -3 -40 -20 -40 -17 0 -20 -7 -20 -40 0 -33 -3 -40 -20 -40 -17 0
-20 -7 -20 -40 0 -33 -3 -40 -20 -40 -17 0 -20 -7 -20 -40 0 -33 -3 -40 -20
-40 -17 0 -20 -7 -20 -40 0 -33 -3 -40 -20 -40 -13 0 -20 -7 -20 -20 0 -13 -7
-20 -20 -20 -17 0 -20 -7 -20 -40 0 -33 -3 -40 -20 -40 -17 0 -20 -7 -20 -40
0 -33 -3 -40 -20 -40 -17 0 -20 -7 -20 -40 0 -33 -3 -40 -20 -40 -17 0 -20 -7
-20 -40 0 -33 -3 -40 -20 -40 -17 0 -20 -7 -20 -40 0 -33 -3 -40 -20 -40 -13
0 -20 -7 -20 -20 0 -13 -7 -20 -20 -20 -17 0 -20 -7 -20 -40 0 -33 -3 -40 -20
-40 -17 0 -20 -7 -20 -40 0 -33 -3 -40 -20 -40 -17 0 -20 -7 -20 -40 0 -33 -3
-40 -20 -40 -17 0 -20 -7 -20 -40 0 -33 -3 -40 -20 -40 -13 0 -20 -7 -20 -20
0 -13 -7 -20 -20 -20 -17 0 -20 7 -20 40 0 33 3 40 20 40 19 0 20 7 20 120 0
113 1 120 20 120 19 0 20 7 20 120 0 113 1 120 20 120 19 0 20 7 20 100 0 93
1 100 20 100 19 0 20 7 20 120 0 113 1 120 20 120 19 0 20 7 20 120 0 113 1
120 20 120 18 0 20 7 20 60 l0 60 -300 0 -300 0 0 -120z"/>
<path d="M18360 8220 c0 -13 -7 -20 -20 -20 -18 0 -20 -7 -20 -60 0 -53 -2
-60 -20 -60 -18 0 -20 -7 -20 -60 0 -53 -2 -60 -20 -60 -18 0 -20 -7 -20 -60
0 -53 -2 -60 -20 -60 -18 0 -20 -7 -20 -60 0 -53 -2 -60 -20 -60 -17 0 -20 -7
-20 -40 0 -33 -3 -40 -20 -40 -18 0 -20 -7 -20 -60 0 -53 -2 -60 -20 -60 -18
0 -20 -7 -20 -60 0 -53 -2 -60 -20 -60 -18 0 -20 -7 -20 -60 0 -53 -2 -60 -20
-60 -18 0 -20 -7 -20 -60 0 -53 -2 -60 -20 -60 -18 0 -20 -7 -20 -60 0 -53 -2
-60 -20 -60 -18 0 -20 -7 -20 -60 0 -53 -2 -60 -20 -60 -18 0 -20 -7 -20 -60
0 -53 -2 -60 -20 -60 -18 0 -20 -7 -20 -60 0 -53 -2 -60 -20 -60 -18 0 -20 -7
-20 -60 0 -53 -2 -60 -20 -60 -18 0 -20 -7 -20 -60 0 -53 -2 -60 -20 -60 -18
0 -20 -7 -20 -60 0 -53 -2 -60 -20 -60 -18 0 -20 -7 -20 -60 0 -53 -2 -60 -20
-60 -18 0 -20 -7 -20 -60 0 -53 -2 -60 -20 -60 -18 0 -20 -7 -20 -60 0 -53 -2
-60 -20 -60 -18 0 -20 -7 -20 -60 l0 -60 300 0 300 0 0 40 c0 33 3 40 20 40
18 0 20 7 20 60 0 53 2 60 20 60 18 0 20 7 20 60 0 53 2 60 20 60 18 0 20 7
20 60 0 53 2 60 20 60 18 0 20 7 20 60 0 53 2 60 20 60 18 0 20 7 20 60 0 53
2 60 20 60 18 0 20 7 20 60 0 53 2 60 20 60 18 0 20 7 20 60 0 53 2 60 20 60
18 0 20 7 20 60 0 53 2 60 20 60 18 0 20 7 20 60 0 53 2 60 20 60 18 0 20 7
20 60 0 53 2 60 20 60 18 0 20 7 20 60 0 53 2 60 20 60 18 0 20 7 20 60 0 53
2 60 20 60 18 0 20 7 20 60 0 53 2 60 20 60 17 0 20 7 20 40 0 33 3 40 20 40
18 0 20 7 20 60 0 53 2 60 20 60 18 0 20 7 20 60 0 53 2 60 20 60 18 0 20 7
20 60 0 53 2 60 20 60 18 0 20 7 20 60 0 53 2 60 20 60 18 0 20 7 20 60 0 53
2 60 20 60 17 0 20 7 20 40 l0 40 -300 0 c-293 0 -300 0 -300 -20z"/>
<path d="M19240 8220 c0 -13 -7 -20 -20 -20 -18 0 -20 -7 -20 -60 0 -53 -2
-60 -20 -60 -18 0 -20 -7 -20 -60 0 -53 -2 -60 -20 -60 -18 0 -20 -7 -20 -60
0 -53 -2 -60 -20 -60 -18 0 -20 -7 -20 -60 0 -53 -2 -60 -20 -60 -17 0 -20 -7
-20 -40 0 -33 -3 -40 -20 -40 -18 0 -20 -7 -20 -60 0 -53 -2 -60 -20 -60 -18
0 -20 -7 -20 -60 0 -53 -2 -60 -20 -60 -18 0 -20 -7 -20 -60 0 -53 -2 -60 -20
-60 -18 0 -20 -7 -20 -60 0 -53 -2 -60 -20 -60 -18 0 -20 -7 -20 -60 0 -53 -2
-60 -20 -60 -18 0 -20 -7 -20 -60 0 -53 -2 -60 -20 -60 -18 0 -20 -7 -20 -60
0 -53 -2 -60 -20 -60 -18 0 -20 -7 -20 -60 0 -53 -2 -60 -20 -60 -18 0 -20 -7
-20 -60 0 -53 -2 -60 -20 -60 -18 0 -20 -7 -20 -60 0 -53 -2 -60 -20 -60 -18
0 -20 -7 -20 -60 0 -53 -2 -60 -20 -60 -18 0 -20 -7 -20 -60 0 -53 -2 -60 -20
-60 -18 0 -20 -7 -20 -60 0 -53 -2 -60 -20 -60 -18 0 -20 -7 -20 -60 0 -53 -2
-60 -20 -60 -18 0 -20 -7 -20 -60 l0 -60 300 0 300 0 0 60 c0 53 2 60 20 60
18 0 20 7 20 60 0 53 2 60 20 60 18 0 20 7 20 60 0 53 2 60 20 60 18 0 20 7
20 60 0 53 2 60 20 60 18 0 20 7 20 60 0 53 2 60 20 60 18 0 20 7 20 60 0 53
2 60 20 60 18 0 20 7 20 60 0 53 2 60 20 60 18 0 20 7 20 60 0 53 2 60 20 60
18 0 20 7 20 60 0 53 2 60 20 60 18 0 20 7 20 60 0 53 2 60 20 60 18 0 20 7
20 60 0 53 2 60 20 60 18 0 20 7 20 60 0 53 2 60 20 60 18 0 20 -7 20 -60 0
-53 2 -60 20 -60 19 0 20 -7 20 -140 0 -133 1 -140 20 -140 19 0 20 -7 20
-140 0 -133 1 -140 20 -140 19 0 20 -7 20 -140 0 -133 1 -140 20 -140 19 0 20
-7 20 -140 0 -133 1 -140 20 -140 19 0 20 -7 20 -100 l0 -100 340 0 340 0 0
40 c0 33 3 40 20 40 17 0 20 7 20 40 0 33 3 40 20 40 18 0 20 7 20 60 0 53 2
60 20 60 18 0 20 7 20 60 0 53 2 60 20 60 18 0 20 7 20 60 0 53 2 60 20 60 18
0 20 7 20 60 0 53 2 60 20 60 18 0 20 7 20 60 0 53 2 60 20 60 18 0 20 7 20
60 0 53 2 60 20 60 18 0 20 7 20 60 0 53 2 60 20 60 18 0 20 7 20 60 0 53 2
60 20 60 18 0 20 7 20 60 0 53 2 60 20 60 18 0 20 7 20 60 0 53 2 60 20 60 18
0 20 7 20 60 0 53 2 60 20 60 18 0 20 7 20 60 0 53 2 60 20 60 18 0 20 7 20
60 0 53 2 60 20 60 18 0 20 7 20 60 0 53 2 60 20 60 18 0 20 7 20 60 0 53 2
60 20 60 18 0 20 7 20 60 0 53 2 60 20 60 17 0 20 7 20 40 0 33 3 40 20 40 18
0 20 7 20 60 0 53 2 60 20 60 18 0 20 7 20 60 l0 60 -300 0 -300 0 0 -60 c0
-53 -2 -60 -20 -60 -18 0 -20 -7 -20 -60 0 -53 -2 -60 -20 -60 -18 0 -20 -7
-20 -60 0 -53 -2 -60 -20 -60 -18 0 -20 -7 -20 -60 0 -53 -2 -60 -20 -60 -17
0 -20 -7 -20 -40 0 -33 -3 -40 -20 -40 -18 0 -20 -7 -20 -60 0 -53 -2 -60 -20
-60 -18 0 -20 -7 -20 -60 0 -53 -2 -60 -20 -60 -18 0 -20 -7 -20 -60 0 -53 -2
-60 -20 -60 -18 0 -20 -7 -20 -60 0 -53 -2 -60 -20 -60 -18 0 -20 -7 -20 -60
0 -53 -2 -60 -20 -60 -18 0 -20 -7 -20 -60 0 -53 -2 -60 -20 -60 -18 0 -20 -7
-20 -60 0 -53 -2 -60 -20 -60 -13 0 -20 -7 -20 -20 0 -13 -7 -20 -20 -20 -19
0 -20 7 -20 140 0 133 -1 140 -20 140 -19 0 -20 7 -20 140 0 133 -1 140 -20
140 -19 0 -20 7 -20 140 0 133 -1 140 -20 140 -19 0 -20 7 -20 140 0 133 -1
140 -20 140 -19 0 -20 7 -20 140 0 133 -1 140 -20 140 -13 0 -20 7 -20 20 0
20 -7 20 -320 20 -313 0 -320 0 -320 -20z"/>
<path d="M16240 7260 c0 -53 -2 -60 -20 -60 -18 0 -20 -7 -20 -60 0 -53 -2
-60 -20 -60 -18 0 -20 -7 -20 -60 0 -53 -2 -60 -20 -60 -18 0 -20 -7 -20 -60
0 -53 -2 -60 -20 -60 -13 0 -20 -7 -20 -20 0 -20 7 -20 760 -20 l760 0 0 60
c0 53 2 60 20 60 18 0 20 7 20 60 0 53 2 60 20 60 18 0 20 7 20 60 0 53 2 60
20 60 18 0 20 7 20 60 0 53 2 60 20 60 13 0 20 7 20 20 0 20 -7 20 -760 20
l-760 0 0 -60z"/>
<path d="M1080 2700 l0 -140 200 0 200 0 0 -520 c0 -513 0 -520 20 -520 13 0
20 -7 20 -20 0 -19 7 -20 160 -20 l160 0 0 540 0 540 220 0 220 0 0 140 0 140
-600 0 -600 0 0 -140z"/>
<path d="M2360 2160 l0 -680 160 0 160 0 0 360 c0 353 0 360 20 360 13 0 20 7
20 20 0 19 7 20 160 20 l160 0 0 -380 0 -380 160 0 160 0 0 440 c0 433 0 440
-20 440 -13 0 -20 7 -20 20 0 13 -7 20 -20 20 -13 0 -20 7 -20 20 0 13 -7 20
-20 20 -13 0 -20 7 -20 20 0 18 -7 20 -80 20 -73 0 -80 2 -80 20 0 19 -7 20
-140 20 -133 0 -140 -1 -140 -20 0 -18 -7 -20 -60 -20 l-60 0 0 180 0 180
-160 0 -160 0 0 -680z"/>
<path d="M5080 2820 c0 -13 7 -20 20 -20 18 0 20 -7 20 -80 0 -73 2 -80 20
-80 18 0 20 -7 20 -60 0 -53 2 -60 20 -60 18 0 20 -7 20 -80 0 -73 2 -80 20
-80 18 0 20 -7 20 -60 0 -53 2 -60 20 -60 18 0 20 -7 20 -80 0 -73 2 -80 20
-80 18 0 20 -7 20 -60 0 -53 2 -60 20 -60 18 0 20 -7 20 -60 0 -53 2 -60 20
-60 18 0 20 -7 20 -80 0 -73 2 -80 20 -80 18 0 20 -7 20 -60 0 -53 2 -60 20
-60 17 0 20 -7 20 -40 l0 -40 240 0 c233 0 240 1 240 20 0 13 7 20 20 20 18 0
20 7 20 80 0 73 2 80 20 80 18 0 20 7 20 60 0 53 2 60 20 60 18 0 20 7 20 80
0 73 2 80 20 80 18 0 20 7 20 60 0 53 2 60 20 60 18 0 20 7 20 80 0 73 2 80
20 80 18 0 20 7 20 60 0 53 2 60 20 60 18 0 20 7 20 80 0 73 2 80 20 80 18 0
20 7 20 60 0 53 2 60 20 60 18 0 20 7 20 80 0 73 2 80 20 80 13 0 20 7 20 20
0 19 -7 20 -180 20 l-180 0 0 -80 c0 -73 -2 -80 -20 -80 -18 0 -20 -7 -20 -60
0 -53 -2 -60 -20 -60 -18 0 -20 -7 -20 -80 0 -73 -2 -80 -20 -80 -18 0 -20 -7
-20 -60 0 -53 -2 -60 -20 -60 -18 0 -20 -7 -20 -80 0 -73 -2 -80 -20 -80 -18
0 -20 -7 -20 -60 0 -53 -2 -60 -20 -60 -18 0 -20 -7 -20 -80 l0 -80 -40 0 -40
0 0 80 c0 73 -2 80 -20 80 -18 0 -20 7 -20 60 0 53 -2 60 -20 60 -18 0 -20 7
-20 80 0 73 -2 80 -20 80 -18 0 -20 7 -20 60 0 53 -2 60 -20 60 -18 0 -20 7
-20 80 0 73 -2 80 -20 80 -18 0 -20 7 -20 60 0 53 -2 60 -20 60 -18 0 -20 7
-20 80 l0 80 -180 0 c-173 0 -180 -1 -180 -20z"/>
<path d="M7440 2160 l0 -680 160 0 160 0 0 680 0 680 -160 0 -160 0 0 -680z"/>
<path d="M12080 2820 c0 -13 -7 -20 -20 -20 -13 0 -20 -7 -20 -20 0 -13 -7
-20 -20 -20 -13 0 -20 -7 -20 -20 0 -13 -7 -20 -20 -20 -19 0 -20 -7 -20 -100
l0 -100 -80 0 -80 0 0 -140 0 -140 80 0 80 0 0 -380 0 -380 160 0 160 0 0 380
0 380 100 0 100 0 0 120 c0 113 -1 120 -20 120 -13 0 -20 7 -20 20 0 18 -7 20
-80 20 -73 0 -80 2 -80 20 0 18 7 20 80 20 73 0 80 2 80 20 0 13 7 20 20 20
19 0 20 7 20 120 l0 120 -200 0 c-193 0 -200 -1 -200 -20z"/>
<path d="M13040 2700 l0 -140 200 0 c193 0 200 -1 200 -20 0 -13 7 -20 20 -20
20 0 20 -7 20 -520 l0 -520 160 0 160 0 0 540 0 540 220 0 220 0 0 140 0 140
-600 0 -600 0 0 -140z"/>
<path d="M17720 2680 l0 -160 -80 0 -80 0 0 -140 0 -140 60 0 c53 0 60 -2 60
-20 0 -13 7 -20 20 -20 20 0 20 -7 20 -280 0 -273 0 -280 20 -280 17 0 20 -7
20 -40 l0 -40 40 0 c33 0 40 -3 40 -20 0 -18 7 -20 60 -20 53 0 60 -2 60 -20
0 -19 7 -20 120 -20 113 0 120 1 120 20 0 13 7 20 20 20 19 0 20 7 20 120 l0
120 -80 0 c-73 0 -80 2 -80 20 0 13 -7 20 -20 20 -19 0 -20 7 -20 200 0 193 1
200 20 200 13 0 20 7 20 20 0 18 7 20 80 20 l80 0 0 120 c0 113 -1 120 -20
120 -13 0 -20 7 -20 20 0 18 -7 20 -80 20 l-80 0 0 160 0 160 -160 0 -160 0 0
-160z"/>
<path d="M18360 2160 l0 -680 140 0 c133 0 140 1 140 20 0 13 7 20 20 20 20 0
20 7 20 360 l0 360 160 0 160 0 0 -360 c0 -353 0 -360 20 -360 13 0 20 -7 20
-20 0 -19 7 -20 140 -20 133 0 140 1 140 20 0 13 7 20 20 20 20 0 20 7 20 380
0 373 0 380 -20 380 -18 0 -20 7 -20 60 0 53 -2 60 -20 60 -13 0 -20 7 -20 20
0 17 -7 20 -40 20 -33 0 -40 3 -40 20 0 18 -7 20 -80 20 -73 0 -80 2 -80 20 0
19 -7 20 -120 20 -113 0 -120 -1 -120 -20 0 -18 -7 -20 -60 -20 l-60 0 0 180
0 180 -160 0 -160 0 0 -680z"/>
<path d="M3760 2500 c0 -18 -7 -20 -80 -20 -73 0 -80 -2 -80 -20 0 -13 -7 -20
-20 -20 -13 0 -20 -7 -20 -20 0 -13 -7 -20 -20 -20 -17 0 -20 -7 -20 -40 0
-33 -3 -40 -20 -40 -20 0 -20 -7 -20 -320 0 -313 0 -320 20 -320 17 0 20 -7
20 -40 0 -33 3 -40 20 -40 13 0 20 -7 20 -20 0 -13 7 -20 20 -20 13 0 20 -7
20 -20 0 -17 7 -20 40 -20 33 0 40 -3 40 -20 0 -20 7 -20 300 -20 293 0 300 0
300 20 0 18 7 20 60 20 53 0 60 2 60 20 0 13 7 20 20 20 13 0 20 7 20 20 0 13
7 20 20 20 17 0 20 7 20 40 0 33 3 40 20 40 18 0 20 7 20 60 l0 60 -180 0
c-173 0 -180 -1 -180 -20 0 -19 -7 -20 -160 -20 -153 0 -160 1 -160 20 0 13
-7 20 -20 20 -17 0 -20 7 -20 40 l0 40 300 0 c293 0 300 0 300 20 0 13 7 20
20 20 13 0 20 7 20 20 0 13 7 20 20 20 19 0 20 7 20 220 0 213 -1 220 -20 220
-13 0 -20 7 -20 20 0 13 -7 20 -20 20 -13 0 -20 7 -20 20 0 18 -7 20 -80 20
-73 0 -80 2 -80 20 0 19 -7 20 -240 20 -233 0 -240 -1 -240 -20z m400 -320 c0
-53 -2 -60 -20 -60 -13 0 -20 -7 -20 -20 0 -19 -7 -20 -140 -20 -133 0 -140 1
-140 20 0 13 -7 20 -20 20 -17 0 -20 7 -20 40 0 33 3 40 20 40 13 0 20 7 20
20 0 19 7 20 160 20 l160 0 0 -60z"/>
<path d="M6640 2500 c0 -19 -7 -20 -100 -20 -93 0 -100 -1 -100 -20 0 -13 -7
-20 -20 -20 -13 0 -20 -7 -20 -20 0 -13 -7 -20 -20 -20 -19 0 -20 -7 -20 -100
l0 -100 160 0 c153 0 160 1 160 20 0 19 7 20 140 20 133 0 140 -1 140 -20 0
-13 7 -20 20 -20 17 0 20 -7 20 -40 l0 -40 -260 0 c-253 0 -260 -1 -260 -20 0
-17 -7 -20 -40 -20 -33 0 -40 -3 -40 -20 0 -13 -7 -20 -20 -20 -13 0 -20 -7
-20 -20 0 -13 -7 -20 -20 -20 -19 0 -20 -7 -20 -200 0 -193 1 -200 20 -200 13
0 20 -7 20 -20 0 -13 7 -20 20 -20 13 0 20 -7 20 -20 0 -18 7 -20 60 -20 53 0
60 -2 60 -20 0 -19 7 -20 200 -20 193 0 200 1 200 20 0 17 7 20 40 20 33 0 40
-3 40 -20 0 -19 7 -20 160 -20 l160 0 0 420 c0 413 0 420 -20 420 -17 0 -20 7
-20 40 0 33 -3 40 -20 40 -13 0 -20 7 -20 20 0 13 -7 20 -20 20 -13 0 -20 7
-20 20 0 18 -7 20 -80 20 -73 0 -80 2 -80 20 0 19 -7 20 -200 20 -193 0 -200
-1 -200 -20z m360 -680 c0 -53 -2 -60 -20 -60 -13 0 -20 -7 -20 -20 0 -19 -7
-20 -160 -20 l-160 0 0 80 0 80 180 0 180 0 0 -60z"/>
<path d="M7920 2060 c0 -453 0 -460 20 -460 13 0 20 -7 20 -20 0 -13 7 -20 20
-20 13 0 20 -7 20 -20 0 -18 7 -20 60 -20 53 0 60 -2 60 -20 0 -19 7 -20 200
-20 193 0 200 1 200 20 0 17 7 20 40 20 33 0 40 -3 40 -20 0 -19 7 -20 140
-20 133 0 140 1 140 20 0 13 7 20 20 20 20 0 20 7 20 480 0 473 0 480 -20 480
-13 0 -20 7 -20 20 0 19 -7 20 -140 20 -133 0 -140 -1 -140 -20 0 -13 -7 -20
-20 -20 -20 0 -20 -7 -20 -360 l0 -360 -160 0 -160 0 0 360 c0 353 0 360 -20
360 -13 0 -20 7 -20 20 0 19 -7 20 -140 20 l-140 0 0 -460z"/>
<path d="M9320 2500 c0 -18 -7 -20 -80 -20 -73 0 -80 -2 -80 -20 0 -17 -7 -20
-40 -20 l-40 0 0 -40 c0 -33 -3 -40 -20 -40 -20 0 -20 -7 -20 -360 0 -353 0
-360 20 -360 17 0 20 -7 20 -40 0 -33 3 -40 20 -40 13 0 20 -7 20 -20 0 -18 7
-20 60 -20 53 0 60 -2 60 -20 0 -20 7 -20 300 -20 293 0 300 0 300 20 0 18 7
20 60 20 53 0 60 2 60 20 0 13 7 20 20 20 13 0 20 7 20 20 0 13 7 20 20 20 19
0 20 7 20 100 l0 100 -160 0 c-153 0 -160 -1 -160 -20 0 -19 -7 -20 -180 -20
l-180 0 0 60 0 60 300 0 c293 0 300 0 300 20 0 13 7 20 20 20 13 0 20 7 20 20
0 13 7 20 20 20 19 0 20 7 20 200 0 193 -1 200 -20 200 -17 0 -20 7 -20 40 0
33 -3 40 -20 40 -13 0 -20 7 -20 20 0 18 -7 20 -80 20 -73 0 -80 2 -80 20 0
19 -7 20 -240 20 -233 0 -240 -1 -240 -20z m400 -320 c0 -53 -2 -60 -20 -60
-13 0 -20 -7 -20 -20 0 -19 -7 -20 -140 -20 -133 0 -140 1 -140 20 0 13 -7 20
-20 20 -18 0 -20 7 -20 60 l0 60 180 0 180 0 0 -60z"/>
<path d="M10880 2500 c0 -17 -7 -20 -40 -20 -33 0 -40 -3 -40 -20 0 -17 -7
-20 -40 -20 l-40 0 0 -40 c0 -33 -3 -40 -20 -40 -20 0 -20 -7 -20 -360 0 -353
0 -360 20 -360 17 0 20 -7 20 -40 0 -33 3 -40 20 -40 13 0 20 -7 20 -20 0 -18
7 -20 60 -20 53 0 60 -2 60 -20 0 -20 7 -20 300 -20 293 0 300 0 300 20 0 17
7 20 40 20 33 0 40 3 40 20 0 13 7 20 20 20 13 0 20 7 20 20 0 13 7 20 20 20
17 0 20 7 20 40 0 33 3 40 20 40 20 0 20 7 20 320 0 313 0 320 -20 320 -17 0
-20 7 -20 40 0 33 -3 40 -20 40 -13 0 -20 7 -20 20 0 13 -7 20 -20 20 -13 0
-20 7 -20 20 0 18 -7 20 -60 20 -53 0 -60 2 -60 20 0 20 -7 20 -280 20 -273 0
-280 0 -280 -20z m440 -280 c0 -13 7 -20 20 -20 19 0 20 -7 20 -200 0 -193 -1
-200 -20 -200 -13 0 -20 -7 -20 -20 0 -19 -7 -20 -160 -20 l-160 0 0 240 0
240 160 0 c153 0 160 -1 160 -20z"/>
<path d="M14400 2500 c0 -18 -7 -20 -60 -20 -53 0 -60 -2 -60 -20 0 -13 -7
-20 -20 -20 -13 0 -20 -7 -20 -20 0 -13 -7 -20 -20 -20 -17 0 -20 -7 -20 -40
0 -33 -3 -40 -20 -40 -20 0 -20 -7 -20 -320 0 -313 0 -320 20 -320 17 0 20 -7
20 -40 0 -33 3 -40 20 -40 13 0 20 -7 20 -20 0 -13 7 -20 20 -20 13 0 20 -7
20 -20 0 -17 7 -20 40 -20 33 0 40 -3 40 -20 0 -20 7 -20 300 -20 293 0 300 0
300 20 0 18 7 20 60 20 53 0 60 2 60 20 0 13 7 20 20 20 13 0 20 7 20 20 0 13
7 20 20 20 20 0 20 7 20 380 0 373 0 380 -20 380 -17 0 -20 7 -20 40 0 33 -3
40 -20 40 -13 0 -20 7 -20 20 0 18 -7 20 -60 20 -53 0 -60 2 -60 20 0 20 -7
20 -280 20 -273 0 -280 0 -280 -20z m440 -500 l0 -240 -160 0 c-153 0 -160 1
-160 20 0 13 -7 20 -20 20 -19 0 -20 7 -20 200 0 193 1 200 20 200 13 0 20 7
20 20 0 19 7 20 160 20 l160 0 0 -240z"/>
<path d="M15600 2500 c0 -18 -7 -20 -80 -20 -73 0 -80 -2 -80 -20 0 -17 -7
-20 -40 -20 -33 0 -40 -3 -40 -20 0 -13 -7 -20 -20 -20 -18 0 -20 -7 -20 -80
0 -73 -2 -80 -20 -80 -19 0 -20 -7 -20 -220 0 -213 1 -220 20 -220 18 0 20 -7
20 -80 0 -73 2 -80 20 -80 13 0 20 -7 20 -20 0 -13 7 -20 20 -20 13 0 20 -7
20 -20 0 -18 7 -20 60 -20 53 0 60 -2 60 -20 0 -19 7 -20 200 -20 193 0 200 1
200 20 0 13 7 20 20 20 19 0 20 -7 20 -120 l0 -120 -160 0 c-153 0 -160 1
-160 20 0 13 -7 20 -20 20 -13 0 -20 7 -20 20 0 19 -7 20 -160 20 l-160 0 0
-60 c0 -53 2 -60 20 -60 18 0 20 -7 20 -60 0 -53 2 -60 20 -60 13 0 20 -7 20
-20 0 -13 7 -20 20 -20 13 0 20 -7 20 -20 0 -19 7 -20 100 -20 93 0 100 -1
100 -20 0 -19 7 -20 200 -20 193 0 200 1 200 20 0 18 7 20 80 20 73 0 80 2 80
20 0 17 7 20 40 20 33 0 40 3 40 20 0 13 7 20 20 20 18 0 20 7 20 60 0 53 2
60 20 60 20 0 20 7 20 600 0 593 0 600 -20 600 -13 0 -20 7 -20 20 0 19 -7 20
-140 20 -133 0 -140 -1 -140 -20 0 -18 -7 -20 -80 -20 -73 0 -80 2 -80 20 0
19 -7 20 -120 20 -113 0 -120 -1 -120 -20z m360 -500 l0 -240 -140 0 c-133 0
-140 1 -140 20 0 13 -7 20 -20 20 -19 0 -20 7 -20 220 l0 220 160 0 160 0 0
-240z"/>
<path d="M16720 2500 c0 -18 -7 -20 -80 -20 -73 0 -80 -2 -80 -20 0 -17 -7
-20 -40 -20 l-40 0 0 -40 c0 -33 -3 -40 -20 -40 -20 0 -20 -7 -20 -360 0 -353
0 -360 20 -360 17 0 20 -7 20 -40 0 -33 3 -40 20 -40 13 0 20 -7 20 -20 0 -18
7 -20 60 -20 53 0 60 -2 60 -20 0 -20 7 -20 300 -20 293 0 300 0 300 20 0 18
7 20 60 20 53 0 60 2 60 20 0 13 7 20 20 20 13 0 20 7 20 20 0 13 7 20 20 20
19 0 20 7 20 100 l0 100 -160 0 c-153 0 -160 -1 -160 -20 0 -19 -7 -20 -180
-20 l-180 0 0 60 0 60 300 0 c293 0 300 0 300 20 0 13 7 20 20 20 13 0 20 7
20 20 0 13 7 20 20 20 19 0 20 7 20 200 0 193 -1 200 -20 200 -17 0 -20 7 -20
40 0 33 -3 40 -20 40 -13 0 -20 7 -20 20 0 18 -7 20 -80 20 -73 0 -80 2 -80
20 0 19 -7 20 -240 20 -233 0 -240 -1 -240 -20z m400 -320 c0 -53 -2 -60 -20
-60 -13 0 -20 -7 -20 -20 0 -19 -7 -20 -140 -20 -133 0 -140 1 -140 20 0 13
-7 20 -20 20 -18 0 -20 7 -20 60 l0 60 180 0 180 0 0 -60z"/>
<path d="M19760 2500 c0 -18 -7 -20 -80 -20 -73 0 -80 -2 -80 -20 0 -17 -7
-20 -40 -20 l-40 0 0 -40 c0 -33 -3 -40 -20 -40 -20 0 -20 -7 -20 -360 0 -353
0 -360 20 -360 17 0 20 -7 20 -40 0 -33 3 -40 20 -40 13 0 20 -7 20 -20 0 -18
7 -20 60 -20 53 0 60 -2 60 -20 0 -20 7 -20 300 -20 293 0 300 0 300 20 0 18
7 20 60 20 53 0 60 2 60 20 0 13 7 20 20 20 13 0 20 7 20 20 0 13 7 20 20 20
19 0 20 7 20 100 l0 100 -160 0 c-153 0 -160 -1 -160 -20 0 -19 -7 -20 -180
-20 l-180 0 0 60 0 60 300 0 c293 0 300 0 300 20 0 13 7 20 20 20 13 0 20 7
20 20 0 13 7 20 20 20 19 0 20 7 20 200 0 193 -1 200 -20 200 -17 0 -20 7 -20
40 0 33 -3 40 -20 40 -13 0 -20 7 -20 20 0 18 -7 20 -80 20 -73 0 -80 2 -80
20 0 19 -7 20 -240 20 -233 0 -240 -1 -240 -20z m400 -320 c0 -53 -2 -60 -20
-60 -13 0 -20 -7 -20 -20 0 -19 -7 -20 -140 -20 -133 0 -140 1 -140 20 0 13
-7 20 -20 20 -18 0 -20 7 -20 60 l0 60 180 0 180 0 0 -60z"/>
<path d="M20640 2500 c0 -13 -7 -20 -20 -20 -20 0 -20 -7 -20 -480 0 -473 0
-480 20 -480 13 0 20 -7 20 -20 0 -19 7 -20 160 -20 l160 0 0 340 c0 333 0
340 20 340 13 0 20 7 20 20 0 19 7 20 140 20 133 0 140 1 140 20 0 13 7 20 20
20 19 0 20 7 20 120 0 113 -1 120 -20 120 -13 0 -20 7 -20 20 0 18 -7 20 -80
20 -73 0 -80 -2 -80 -20 0 -18 -7 -20 -60 -20 -53 0 -60 -2 -60 -20 0 -17 -7
-20 -40 -20 l-40 0 0 40 0 40 -140 0 c-133 0 -140 -1 -140 -20z"/>
<path d="M21400 2000 l0 -520 160 0 160 0 0 360 c0 353 0 360 20 360 13 0 20
7 20 20 0 19 7 20 160 20 l160 0 0 -380 0 -380 160 0 160 0 0 440 c0 433 0
440 -20 440 -13 0 -20 7 -20 20 0 13 -7 20 -20 20 -13 0 -20 7 -20 20 0 13 -7
20 -20 20 -13 0 -20 7 -20 20 0 18 -7 20 -80 20 -73 0 -80 2 -80 20 0 19 -7
20 -140 20 -133 0 -140 -1 -140 -20 0 -18 -7 -20 -60 -20 -53 0 -60 2 -60 20
0 19 -7 20 -160 20 l-160 0 0 -520z"/>
<path d="M22800 2500 c0 -18 -7 -20 -80 -20 -73 0 -80 -2 -80 -20 0 -13 -7
-20 -20 -20 -13 0 -20 -7 -20 -20 0 -13 -7 -20 -20 -20 -17 0 -20 -7 -20 -40
0 -33 -3 -40 -20 -40 -20 0 -20 -7 -20 -320 0 -313 0 -320 20 -320 17 0 20 -7
20 -40 0 -33 3 -40 20 -40 13 0 20 -7 20 -20 0 -13 7 -20 20 -20 13 0 20 -7
20 -20 0 -17 7 -20 40 -20 33 0 40 -3 40 -20 0 -20 7 -20 300 -20 293 0 300 0
300 20 0 18 7 20 60 20 53 0 60 2 60 20 0 13 7 20 20 20 13 0 20 7 20 20 0 13
7 20 20 20 17 0 20 7 20 40 0 33 3 40 20 40 18 0 20 7 20 60 l0 60 -180 0
c-173 0 -180 -1 -180 -20 0 -19 -7 -20 -160 -20 -153 0 -160 1 -160 20 0 13
-7 20 -20 20 -17 0 -20 7 -20 40 l0 40 300 0 c293 0 300 0 300 20 0 13 7 20
20 20 13 0 20 7 20 20 0 13 7 20 20 20 19 0 20 7 20 220 0 213 -1 220 -20 220
-13 0 -20 7 -20 20 0 13 -7 20 -20 20 -13 0 -20 7 -20 20 0 18 -7 20 -80 20
-73 0 -80 2 -80 20 0 19 -7 20 -240 20 -233 0 -240 -1 -240 -20z m400 -320 c0
-53 -2 -60 -20 -60 -13 0 -20 -7 -20 -20 0 -19 -7 -20 -140 -20 -133 0 -140 1
-140 20 0 13 -7 20 -20 20 -17 0 -20 7 -20 40 0 33 3 40 20 40 13 0 20 7 20
20 0 19 7 20 160 20 l160 0 0 -60z"/>
<path d="M23880 2500 c0 -18 -7 -20 -60 -20 -53 0 -60 -2 -60 -20 0 -13 -7
-20 -20 -20 -13 0 -20 -7 -20 -20 0 -13 -7 -20 -20 -20 -19 0 -20 -7 -20 -200
0 -193 1 -200 20 -200 13 0 20 -7 20 -20 0 -13 7 -20 20 -20 13 0 20 -7 20
-20 0 -17 7 -20 40 -20 33 0 40 -3 40 -20 0 -19 7 -20 240 -20 233 0 240 -1
240 -20 0 -13 7 -20 20 -20 17 0 20 -7 20 -40 l0 -40 -180 0 c-173 0 -180 1
-180 20 0 19 -7 20 -160 20 l-160 0 0 -100 c0 -93 1 -100 20 -100 13 0 20 -7
20 -20 0 -13 7 -20 20 -20 13 0 20 -7 20 -20 0 -17 7 -20 40 -20 33 0 40 -3
40 -20 0 -20 7 -20 340 -20 333 0 340 0 340 20 0 17 7 20 40 20 33 0 40 3 40
20 0 13 7 20 20 20 17 0 20 7 20 40 0 33 3 40 20 40 19 0 20 7 20 160 0 153
-1 160 -20 160 -17 0 -20 7 -20 40 0 33 -3 40 -20 40 -13 0 -20 7 -20 20 0 18
-7 20 -60 20 -53 0 -60 2 -60 20 0 19 -7 20 -240 20 l-240 0 0 60 0 60 180 0
180 0 0 -40 0 -40 160 0 160 0 0 100 c0 93 -1 100 -20 100 -17 0 -20 7 -20 40
l0 40 -40 0 c-33 0 -40 3 -40 20 0 17 -7 20 -40 20 -33 0 -40 3 -40 20 0 20
-7 20 -300 20 -293 0 -300 0 -300 -20z"/>
<path d="M25000 2500 c0 -18 -7 -20 -60 -20 -53 0 -60 -2 -60 -20 0 -13 -7
-20 -20 -20 -17 0 -20 -7 -20 -40 0 -33 -3 -40 -20 -40 -19 0 -20 -7 -20 -160
0 -153 1 -160 20 -160 17 0 20 -7 20 -40 0 -33 3 -40 20 -40 13 0 20 -7 20
-20 0 -17 7 -20 40 -20 33 0 40 -3 40 -20 0 -19 7 -20 260 -20 l260 0 0 -60 0
-60 -180 0 c-173 0 -180 1 -180 20 0 19 -7 20 -160 20 l-160 0 0 -80 c0 -73 2
-80 20 -80 17 0 20 -7 20 -40 0 -33 3 -40 20 -40 13 0 20 -7 20 -20 0 -17 7
-20 40 -20 33 0 40 -3 40 -20 0 -20 7 -20 340 -20 333 0 340 0 340 20 0 17 7
20 40 20 33 0 40 3 40 20 0 13 7 20 20 20 13 0 20 7 20 20 0 13 7 20 20 20 19
0 20 7 20 200 0 193 -1 200 -20 200 -13 0 -20 7 -20 20 0 13 -7 20 -20 20 -13
0 -20 7 -20 20 0 17 -7 20 -40 20 -33 0 -40 3 -40 20 0 19 -7 20 -260 20
l-260 0 0 60 0 60 180 0 180 0 0 -40 0 -40 160 0 160 0 0 120 c0 113 -1 120
-20 120 -13 0 -20 7 -20 20 0 13 -7 20 -20 20 -13 0 -20 7 -20 20 0 18 -7 20
-60 20 -53 0 -60 2 -60 20 0 20 -7 20 -300 20 -293 0 -300 0 -300 -20z"/>
</g>
</svg>
