<svg width="9" height="17" viewBox="0 0 9 17" fill="none" xmlns="http://www.w3.org/2000/svg">
<rect x="4.18457" y="0.282843" width="5.51772" height="5.51772" transform="rotate(45 4.18457 0.282843)" fill="white" stroke="#428901" stroke-width="0.4"/>
<path d="M1.55957 6.13287L4.2333 8.81084L6.83172 6.13287L4.51843 9.49998L4.2333 16.3544L3.95356 9.49998L1.55957 6.13287Z" fill="#428901"/>
<path d="M5.2292 14.5392C5.89087 14.5214 6.57712 14.7041 6.90716 14.9843C7.2372 15.2646 7.34172 15.5878 7.20291 15.899C7.0641 16.2101 6.69055 16.4899 6.14591 16.6907C5.60127 16.8914 4.91923 17.0008 4.21602 17C3.5128 16.9993 2.83192 16.8885 2.28937 16.6866C1.74682 16.4847 1.37619 16.2041 1.24062 15.8926C1.10505 15.5812 1.21293 15.2582 1.54588 14.9787C1.87883 14.6991 2.58233 14.5214 3.22844 14.5214L3.22845 14.5371C2.66916 14.641 2.20696 14.8291 1.92061 15.0696C1.63427 15.31 1.54149 15.5878 1.65808 15.8556C1.77468 16.1235 2.16952 16.3422 2.63612 16.5158C3.11546 16.6277 3.61123 16.7304 4.21602 16.731C4.82081 16.7317 5.3261 16.6371 5.82309 16.4884C6.29149 16.3157 6.66645 16.1286 6.78583 15.8611C6.90521 15.5935 6.81532 15.3155 6.53148 15.0745C6.24764 14.8334 5.7874 14.6443 5.2292 14.5392Z" fill="#428901"/>
<path d="M4.21413 6.1829C4.18227 6.17991 4.15695 6.17151 4.13815 6.1577C4.12334 6.14426 4.102 6.13624 4.07412 6.13362L4.06759 6.13904C4.06759 6.13904 4.0636 6.13867 4.05564 6.13792C4.05128 6.14153 4.03772 6.13624 4.01494 6.12205L3.96883 6.09966L3.9623 6.10507C3.96192 6.10905 3.95974 6.11086 3.95576 6.11048C3.96373 6.11123 3.94873 6.09978 3.91077 6.07614C3.89086 6.07427 3.86771 6.06407 3.84132 6.04553L3.7644 5.96601C3.75681 5.96128 3.74524 5.95618 3.72968 5.9507C3.7181 5.9456 3.70454 5.94031 3.68898 5.93484C3.67019 5.92102 3.64598 5.90068 3.61636 5.8738C3.59072 5.84729 3.56383 5.81263 3.5357 5.76982L3.53365 5.72744L3.50769 5.68283L3.50358 5.59808C3.50109 5.58177 3.4948 5.56311 3.48472 5.54207C3.479 5.51743 3.47346 5.4908 3.4681 5.46218C3.45653 5.45707 3.44209 5.43965 3.42479 5.40991C3.40612 5.35191 3.39771 5.31296 3.39958 5.29305C3.39995 5.28906 3.40449 5.28346 3.4132 5.27624C3.42229 5.26504 3.42882 5.25963 3.4328 5.26C3.42596 5.24731 3.40754 5.22951 3.37754 5.20662L3.37772 5.14034C3.40747 5.12304 3.42632 5.11476 3.43429 5.11551L3.4761 5.11943C3.48843 5.11656 3.50274 5.11389 3.51904 5.1114C3.53534 5.10891 3.55364 5.1066 3.57392 5.10449C3.59458 5.09839 3.60995 5.10585 3.62004 5.12688C3.62253 5.14319 3.63373 5.15227 3.65364 5.15414C3.65762 5.15451 3.66889 5.1415 3.68743 5.11512L3.74791 5.04847C3.80578 5.07398 3.84088 5.0853 3.8532 5.08244L3.95494 5.02568L4.01467 5.03127L4.00852 5.09699L4.06004 5.12592L4.0397 5.21441C4.03896 5.22237 4.044 5.23289 4.05483 5.24596C4.06565 5.25902 4.07088 5.26755 4.07051 5.27153C4.07412 5.27588 4.07119 5.28565 4.06174 5.30084L4.04102 5.32903C4.046 5.36164 4.06131 5.39119 4.08695 5.4177C4.09491 5.41845 4.11047 5.42392 4.13362 5.43412C4.13213 5.45005 4.1368 5.46455 4.14762 5.47762C4.16243 5.49106 4.17818 5.49454 4.19485 5.48807C4.19485 5.48807 4.19716 5.50637 4.20177 5.54295C4.20787 5.56361 4.2149 5.57432 4.22286 5.57506C4.22286 5.57506 4.2312 5.57183 4.24788 5.56535C4.25659 5.55813 4.26493 5.5549 4.27289 5.55564L4.3022 5.56442C4.31017 5.56516 4.31595 5.56771 4.31956 5.57207C4.32317 5.57642 4.32697 5.57879 4.33095 5.57916C4.33493 5.57953 4.34346 5.57431 4.35653 5.56348C4.3732 5.55701 4.38353 5.55396 4.38751 5.55433C4.39187 5.55072 4.40562 5.55402 4.42877 5.56422L4.4635 5.57952C4.4635 5.57952 4.47183 5.57629 4.48851 5.56982L4.50699 5.56552C4.50699 5.56552 4.51857 5.57062 4.54172 5.58083C4.55043 5.57361 4.55516 5.56601 4.5559 5.55805C4.55889 5.52619 4.56878 5.48493 4.58558 5.43428L4.6399 5.43334C4.65981 5.43521 4.67251 5.42836 4.67798 5.4128C4.67437 5.40845 4.66896 5.40191 4.66174 5.3932C4.65452 5.38449 4.6473 5.37578 4.64008 5.36707C4.63759 5.35077 4.6351 5.33446 4.63261 5.31816C4.63049 5.29787 4.62838 5.27759 4.62626 5.2573C4.62738 5.24535 4.63447 5.23396 4.64754 5.22314C4.65986 5.22027 4.67037 5.21523 4.67909 5.20801C4.67909 5.20801 4.67093 5.20926 4.65463 5.21175C4.63472 5.20988 4.62065 5.18848 4.61244 5.14753L4.59526 5.07361C4.58405 5.06452 4.57503 5.05364 4.56818 5.04094C4.55375 5.02352 4.54727 5.00684 4.54877 4.99091C4.54951 4.98295 4.55206 4.97716 4.55642 4.97355C4.55318 4.96521 4.54123 4.96409 4.52058 4.97019L4.49854 4.88376C4.49456 4.88339 4.49238 4.88519 4.49201 4.88917C4.4833 4.89639 4.47695 4.89982 4.47297 4.89944C4.46936 4.89509 4.46158 4.89235 4.44963 4.89123L4.44272 4.83635L4.40258 4.81451L4.33705 4.74208C4.33381 4.73374 4.32641 4.72702 4.31483 4.72192C4.30724 4.71719 4.29585 4.7101 4.28067 4.70064L4.27917 4.65229C4.27594 4.64395 4.27052 4.63742 4.26293 4.63269C4.25571 4.62398 4.24849 4.61527 4.24127 4.60656L4.2114 4.60376C4.20705 4.60737 4.19691 4.60843 4.18098 4.60694C4.17662 4.61054 4.1676 4.59966 4.1539 4.57427C4.14743 4.55759 4.14059 4.5449 4.13337 4.53619C4.12652 4.52349 4.1193 4.51478 4.11171 4.51005L4.02172 4.44136L3.97561 4.41896L3.97467 4.36464L3.87816 4.30136L3.85818 4.2573C3.85208 4.23665 3.83708 4.2252 3.81319 4.22296L3.80721 4.2224C3.79638 4.20933 3.79153 4.19682 3.79265 4.18488C3.74547 4.08806 3.71989 4.03946 3.71591 4.03908C3.71591 4.03908 3.70359 4.04195 3.67895 4.04767L3.67297 4.04712C3.65306 4.04525 3.64242 4.03019 3.64105 4.00194L3.62984 3.92858C3.59002 3.92484 3.56842 3.87662 3.56505 3.7839L3.51353 3.75497C3.51216 3.72672 3.51004 3.70643 3.50718 3.69411C3.50829 3.68216 3.50867 3.67818 3.50829 3.68217C3.51563 3.6467 3.52092 3.63313 3.52416 3.64147C3.52204 3.62118 3.5114 3.60612 3.49223 3.59629C3.48029 3.59517 3.47089 3.58827 3.46404 3.57557C3.46416 3.53139 3.46808 3.48957 3.4758 3.45012C3.48388 3.40669 3.49197 3.36325 3.50005 3.31982C3.50117 3.30787 3.49887 3.28957 3.49314 3.26493L3.47914 3.22144L3.4993 3.19922L3.50154 3.17533C3.50527 3.1355 3.51734 3.09244 3.53774 3.04614C3.54173 3.04651 3.54969 3.04726 3.56164 3.04838C3.57396 3.04551 3.58466 3.03848 3.59375 3.02728L3.56518 2.94626L3.65683 2.80419C3.69391 2.75142 3.72241 2.72597 3.74232 2.72783L3.77761 2.73716C3.78159 2.73754 3.78576 2.73592 3.79011 2.73231C3.79049 2.72833 3.788 2.71202 3.78264 2.6834L3.80654 2.68564C3.8145 2.68638 3.81849 2.68676 3.81849 2.68676L3.85881 2.64232C3.86752 2.6351 3.89017 2.62919 3.92676 2.62458L3.95681 2.56111L3.9807 2.56335C3.98431 2.5677 3.98792 2.57206 3.99153 2.57642C3.99514 2.58077 3.99856 2.58712 4.0018 2.59546C4.0308 2.58612 4.0573 2.56048 4.08132 2.51854L4.139 2.48176C4.139 2.48176 4.14099 2.48194 4.14498 2.48232C4.15294 2.48306 4.16308 2.482 4.17541 2.47914L4.20472 2.48791C4.21629 2.49301 4.22606 2.49594 4.23403 2.49668C4.24597 2.4978 4.26719 2.48573 4.29768 2.46046C4.33178 2.43955 4.35082 2.42928 4.3548 2.42966L4.40577 2.46456C4.40465 2.47651 4.40571 2.48665 4.40895 2.49499L4.509 2.45615C4.52095 2.45727 4.54914 2.47799 4.59357 2.51831C4.60042 2.53101 4.59781 2.55889 4.58574 2.60195L4.60422 2.59765L4.61243 2.57432C4.62077 2.57108 4.6293 2.56585 4.63801 2.55863C4.64672 2.55141 4.65742 2.54438 4.67012 2.53754C4.67086 2.52957 4.67795 2.51818 4.69139 2.50337C4.695 2.50773 4.69861 2.51208 4.70222 2.51644C4.70982 2.52117 4.71722 2.52789 4.72444 2.5366C4.73888 2.55402 4.75008 2.56311 4.75804 2.56385C4.76676 2.55663 4.77926 2.55178 4.79557 2.54929L4.80751 2.55041C4.84336 2.55376 4.88188 2.57143 4.92307 2.60342L4.99514 2.67043L4.99831 2.70086C4.99035 2.70011 4.97983 2.70515 4.96677 2.71598C4.97685 2.73701 4.99384 2.74865 5.01773 2.75089L5.01549 2.77478C5.02309 2.77951 5.03721 2.77883 5.05787 2.77273C5.0636 2.79737 5.08239 2.81118 5.11425 2.81417C5.12222 2.81491 5.13124 2.8258 5.14132 2.84683C5.13622 2.85841 5.13491 2.87235 5.13741 2.88865C5.17375 2.9724 5.1923 3.0103 5.19304 3.00233L5.19249 3.00831C5.19137 3.02026 5.18135 3.04141 5.16243 3.07178C5.13804 3.11771 5.12566 3.14266 5.12529 3.14664C5.1238 3.16257 5.14657 3.17676 5.19362 3.1892C5.23668 3.20127 5.25585 3.2111 5.25112 3.21869L5.27707 3.26331C5.27271 3.26692 5.26998 3.2747 5.26886 3.28664C5.26774 3.29859 5.27004 3.31689 5.27577 3.34153C5.28834 3.37886 5.29388 3.4055 5.29239 3.42143C5.28368 3.42865 5.27279 3.43767 5.25972 3.4485C5.24703 3.45534 5.23216 3.46399 5.21511 3.47445C5.20677 3.47769 5.19246 3.48036 5.17217 3.48248C5.15587 3.48497 5.1316 3.48671 5.09937 3.48771L4.96626 3.49332C4.95792 3.49656 4.9476 3.49961 4.93527 3.50247C4.92295 3.50534 4.91063 3.5082 4.89831 3.51106L4.82886 3.48045C4.80422 3.48618 4.78425 3.5064 4.76894 3.54113C4.74928 3.57946 4.73149 3.59788 4.71556 3.59639C4.71157 3.59602 4.70653 3.5855 4.70043 3.56484C4.69035 3.54381 4.68332 3.53311 4.67934 3.53273C4.67535 3.53236 4.66683 3.53759 4.65376 3.54842L4.61736 3.55103L4.60933 3.5081C4.61082 3.49217 4.6181 3.47879 4.63117 3.46796C4.64063 3.45277 4.64554 3.44319 4.64591 3.43921L4.6194 3.40057C4.63645 3.39011 4.65263 3.36752 4.66793 3.3328C4.64404 3.33056 4.61473 3.32179 4.58001 3.30648C4.58075 3.29852 4.57969 3.28838 4.57683 3.27605C4.57434 3.25975 4.56986 3.24326 4.56338 3.22658L4.54564 3.15863C4.52834 3.12889 4.49057 3.10326 4.43232 3.08173L4.378 3.08267C4.37003 3.08192 4.35989 3.08298 4.34757 3.08584C4.33961 3.0851 4.32747 3.08597 4.31117 3.08846C4.29922 3.08734 4.28497 3.06793 4.26841 3.03022C4.26045 3.02947 4.25572 3.03706 4.25423 3.05299L4.2785 3.11553C4.23133 3.14727 4.194 3.15984 4.16649 3.15325L4.1581 3.24286C4.14939 3.25007 4.14267 3.25748 4.13794 3.26507C4.13719 3.27304 4.13626 3.28299 4.13514 3.29494C4.13801 3.30726 4.14068 3.32157 4.14317 3.33788C4.14778 3.37447 4.14753 3.39855 4.14243 3.41012C4.14206 3.41411 4.13969 3.4179 4.13534 3.42151C4.12663 3.42873 4.12171 3.43831 4.12059 3.45026C4.11985 3.45823 4.12489 3.46874 4.13572 3.48181C4.14219 3.49849 4.14543 3.50682 4.14543 3.50682C4.14505 3.51081 4.12962 3.52543 4.09913 3.5507C4.06864 3.57596 4.05321 3.59059 4.05284 3.59457C4.04973 3.67061 4.07606 3.71125 4.13181 3.71647L4.14973 3.71815C4.16168 3.71927 4.17363 3.72039 4.18558 3.72151C4.1979 3.71864 4.21003 3.71777 4.22198 3.71889C4.23791 3.72038 4.25365 3.72386 4.26921 3.72934C4.28514 3.73083 4.30089 3.73432 4.31644 3.73979L4.31085 3.79953C4.30861 3.82342 4.33132 3.8597 4.37899 3.90836C4.38696 3.90911 4.39673 3.91203 4.4083 3.91713C4.42423 3.91862 4.43998 3.92211 4.45553 3.92758L4.4701 3.9651C4.47769 3.96983 4.49051 3.98309 4.50856 4.00486L4.52798 4.05489C4.53482 4.06759 4.54223 4.07431 4.55019 4.07505C4.58243 4.07405 4.60271 4.07194 4.61105 4.0687C4.61503 4.06907 4.61503 4.06907 4.61105 4.0687C4.6133 4.17337 4.61641 4.22589 4.6204 4.22626L4.69338 4.15476L4.7113 4.15643L4.72904 4.22438C4.73265 4.22874 4.73446 4.23092 4.73446 4.23092C4.73844 4.23129 4.74043 4.23148 4.74043 4.23148L4.77739 4.22289C4.79295 4.22836 4.79706 4.24884 4.78972 4.28431L4.84666 4.31977C4.85064 4.32014 4.86309 4.33738 4.884 4.37148C4.91984 4.37484 4.94442 4.3912 4.95774 4.42057C4.96098 4.42891 4.96403 4.43924 4.96689 4.45156C4.97013 4.4599 4.97498 4.4724 4.98146 4.48908L5.02701 4.51745C5.02626 4.52542 5.02533 4.53537 5.02421 4.54732C5.02309 4.55927 5.02359 4.57539 5.02571 4.59567C5.02384 4.61559 5.02652 4.6299 5.03374 4.63861C5.03772 4.63898 5.05297 4.62635 5.07947 4.60071C5.09901 4.60656 5.11109 4.62778 5.11569 4.66436C5.12067 4.69697 5.13113 4.71402 5.14706 4.71551C5.15503 4.71626 5.16119 4.71483 5.16554 4.71122C5.1684 4.72354 5.16909 4.73766 5.1676 4.75359C5.16648 4.76554 5.16517 4.77948 5.16368 4.79541C5.16256 4.80736 5.16941 4.82005 5.18422 4.83349C5.1994 4.84295 5.21315 4.84625 5.22548 4.84338L5.2421 4.92328C5.2482 4.94394 5.24092 4.95732 5.22026 4.96342C5.22748 4.97213 5.23525 4.97487 5.24359 4.97163L5.23482 5.00094L5.26021 5.05153L5.26171 5.09988C5.27254 5.11295 5.27957 5.12365 5.28281 5.13199C5.29687 5.15339 5.30067 5.22004 5.29421 5.33192C5.28911 5.3435 5.28488 5.36721 5.28152 5.40305L5.25427 5.43666C5.26074 5.45333 5.26392 5.48376 5.2638 5.52794L5.23766 5.5496C5.23542 5.57349 5.20736 5.63715 5.15348 5.74058L5.13127 5.72042C5.11895 5.72328 5.11185 5.73467 5.10999 5.75458C5.10514 5.80636 5.10053 5.83405 5.09618 5.83766L5.03308 5.86791C5.03445 5.89616 5.03259 5.91607 5.02749 5.92764L4.92463 5.99635L4.89738 6.02996C4.86763 6.04726 4.83789 6.06456 4.80815 6.08186C4.78276 6.09555 4.75575 6.10507 4.72713 6.11043C4.72315 6.11005 4.715 6.1113 4.70267 6.11416C4.69471 6.11342 4.68257 6.11429 4.66627 6.11678C4.64848 6.1352 4.61836 6.15648 4.57592 6.18063L4.51786 6.15711L4.48034 6.17168C4.47163 6.1789 4.44736 6.18064 4.40754 6.17691L4.31195 6.16796C4.29565 6.17045 4.27935 6.17294 4.26304 6.17543C4.25072 6.17829 4.23442 6.18078 4.21413 6.1829ZM3.9113 3.11126C3.91565 3.10765 3.93015 3.10299 3.95479 3.09726L4.00202 3.10771L4.0487 3.12413C4.0813 3.11915 4.09891 3.10272 4.10152 3.07485L4.09779 3.05039L4.01304 3.0545C3.99312 3.05264 3.97246 3.05874 3.95106 3.0728C3.92505 3.05028 3.90607 3.03846 3.89412 3.03734C3.89735 3.04568 3.9004 3.05601 3.90327 3.06833C3.90613 3.08065 3.90881 3.09496 3.9113 3.11126ZM3.79891 3.08868C3.81012 3.09777 3.82082 3.09074 3.83102 3.06759C3.8238 3.05887 3.81584 3.05813 3.80713 3.06535C3.79842 3.07257 3.79568 3.08035 3.79891 3.08868ZM5.00993 3.2202L5.03606 3.19855C5.03643 3.19457 5.02847 3.19382 5.01216 3.19631L5.00993 3.2202ZM5.08479 3.25735C5.09636 3.26245 5.10887 3.2576 5.12231 3.24279C5.1187 3.23843 5.11291 3.23588 5.10495 3.23513C5.093 3.23401 5.08628 3.24142 5.08479 3.25735ZM4.06308 3.22793C4.06457 3.212 4.06133 3.20366 4.05337 3.20291C4.05013 3.19458 4.04198 3.19582 4.02891 3.20665C4.0278 3.2186 4.03918 3.22569 4.06308 3.22793ZM3.62271 3.36144C3.62632 3.36579 3.62793 3.36996 3.62756 3.37395C3.63117 3.3783 3.63478 3.38266 3.63839 3.38701C3.63876 3.38303 3.63932 3.37706 3.64007 3.36909L3.64063 3.36312L3.62271 3.36144ZM4.38722 4.07787C4.39518 4.07861 4.40352 4.07537 4.41223 4.06816C4.42095 4.06094 4.41771 4.0526 4.40253 4.04314C4.39381 4.05036 4.38871 4.06193 4.38722 4.07787ZM3.92126 4.03422C3.92201 4.02625 3.91877 4.01791 3.91155 4.0092C3.90433 4.00049 3.89599 4.00373 3.88654 4.01891C3.88542 4.03086 3.89699 4.03596 3.92126 4.03422ZM4.69848 4.87236C4.70644 4.8731 4.71478 4.86987 4.72349 4.86265C4.72461 4.8507 4.72156 4.84037 4.71434 4.83166C4.70165 4.83851 4.69636 4.85207 4.69848 4.87236ZM4.94154 4.9795C4.94229 4.97153 4.93905 4.96319 4.93183 4.95448C4.92063 4.9454 4.9103 4.94845 4.90085 4.96363C4.90769 4.97632 4.92126 4.98161 4.94154 4.9795ZM5.02183 5.21602C5.02295 5.20407 5.01773 5.19554 5.00615 5.19044C4.99819 5.18969 4.98985 5.19293 4.98114 5.20015C4.98798 5.21284 5.00155 5.21813 5.02183 5.21602ZM4.67965 5.20204C4.68325 5.20639 4.68307 5.20839 4.67909 5.20801C4.68344 5.2044 4.68562 5.2026 4.68562 5.2026L4.67965 5.20204ZM3.76528 5.24896L3.79086 5.23328C3.79086 5.23328 3.78725 5.22892 3.78003 5.22021C3.78003 5.22021 3.77766 5.22401 3.77294 5.2316C3.76821 5.23919 3.76566 5.24498 3.76528 5.24896ZM3.91113 5.94359L3.93559 5.93986C3.93994 5.93625 3.95407 5.93556 3.97796 5.9378L4.05748 5.86088C4.05027 5.85217 4.04342 5.83948 4.03695 5.8228C4.03085 5.80214 4.02493 5.77949 4.01921 5.75485L4.02089 5.73693C4.02275 5.71702 4.03022 5.70165 4.04328 5.69082L3.98299 5.6912L4.00764 5.81403C4.00465 5.84589 3.99955 5.85747 3.99233 5.84875L3.98692 5.84222C3.98692 5.84222 3.98294 5.84185 3.97497 5.8411C3.96589 5.8523 3.94174 5.87415 3.90254 5.90663C3.90976 5.91534 3.91262 5.92766 3.91113 5.94359ZM4.22829 5.77444C4.22866 5.77045 4.22344 5.76193 4.21261 5.74886C4.21261 5.74886 4.20825 5.75247 4.19954 5.75969C4.19954 5.75969 4.20334 5.76206 4.21093 5.76678C4.21852 5.77151 4.22431 5.77406 4.22829 5.77444ZM3.82674 5.81516C3.82749 5.8072 3.82425 5.79886 3.81703 5.79015C3.8138 5.78181 3.80565 5.78306 3.79258 5.79388C3.79146 5.80583 3.80285 5.81293 3.82674 5.81516ZM4.23185 5.86516C4.23657 5.85757 4.23533 5.84942 4.22811 5.84071C4.22487 5.83237 4.21454 5.83542 4.19712 5.84986C4.20397 5.86255 4.21554 5.86765 4.23185 5.86516Z" fill="#428901"/>
</svg>
