<svg width="9" height="9" viewBox="0 0 9 9" fill="none" xmlns="http://www.w3.org/2000/svg">
<rect x="4.18457" y="0.282843" width="5.51772" height="5.51772" transform="rotate(45 4.18457 0.282843)" fill="white" stroke="#C42121" stroke-width="0.4"/>
<path d="M4.60289 6.1533L4.55678 6.1309C4.50576 6.11809 4.45852 6.10764 4.41509 6.09955C4.37526 6.09582 4.33961 6.09047 4.30812 6.0835L4.25921 6.09097L4.1192 6.0417L4.06375 6.05458L3.89872 6.01502L3.80856 6.0126C3.80059 6.01185 3.79244 6.0131 3.7841 6.01634L3.75965 6.02007L3.5121 5.96072L3.46916 5.96876C3.46157 5.96403 3.45 5.95892 3.43444 5.95345C3.42287 5.94835 3.4093 5.94306 3.39374 5.93758L3.3747 5.94785C3.36711 5.94312 3.34738 5.93927 3.31552 5.93628L3.30302 5.94114L3.19549 5.93107C3.13575 5.92547 3.11502 5.88938 3.13331 5.82279L3.15254 5.74625C3.15913 5.71875 3.16317 5.69703 3.16467 5.6811C3.16653 5.66119 3.16802 5.64526 3.16914 5.63331C3.17387 5.62572 3.18277 5.61651 3.19584 5.60568C3.20928 5.59087 3.23087 5.57481 3.26061 5.55751L3.26173 5.54556L3.20311 5.52802L3.19938 5.50356C3.20199 5.47569 3.212 5.45453 3.22943 5.44009C3.25631 5.41047 3.27286 5.3839 3.27908 5.36037C3.25954 5.35453 3.24709 5.33729 3.24174 5.30867L3.22997 5.24128C3.22997 5.24128 3.23899 5.18788 3.25703 5.0811L3.29717 5.10294C3.30152 5.09933 3.30463 5.08757 3.3065 5.06766L3.30986 5.03181C3.29903 5.01875 3.29019 5.00587 3.28335 4.99317L3.27849 4.98066C3.27924 4.9727 3.28471 4.95714 3.29492 4.93399C3.30512 4.91084 3.31022 4.89927 3.31022 4.89927C3.31171 4.88334 3.30505 4.86865 3.29024 4.85521C3.29173 4.83928 3.29758 4.81974 3.30779 4.79659C3.30779 4.79659 3.30436 4.79025 3.29752 4.77755C3.29864 4.76561 3.30119 4.75982 3.30517 4.76019C3.30305 4.73991 3.3071 4.71819 3.3173 4.69504C3.33111 4.67625 3.33802 4.66685 3.33802 4.66685L3.33167 4.60599C3.32955 4.5857 3.32687 4.57139 3.32364 4.56305C3.32077 4.55073 3.31953 4.54258 3.3199 4.5386C3.32065 4.53063 3.32973 4.51943 3.34715 4.505C3.36458 4.49056 3.37366 4.47936 3.37441 4.47139C3.37441 4.47139 3.37154 4.45907 3.36582 4.43443C3.35499 4.42136 3.34976 4.41284 3.35013 4.40885L3.38952 4.3101C3.37035 4.30027 3.36861 4.276 3.38428 4.23729L3.40892 4.16728C3.4068 4.147 3.40431 4.13069 3.40145 4.11837C3.40257 4.10643 3.4035 4.09647 3.40425 4.0885L3.42403 4.00599L3.45782 3.96697C3.45458 3.95863 3.4501 3.94214 3.44437 3.9175L3.4593 3.82248C3.44959 3.79746 3.44492 3.78297 3.4453 3.77898L3.5026 3.68191C3.5026 3.68191 3.5008 3.67973 3.49719 3.67537C3.49756 3.67139 3.49613 3.66523 3.49289 3.65689C3.49401 3.64494 3.49532 3.631 3.49681 3.61507C3.50266 3.59553 3.50888 3.57201 3.51547 3.54451L3.51024 3.4717C3.51385 3.47606 3.52063 3.44656 3.53058 3.38321L3.52199 3.34625C3.51875 3.33791 3.51533 3.33157 3.51172 3.32721C3.51209 3.32323 3.51247 3.31924 3.51284 3.31526C3.51757 3.30767 3.5223 3.30008 3.52703 3.29249C3.53176 3.28489 3.53468 3.27512 3.5358 3.26318L3.56509 3.07911L3.62499 2.63275C3.64938 2.58682 3.6625 2.5539 3.66437 2.53399L3.66119 2.50356C3.66194 2.4956 3.66051 2.48943 3.6569 2.48508C3.65329 2.48072 3.65167 2.47655 3.65204 2.47257L3.65278 2.40033C3.65353 2.39236 3.66355 2.3712 3.68284 2.33685C3.69839 2.34233 3.71594 2.34799 3.73548 2.35384C3.75539 2.3557 3.77493 2.36155 3.7941 2.37138C3.80493 2.38445 3.82173 2.39807 3.84451 2.41226C3.84849 2.41263 3.8572 2.40541 3.87064 2.3906C3.88371 2.37977 3.89422 2.37473 3.90219 2.37548L3.93579 2.40273C3.9582 2.4209 3.99292 2.43621 4.03997 2.44865C4.04942 2.43346 4.05851 2.42226 4.06722 2.41504L4.11557 2.41355C4.13187 2.41106 4.146 2.41037 4.15794 2.41149L4.18016 2.43165C4.18738 2.44036 4.19914 2.44347 4.21545 2.44098L4.2763 2.43463C4.29261 2.43214 4.30474 2.43127 4.31271 2.43201C4.32067 2.43276 4.32664 2.43332 4.33063 2.43369L4.43536 2.47363C4.4437 2.4704 4.45185 2.46915 4.45981 2.4699C4.47213 2.46704 4.48645 2.46436 4.50275 2.46187L4.55539 2.47885C4.55788 2.49516 4.56909 2.50424 4.589 2.50611C4.59298 2.50648 4.6035 2.50144 4.62055 2.49098C4.63797 2.47654 4.6483 2.47349 4.65154 2.48183C4.65154 2.48183 4.66311 2.48693 4.68626 2.49714C4.69497 2.48992 4.70549 2.48488 4.71781 2.48201L4.75851 2.49788C4.7661 2.50261 4.7717 2.50715 4.77531 2.51151C4.7829 2.51623 4.78869 2.51879 4.79267 2.51916L4.8231 2.51598C4.82235 2.52395 4.82864 2.54262 4.84196 2.57199C4.85104 2.56078 4.85253 2.54485 4.84643 2.5242L4.8959 2.51075C4.9035 2.51548 4.91488 2.52257 4.93007 2.53203C4.94525 2.54149 4.96243 2.55113 4.98159 2.56096C4.98085 2.56893 4.98589 2.57944 4.99672 2.59251L5.01464 2.59419L5.0544 2.55573C5.06274 2.55249 5.07288 2.55143 5.08483 2.55255C5.10076 2.55405 5.11688 2.55355 5.13318 2.55106L5.17444 2.56095L5.14122 2.78683C5.11982 2.8009 5.10818 2.81789 5.10632 2.8378L5.10781 2.88615L5.06901 3.17178C5.06639 3.19965 5.04318 3.21154 4.99938 3.20744C4.98855 3.19437 4.97735 3.18529 4.96577 3.18018C4.95021 3.17471 4.9285 3.17067 4.90062 3.16806C4.87311 3.16146 4.84125 3.15848 4.80504 3.1591C4.79707 3.15836 4.78712 3.15742 4.77517 3.1563C4.76359 3.1512 4.74804 3.14573 4.7285 3.13988L4.67529 3.12887L4.57859 3.13186L4.4776 3.11638C4.46963 3.11563 4.46185 3.11289 4.45426 3.10816L4.43092 3.09995C4.39944 3.09298 4.37374 3.08857 4.35382 3.0867C4.33789 3.08521 4.32794 3.08428 4.32395 3.0839C4.30914 3.07046 4.29377 3.063 4.27784 3.06151C4.26988 3.06076 4.25519 3.06742 4.23379 3.08148C4.21238 3.09555 4.1977 3.10221 4.18973 3.10146C4.18861 3.11341 4.18587 3.12119 4.18152 3.1248L4.18469 3.15523C4.18793 3.16356 4.18899 3.17371 4.18787 3.18566C4.18712 3.19362 4.188 3.20576 4.19049 3.22206C4.14917 3.23426 4.12186 3.28995 4.10855 3.38914L4.13188 3.39736L4.1737 3.40127C4.17731 3.40563 4.17837 3.41577 4.17687 3.4317C4.17538 3.44763 4.16592 3.46282 4.1485 3.47725C4.12672 3.4953 4.11584 3.50433 4.11584 3.50433C4.12841 3.54166 4.13482 3.58043 4.13507 3.62063C4.13433 3.62859 4.12468 3.64577 4.10614 3.67215C4.0876 3.69854 4.07739 3.72169 4.07553 3.7416L4.06526 3.72256L4.04622 3.73283L4.04454 3.75075C4.05176 3.75946 4.06732 3.76494 4.09121 3.76718C4.09047 3.77514 4.08953 3.7851 4.08841 3.79704C4.09165 3.80538 4.0947 3.81571 4.09756 3.82803C4.11449 3.86176 4.13092 3.87937 4.14685 3.88086L4.19035 3.86686C4.19396 3.87121 4.20118 3.87992 4.212 3.89299C4.22719 3.90245 4.23677 3.90736 4.24075 3.90774C4.23715 3.90338 4.25419 3.89292 4.2919 3.87637C4.32737 3.88371 4.35345 3.88414 4.37012 3.87767C4.39539 3.90816 4.414 3.92396 4.42594 3.92508L4.44984 3.92732L4.49334 3.91332C4.49732 3.91369 4.50348 3.91226 4.51182 3.90902C4.52015 3.90579 4.52849 3.90255 4.53683 3.89931L4.57379 3.89072C4.58574 3.89184 4.59893 3.90111 4.61337 3.91854C4.63142 3.94031 4.64243 3.95139 4.64642 3.95176C4.65911 3.94492 4.67759 3.94062 4.70186 3.93888C4.70186 3.93888 4.70149 3.94286 4.70074 3.95083C4.70435 3.95518 4.7056 3.96333 4.70448 3.97528C4.70298 3.99121 4.69875 4.01492 4.69179 4.04641C4.68918 4.07428 4.68383 4.10994 4.67574 4.15338L4.66155 4.17615C4.66442 4.18847 4.6638 4.21654 4.65969 4.26035C4.65496 4.26794 4.64968 4.2815 4.64383 4.30104C4.63798 4.32058 4.63468 4.33434 4.63394 4.3423L4.63282 4.35425C4.63207 4.36221 4.63419 4.3825 4.63917 4.41511L4.63693 4.439C4.63432 4.46688 4.62412 4.49003 4.60632 4.50845C4.56276 4.54454 4.537 4.56222 4.52904 4.56147L4.47695 4.53851C4.46899 4.53777 4.45884 4.53883 4.44652 4.54169L4.41012 4.54431C4.4029 4.5356 4.39351 4.52869 4.38193 4.52359C4.37471 4.51488 4.36332 4.50778 4.34777 4.50231C4.33943 4.50554 4.3291 4.50859 4.31678 4.51146C4.30881 4.51071 4.29668 4.51158 4.28038 4.51407L4.21634 4.49C4.17764 4.47432 4.15231 4.46592 4.14036 4.4648L4.0795 4.47115C4.07154 4.47041 4.06289 4.45553 4.05355 4.42654C4.06985 4.42405 4.08074 4.41502 4.08622 4.39947L4.09219 4.40003C4.10016 4.40077 4.11211 4.40189 4.12804 4.40338C4.14397 4.40488 4.15971 4.40836 4.17527 4.41383L4.18348 4.3905L4.1846 4.37855C4.18572 4.3666 4.17906 4.35192 4.16462 4.33449C4.16064 4.33412 4.15267 4.33338 4.14072 4.33226C4.13313 4.32753 4.12156 4.32243 4.106 4.31695C4.09729 4.32417 4.09181 4.33973 4.08958 4.36362C4.078 4.35852 4.06512 4.36736 4.05094 4.39013C4.04372 4.38142 4.02922 4.38609 4.00744 4.40414L4.00352 4.44596C3.99481 4.45317 3.98554 4.46637 3.97571 4.48553C3.94671 4.49487 3.93128 4.50949 3.92942 4.52941C3.92942 4.52941 3.93303 4.53376 3.94024 4.54247C3.94385 4.54683 3.94529 4.55299 3.94454 4.56096L3.9423 4.58485C3.94118 4.5968 3.94006 4.60875 3.93894 4.62069C3.93782 4.63264 3.93434 4.64839 3.92849 4.66793L3.94418 4.6935C3.93397 4.71665 3.89944 4.76363 3.84058 4.83445L3.83946 4.8464C3.83797 4.86233 3.84263 4.87683 3.85346 4.88989C3.86367 4.86675 3.888 4.84291 3.92645 4.81839C3.94051 4.8398 3.94661 4.86045 3.94475 4.88037C3.94438 4.88435 3.91824 4.90601 3.86635 4.94534L3.88633 4.98939L3.91078 4.98566C3.92671 4.98715 3.93356 4.99984 3.93132 5.02374C3.92261 5.03096 3.91116 5.04596 3.89697 5.06873C3.88752 5.08392 3.88204 5.09947 3.88055 5.1154L3.89679 5.135C3.89642 5.13899 3.88205 5.16375 3.85367 5.20931L3.86712 5.25878C3.86525 5.27869 3.85019 5.28933 3.82194 5.2907C3.82555 5.29506 3.83532 5.29798 3.85125 5.29947L3.85555 5.31796C3.84248 5.32878 3.8334 5.33999 3.82829 5.35156C3.83402 5.3762 3.84665 5.39145 3.86619 5.39729C3.88611 5.39916 3.90185 5.40264 3.91343 5.40774C3.94566 5.40675 3.97771 5.40774 4.00957 5.41072C4.04143 5.41371 4.07528 5.41688 4.11112 5.42024C4.11361 5.43654 4.12282 5.44544 4.13875 5.44693C4.14672 5.44768 4.16632 5.43143 4.19755 5.3982C4.22145 5.40044 4.23533 5.42384 4.23919 5.46839L4.25711 5.47007C4.25823 5.45812 4.26115 5.44835 4.26588 5.44076C4.29488 5.43143 4.33707 5.43136 4.39245 5.44057L4.46134 5.47715C4.46097 5.48113 4.47671 5.48462 4.50857 5.4876C4.5245 5.48909 4.53427 5.49202 4.53788 5.49637L4.61722 5.48573C4.62917 5.48685 4.6395 5.4838 4.64821 5.47658C4.65256 5.47297 4.66669 5.47228 4.69059 5.47452C4.7217 5.48547 4.73539 5.51086 4.73166 5.55068C4.73017 5.56661 4.72028 5.60787 4.70199 5.67445C4.70199 5.67445 4.69763 5.67806 4.68892 5.68528C4.68419 5.69288 4.68145 5.70065 4.68071 5.70862L4.66672 5.85797C4.66672 5.85797 4.6544 5.86083 4.62976 5.86656C4.65241 5.92492 4.66206 5.97203 4.6587 6.00787C4.65684 6.02778 4.64302 6.04658 4.61726 6.06425L4.62791 6.14359C4.61123 6.15006 4.60289 6.1533 4.60289 6.1533ZM4.94502 2.82269L4.951 2.82325C4.97489 2.82549 4.99611 2.81342 5.01465 2.78703C5.0042 2.76998 4.99499 2.76108 4.98702 2.76034L4.91142 2.79544C4.92187 2.81249 4.93308 2.82157 4.94502 2.82269ZM4.82574 2.93807C4.82612 2.93409 4.82089 2.92556 4.81006 2.9125C4.81006 2.9125 4.8057 2.9161 4.79699 2.92332L4.82574 2.93807ZM3.89196 2.93496L3.92799 2.87205L3.89924 2.8573L3.87702 2.83714C3.85163 2.85084 3.83763 2.87162 3.83502 2.8995C3.85743 2.91767 3.87641 2.92949 3.89196 2.93496ZM3.70009 3.37499C3.70083 3.36702 3.69959 3.35887 3.69635 3.35053C3.6971 3.34257 3.69585 3.33441 3.69262 3.32608L3.6508 3.32216L3.64259 3.3455L3.6648 3.36565L3.70009 3.37499ZM3.43876 3.7844C3.43951 3.77643 3.44169 3.77463 3.4453 3.77898L3.43876 3.7844ZM3.74904 3.94604C3.77194 3.91605 3.77019 3.89178 3.74381 3.87324C3.73945 3.87685 3.73236 3.88823 3.72253 3.9074C3.72141 3.91935 3.73025 3.93223 3.74904 3.94604ZM3.59951 3.99832L3.61388 3.90928L3.59764 3.88967L3.55582 3.88576L3.54817 3.90312C3.54817 3.90312 3.55302 3.91563 3.56273 3.94064C3.57032 3.94537 3.5692 3.95732 3.55937 3.97648C3.57132 3.9776 3.5847 3.98488 3.59951 3.99832ZM3.66262 4.16092C3.66337 4.15295 3.6643 4.143 3.66542 4.13105C3.66654 4.1191 3.66965 4.10734 3.67475 4.09577C3.67077 4.09539 3.66224 4.10062 3.64918 4.11145C3.64806 4.1234 3.65254 4.13989 3.66262 4.16092ZM4.3806 4.21612L4.38658 4.21668C4.39454 4.21743 4.41483 4.21531 4.44743 4.21033L4.42036 4.17766C4.41352 4.16497 4.3992 4.16765 4.37743 4.18569C4.37593 4.20162 4.37699 4.21177 4.3806 4.21612ZM3.7435 4.77715C3.74785 4.77354 3.74462 4.7652 3.73379 4.75213C3.72582 4.75139 3.71966 4.75282 3.71531 4.75643L3.7435 4.77715ZM3.70767 4.96663C3.71564 4.96738 3.73194 4.96489 3.75658 4.95916L3.74314 4.90969C3.72683 4.91218 3.71812 4.9194 3.717 4.93135L3.70767 4.96663ZM3.45696 5.0697C3.45771 5.06173 3.45864 5.05178 3.45976 5.03983C3.46088 5.02788 3.46381 5.01811 3.46853 5.01052C3.46493 5.00616 3.45659 5.0094 3.44352 5.02023L3.45696 5.0697ZM3.45063 5.20168C3.45536 5.19409 3.45411 5.18594 3.44689 5.17723C3.43967 5.16852 3.42972 5.16758 3.41702 5.17443C3.42026 5.18277 3.43146 5.19185 3.45063 5.20168ZM3.36011 5.52465C3.37355 5.50984 3.37703 5.49409 3.37056 5.47742L3.34667 5.47518L3.33136 5.5099C3.33858 5.51861 3.34816 5.52353 3.36011 5.52465ZM4.22671 5.85893C4.22746 5.85097 4.22422 5.84263 4.217 5.83392C4.21339 5.82956 4.20524 5.83081 4.19255 5.83765C4.19143 5.8496 4.20281 5.85669 4.22671 5.85893ZM4.23232 5.99203L4.34153 5.98419L4.32752 5.94069C4.32142 5.92003 4.30643 5.90858 4.28253 5.90634L4.22709 5.91923C4.22597 5.93118 4.22485 5.94312 4.22373 5.95507C4.22659 5.96739 4.22946 5.97971 4.23232 5.99203Z" fill="#C42121"/>
</svg>
