<svg width="9" height="17" viewBox="0 0 9 17" fill="none" xmlns="http://www.w3.org/2000/svg">
<rect x="4.18457" y="0.282843" width="5.51772" height="5.51772" transform="rotate(45 4.18457 0.282843)" fill="white" stroke="#C42121" stroke-width="0.4"/>
<path d="M1.55957 6.13287L4.2333 8.81084L6.83172 6.13287L4.51843 9.49998L4.2333 16.3544L3.95356 9.49998L1.55957 6.13287Z" fill="#C42121" stroke="#C42121" stroke-width="0.1"/>
<mask id="path-3-inside-1_2135_1041" fill="white">
<path d="M5.2292 14.5392C5.89087 14.5214 6.57712 14.7041 6.90716 14.9843C7.2372 15.2646 7.34172 15.5878 7.20291 15.899C7.0641 16.2101 6.69055 16.4899 6.14591 16.6907C5.60127 16.8914 4.91923 17.0008 4.21602 17C3.5128 16.9993 2.83192 16.8885 2.28937 16.6866C1.74682 16.4847 1.37619 16.2041 1.24062 15.8926C1.10505 15.5812 1.21293 15.2582 1.54588 14.9787C1.87883 14.6991 2.58233 14.5214 3.22844 14.5214L3.22845 14.5371C2.66916 14.641 2.20696 14.8291 1.92061 15.0696C1.63427 15.31 1.54149 15.5878 1.65808 15.8556C1.77468 16.1235 2.16952 16.3422 2.63612 16.5158C3.11546 16.6277 3.61123 16.7304 4.21602 16.731C4.82081 16.7317 5.3261 16.6371 5.82309 16.4884C6.29149 16.3157 6.66645 16.1286 6.78583 15.8611C6.90521 15.5935 6.81532 15.3155 6.53148 15.0745C6.24764 14.8334 5.7874 14.6443 5.2292 14.5392Z"/>
</mask>
<path d="M5.2292 14.5392C5.89087 14.5214 6.57712 14.7041 6.90716 14.9843C7.2372 15.2646 7.34172 15.5878 7.20291 15.899C7.0641 16.2101 6.69055 16.4899 6.14591 16.6907C5.60127 16.8914 4.91923 17.0008 4.21602 17C3.5128 16.9993 2.83192 16.8885 2.28937 16.6866C1.74682 16.4847 1.37619 16.2041 1.24062 15.8926C1.10505 15.5812 1.21293 15.2582 1.54588 14.9787C1.87883 14.6991 2.58233 14.5214 3.22844 14.5214L3.22845 14.5371C2.66916 14.641 2.20696 14.8291 1.92061 15.0696C1.63427 15.31 1.54149 15.5878 1.65808 15.8556C1.77468 16.1235 2.16952 16.3422 2.63612 16.5158C3.11546 16.6277 3.61123 16.7304 4.21602 16.731C4.82081 16.7317 5.3261 16.6371 5.82309 16.4884C6.29149 16.3157 6.66645 16.1286 6.78583 15.8611C6.90521 15.5935 6.81532 15.3155 6.53148 15.0745C6.24764 14.8334 5.7874 14.6443 5.2292 14.5392Z" fill="#C42121"/>
<path d="M5.2292 14.5392L5.2023 13.5396L5.04426 15.522L5.2292 14.5392ZM3.22844 14.5214L4.22844 14.5211L4.22813 13.5214H3.22844V14.5214ZM3.22845 14.5371L3.41103 15.5203L4.22871 15.3684L4.22845 14.5368L3.22845 14.5371ZM2.63612 16.5158L2.28733 17.453L2.3469 17.4752L2.40879 17.4897L2.63612 16.5158ZM5.82309 16.4884L6.10976 17.4464L6.13967 17.4375L6.16896 17.4267L5.82309 16.4884ZM5.2561 15.5389C5.49126 15.5325 5.73276 15.5626 5.9359 15.6165C6.03622 15.6432 6.11731 15.673 6.17744 15.701C6.24021 15.7301 6.2629 15.7492 6.25988 15.7466L7.55444 14.2221C7.23229 13.9485 6.82021 13.782 6.44918 13.6835C6.06127 13.5805 5.62881 13.5281 5.2023 13.5396L5.2561 15.5389ZM6.25988 15.7466C6.32522 15.8021 6.30138 15.8058 6.27936 15.7377C6.2678 15.702 6.26043 15.6565 6.26336 15.6061C6.26627 15.5561 6.27844 15.5167 6.28967 15.4915L8.11614 16.3064C8.2834 15.9315 8.31038 15.5184 8.18234 15.1224C8.06026 14.7448 7.81913 14.4469 7.55444 14.2221L6.25988 15.7466ZM6.28967 15.4915C6.30933 15.4475 6.31427 15.4705 6.2271 15.5358C6.14335 15.5985 6.00489 15.6769 5.80003 15.7524L6.49178 17.6289C7.12204 17.3966 7.81153 16.9892 8.11614 16.3064L6.28967 15.4915ZM5.80003 15.7524C5.38718 15.9046 4.8262 16.0007 4.21708 16L4.21496 18C5.01227 18.0009 5.81535 17.8783 6.49178 17.6289L5.80003 15.7524ZM4.21708 16C3.60787 15.9994 3.04843 15.9021 2.63817 15.7494L1.94057 17.6238C2.61541 17.8749 3.41774 17.9992 4.21496 18L4.21708 16ZM2.63817 15.7494C2.43461 15.6736 2.29793 15.5954 2.21595 15.5334C2.13066 15.4688 2.13739 15.4473 2.15751 15.4935L0.32373 16.2918C0.623103 16.9795 1.31227 17.3899 1.94057 17.6238L2.63817 15.7494ZM2.15751 15.4935C2.16891 15.5197 2.18076 15.5598 2.18316 15.61C2.18557 15.6605 2.17768 15.7057 2.16605 15.7405C2.14398 15.8066 2.1216 15.801 2.1889 15.7445L0.902852 14.2128C0.637202 14.4359 0.394411 14.7316 0.269054 15.1069C0.137509 15.5008 0.159404 15.9143 0.32373 16.2918L2.15751 15.4935ZM2.1889 15.7445C2.18394 15.7487 2.2064 15.7296 2.27292 15.6993C2.33628 15.6704 2.42158 15.6396 2.52687 15.6116C2.73997 15.5549 2.99088 15.5214 3.22844 15.5214V13.5214C2.8199 13.5214 2.396 13.5768 2.01258 13.6788C1.64887 13.7756 1.22957 13.9385 0.902852 14.2128L2.1889 15.7445ZM2.22845 14.5217L2.22845 14.5374L4.22845 14.5368L4.22844 14.5211L2.22845 14.5217ZM3.04587 13.5539C2.39821 13.6742 1.74756 13.9091 1.27759 14.3037L2.56364 15.8354C2.66636 15.7492 2.9401 15.6078 3.41103 15.5203L3.04587 13.5539ZM1.27759 14.3037C1.03524 14.5072 0.807875 14.7818 0.689747 15.1355C0.56543 15.5078 0.586356 15.8991 0.741194 16.2548L2.57497 15.4565C2.59111 15.4936 2.60558 15.5447 2.60851 15.6059C2.61145 15.6674 2.60199 15.7235 2.58674 15.7691C2.55744 15.8568 2.51964 15.8724 2.56364 15.8354L1.27759 14.3037ZM0.741194 16.2548C0.916441 16.6573 1.24114 16.9125 1.47668 17.0632C1.73171 17.2265 2.01997 17.3535 2.28733 17.453L2.98492 15.5786C2.78568 15.5045 2.64321 15.4353 2.55502 15.3789C2.51259 15.3517 2.49912 15.3378 2.50262 15.3413C2.50571 15.3444 2.54218 15.3812 2.57497 15.4565L0.741194 16.2548ZM2.40879 17.4897C2.90659 17.6059 3.49259 17.7303 4.21496 17.731L4.21708 15.731C3.72987 15.7305 3.32433 15.6496 2.86346 15.542L2.40879 17.4897ZM4.21496 17.731C4.93447 17.7318 5.53756 17.6176 6.10976 17.4464L5.53641 15.5304C5.11464 15.6566 4.70714 15.7315 4.21708 15.731L4.21496 17.731ZM6.16896 17.4267C6.42096 17.3338 6.70427 17.2174 6.95537 17.0645C7.19505 16.9186 7.51896 16.6722 7.69907 16.2685L5.87259 15.4536C5.90486 15.3813 5.94204 15.3422 5.95226 15.3322C5.9614 15.3233 5.95398 15.3326 5.91532 15.3562C5.832 15.4069 5.69362 15.4703 5.47721 15.5501L6.16896 17.4267ZM7.69907 16.2685C7.85661 15.9154 7.88239 15.5244 7.76136 15.1501C7.64628 14.7942 7.42036 14.5174 7.17876 14.3122L5.8842 15.8367C5.92645 15.8726 5.88739 15.8552 5.85837 15.7655C5.84332 15.7189 5.83449 15.6624 5.83806 15.6011C5.84161 15.5401 5.85651 15.4897 5.87259 15.4536L7.69907 16.2685ZM7.17876 14.3122C6.71071 13.9148 6.06063 13.6781 5.41414 13.5565L5.04426 15.522C5.51418 15.6104 5.78457 15.7521 5.8842 15.8367L7.17876 14.3122Z" fill="#C42121" mask="url(#path-3-inside-1_2135_1041)"/>
<path d="M4.60289 6.15342L4.55678 6.13102C4.50576 6.11821 4.45852 6.10776 4.41509 6.09967C4.37526 6.09594 4.33961 6.09059 4.30812 6.08362L4.25921 6.0911L4.1192 6.04182L4.06375 6.05471L3.89872 6.01514L3.80856 6.01272C3.80059 6.01198 3.79244 6.01322 3.7841 6.01646L3.75965 6.02019L3.5121 5.96085L3.46916 5.96888C3.46157 5.96415 3.45 5.95905 3.43444 5.95357C3.42287 5.94847 3.4093 5.94318 3.39374 5.93771L3.3747 5.94798C3.36711 5.94325 3.34738 5.93939 3.31552 5.93641L3.30302 5.94126L3.19549 5.93119C3.13575 5.92559 3.11502 5.8895 3.13331 5.82292L3.15254 5.74638C3.15913 5.71887 3.16317 5.69715 3.16467 5.68122C3.16653 5.66131 3.16802 5.64538 3.16914 5.63343C3.17387 5.62584 3.18277 5.61663 3.19584 5.6058C3.20928 5.59099 3.23087 5.57493 3.26061 5.55763L3.26173 5.54569L3.20311 5.52814L3.19938 5.50369C3.20199 5.47581 3.212 5.45465 3.22943 5.44021C3.25631 5.41059 3.27286 5.38402 3.27908 5.3605C3.25954 5.35465 3.24709 5.33741 3.24174 5.30879L3.22997 5.2414C3.22997 5.2414 3.23899 5.18801 3.25703 5.08122L3.29717 5.10306C3.30152 5.09945 3.30463 5.08769 3.3065 5.06778L3.30986 5.03193C3.29903 5.01887 3.29019 5.00599 3.28335 4.99329L3.27849 4.98079C3.27924 4.97282 3.28471 4.95726 3.29492 4.93411C3.30512 4.91097 3.31022 4.89939 3.31022 4.89939C3.31171 4.88346 3.30505 4.86878 3.29024 4.85534C3.29173 4.83941 3.29758 4.81987 3.30779 4.79672C3.30779 4.79672 3.30436 4.79037 3.29752 4.77768C3.29864 4.76573 3.30119 4.75994 3.30517 4.76031C3.30305 4.74003 3.3071 4.71831 3.3173 4.69516C3.33111 4.67637 3.33802 4.66697 3.33802 4.66697L3.33167 4.60611C3.32955 4.58583 3.32687 4.57151 3.32364 4.56318C3.32077 4.55086 3.31953 4.5427 3.3199 4.53872C3.32065 4.53076 3.32973 4.51956 3.34715 4.50512C3.36458 4.49068 3.37366 4.47948 3.37441 4.47151C3.37441 4.47151 3.37154 4.45919 3.36582 4.43455C3.35499 4.42148 3.34976 4.41296 3.35013 4.40898L3.38952 4.31022C3.37035 4.30039 3.36861 4.27612 3.38428 4.23741L3.40892 4.16741C3.4068 4.14712 3.40431 4.13082 3.40145 4.1185C3.40257 4.10655 3.4035 4.09659 3.40425 4.08863L3.42403 4.00611L3.45782 3.96709C3.45458 3.95875 3.4501 3.94226 3.44437 3.91762L3.4593 3.8226C3.44959 3.79759 3.44492 3.78309 3.4453 3.77911L3.5026 3.68203C3.5026 3.68203 3.5008 3.67985 3.49719 3.67549C3.49756 3.67151 3.49613 3.66535 3.49289 3.65701C3.49401 3.64506 3.49532 3.63113 3.49681 3.6152C3.50266 3.59566 3.50888 3.57213 3.51547 3.54463L3.51024 3.47182C3.51385 3.47618 3.52063 3.44668 3.53058 3.38333L3.52199 3.34637C3.51875 3.33803 3.51533 3.33169 3.51172 3.32733C3.51209 3.32335 3.51247 3.31937 3.51284 3.31538C3.51757 3.30779 3.5223 3.3002 3.52703 3.29261C3.53176 3.28502 3.53468 3.27525 3.5358 3.2633L3.56509 3.07923L3.62499 2.63287C3.64938 2.58694 3.6625 2.55402 3.66437 2.53411L3.66119 2.50368C3.66194 2.49572 3.66051 2.48956 3.6569 2.4852C3.65329 2.48085 3.65167 2.47668 3.65204 2.47269L3.65278 2.40045C3.65353 2.39248 3.66355 2.37133 3.68284 2.33697C3.69839 2.34245 3.71594 2.34811 3.73548 2.35396C3.75539 2.35582 3.77493 2.36167 3.7941 2.3715C3.80493 2.38457 3.82173 2.3982 3.84451 2.41238C3.84849 2.41275 3.8572 2.40554 3.87064 2.39072C3.88371 2.3799 3.89422 2.37486 3.90219 2.3756L3.93579 2.40285C3.9582 2.42102 3.99292 2.43633 4.03997 2.44877C4.04942 2.43359 4.05851 2.42238 4.06722 2.41517L4.11557 2.41367C4.13187 2.41118 4.146 2.41049 4.15794 2.41161L4.18016 2.43177C4.18738 2.44048 4.19914 2.44359 4.21545 2.4411L4.2763 2.43475C4.29261 2.43226 4.30474 2.43139 4.31271 2.43214C4.32067 2.43288 4.32664 2.43344 4.33063 2.43381L4.43536 2.47376C4.4437 2.47052 4.45185 2.46927 4.45981 2.47002C4.47213 2.46716 4.48645 2.46448 4.50275 2.46199L4.55539 2.47897C4.55788 2.49528 4.56909 2.50436 4.589 2.50623C4.59298 2.5066 4.6035 2.50156 4.62055 2.4911C4.63797 2.47667 4.6483 2.47362 4.65154 2.48195C4.65154 2.48195 4.66311 2.48706 4.68626 2.49726C4.69497 2.49004 4.70549 2.485 4.71781 2.48214L4.75851 2.498C4.7661 2.50273 4.7717 2.50727 4.77531 2.51163C4.7829 2.51636 4.78869 2.51891 4.79267 2.51928L4.8231 2.5161C4.82235 2.52407 4.82864 2.54274 4.84196 2.57211C4.85104 2.56091 4.85253 2.54498 4.84643 2.52432L4.8959 2.51087C4.9035 2.5156 4.91488 2.52269 4.93007 2.53215C4.94525 2.54161 4.96243 2.55125 4.98159 2.56108C4.98085 2.56905 4.98589 2.57956 4.99672 2.59263L5.01464 2.59431L5.0544 2.55585C5.06274 2.55261 5.07288 2.55156 5.08483 2.55268C5.10076 2.55417 5.11688 2.55367 5.13318 2.55118L5.17444 2.56107L5.14122 2.78696C5.11982 2.80102 5.10818 2.81801 5.10632 2.83792L5.10781 2.88627L5.06901 3.1719C5.06639 3.19978 5.04318 3.21166 4.99938 3.20756C4.98855 3.19449 4.97735 3.18541 4.96577 3.18031C4.95021 3.17483 4.9285 3.17079 4.90062 3.16818C4.87311 3.16158 4.84125 3.1586 4.80504 3.15922C4.79707 3.15848 4.78712 3.15754 4.77517 3.15643C4.76359 3.15132 4.74804 3.14585 4.7285 3.14L4.67529 3.12899L4.57859 3.13198L4.4776 3.1165C4.46963 3.11575 4.46185 3.11301 4.45426 3.10829L4.43092 3.10007C4.39944 3.09311 4.37374 3.08869 4.35382 3.08682C4.33789 3.08533 4.32794 3.0844 4.32395 3.08403C4.30914 3.07059 4.29377 3.06312 4.27784 3.06163C4.26988 3.06088 4.25519 3.06754 4.23379 3.08161C4.21238 3.09567 4.1977 3.10233 4.18973 3.10158C4.18861 3.11353 4.18587 3.12131 4.18152 3.12492L4.18469 3.15535C4.18793 3.16369 4.18899 3.17383 4.18787 3.18578C4.18712 3.19374 4.188 3.20588 4.19049 3.22218C4.14917 3.23438 4.12186 3.29008 4.10855 3.38927L4.13188 3.39748L4.1737 3.4014C4.17731 3.40575 4.17837 3.41589 4.17687 3.43182C4.17538 3.44775 4.16592 3.46294 4.1485 3.47738C4.12672 3.49542 4.11584 3.50445 4.11584 3.50445C4.12841 3.54178 4.13482 3.58055 4.13507 3.62075C4.13433 3.62871 4.12468 3.64589 4.10614 3.67228C4.0876 3.69866 4.07739 3.72181 4.07553 3.74172L4.06526 3.72268L4.04622 3.73295L4.04454 3.75087C4.05176 3.75958 4.06732 3.76506 4.09121 3.7673C4.09047 3.77526 4.08953 3.78522 4.08841 3.79717C4.09165 3.8055 4.0947 3.81583 4.09756 3.82816C4.11449 3.86188 4.13092 3.87949 4.14685 3.88098L4.19035 3.86698C4.19396 3.87133 4.20118 3.88004 4.212 3.89311C4.22719 3.90257 4.23677 3.90748 4.24075 3.90786C4.23715 3.9035 4.25419 3.89305 4.2919 3.87649C4.32737 3.88383 4.35345 3.88427 4.37012 3.87779C4.39539 3.90828 4.414 3.92409 4.42594 3.92521L4.44984 3.92744L4.49334 3.91344C4.49732 3.91381 4.50348 3.91238 4.51182 3.90914C4.52015 3.90591 4.52849 3.90267 4.53683 3.89944L4.57379 3.89085C4.58574 3.89196 4.59893 3.90124 4.61337 3.91866C4.63142 3.94044 4.64243 3.95151 4.64642 3.95188C4.65911 3.94504 4.67759 3.94074 4.70186 3.939C4.70186 3.939 4.70149 3.94298 4.70074 3.95095C4.70435 3.9553 4.7056 3.96345 4.70448 3.9754C4.70298 3.99133 4.69875 4.01504 4.69179 4.04653C4.68918 4.07441 4.68383 4.11006 4.67574 4.1535L4.66155 4.17627C4.66442 4.1886 4.6638 4.21666 4.65969 4.26047C4.65496 4.26806 4.64968 4.28163 4.64383 4.30117C4.63798 4.32071 4.63468 4.33446 4.63394 4.34242L4.63282 4.35437C4.63207 4.36234 4.63419 4.38262 4.63917 4.41523L4.63693 4.43912C4.63432 4.467 4.62412 4.49015 4.60632 4.50857C4.56276 4.54467 4.537 4.56234 4.52904 4.56159L4.47695 4.53864C4.46899 4.53789 4.45884 4.53895 4.44652 4.54181L4.41012 4.54443C4.4029 4.53572 4.39351 4.52881 4.38193 4.52371C4.37471 4.515 4.36332 4.5079 4.34777 4.50243C4.33943 4.50567 4.3291 4.50872 4.31678 4.51158C4.30881 4.51083 4.29668 4.51171 4.28038 4.5142L4.21634 4.49012C4.17764 4.47444 4.15231 4.46604 4.14036 4.46492L4.0795 4.47127C4.07154 4.47053 4.06289 4.45566 4.05355 4.42666C4.06985 4.42417 4.08074 4.41515 4.08622 4.39959L4.09219 4.40015C4.10016 4.40089 4.11211 4.40201 4.12804 4.40351C4.14397 4.405 4.15971 4.40848 4.17527 4.41396L4.18348 4.39062L4.1846 4.37867C4.18572 4.36672 4.17906 4.35204 4.16462 4.33462C4.16064 4.33424 4.15267 4.3335 4.14072 4.33238C4.13313 4.32765 4.12156 4.32255 4.106 4.31707C4.09729 4.32429 4.09181 4.33985 4.08958 4.36374C4.078 4.35864 4.06512 4.36748 4.05094 4.39026C4.04372 4.38154 4.02922 4.38621 4.00744 4.40426L4.00352 4.44608C3.99481 4.4533 3.98554 4.46649 3.97571 4.48566C3.94671 4.49499 3.93128 4.50962 3.92942 4.52953C3.92942 4.52953 3.93303 4.53389 3.94024 4.5426C3.94385 4.54695 3.94529 4.55311 3.94454 4.56108L3.9423 4.58497C3.94118 4.59692 3.94006 4.60887 3.93894 4.62082C3.93782 4.63276 3.93434 4.64851 3.92849 4.66805L3.94418 4.69362C3.93397 4.71677 3.89944 4.76375 3.84058 4.83457L3.83946 4.84652C3.83797 4.86245 3.84263 4.87695 3.85346 4.89002C3.86367 4.86687 3.888 4.84303 3.92645 4.81851C3.94051 4.83992 3.94661 4.86058 3.94475 4.88049C3.94438 4.88447 3.91824 4.90613 3.86635 4.94546L3.88633 4.98952L3.91078 4.98578C3.92671 4.98727 3.93356 4.99997 3.93132 5.02386C3.92261 5.03108 3.91116 5.04608 3.89697 5.06885C3.88752 5.08404 3.88204 5.0996 3.88055 5.11553L3.89679 5.13513C3.89642 5.13911 3.88205 5.16388 3.85367 5.20943L3.86712 5.2589C3.86525 5.27881 3.85019 5.28945 3.82194 5.29082C3.82555 5.29518 3.83532 5.2981 3.85125 5.2996L3.85555 5.31808C3.84248 5.32891 3.8334 5.34011 3.82829 5.35168C3.83402 5.37632 3.84665 5.39157 3.86619 5.39742C3.88611 5.39928 3.90185 5.40277 3.91343 5.40787C3.94566 5.40687 3.97771 5.40786 4.00957 5.41085C4.04143 5.41383 4.07528 5.417 4.11112 5.42036C4.11361 5.43666 4.12282 5.44556 4.13875 5.44705C4.14672 5.4478 4.16632 5.43156 4.19755 5.39833C4.22145 5.40056 4.23533 5.42396 4.23919 5.46851L4.25711 5.47019C4.25823 5.45825 4.26115 5.44848 4.26588 5.44088C4.29488 5.43155 4.33707 5.43148 4.39245 5.44069L4.46134 5.47727C4.46097 5.48125 4.47671 5.48474 4.50857 5.48772C4.5245 5.48922 4.53427 5.49214 4.53788 5.49649L4.61722 5.48585C4.62917 5.48697 4.6395 5.48392 4.64821 5.4767C4.65256 5.47309 4.66669 5.4724 4.69059 5.47464C4.7217 5.48559 4.73539 5.51098 4.73166 5.5508C4.73017 5.56674 4.72028 5.60799 4.70199 5.67458C4.70199 5.67458 4.69763 5.67819 4.68892 5.68541C4.68419 5.693 4.68145 5.70078 4.68071 5.70874L4.66672 5.85809C4.66672 5.85809 4.6544 5.86095 4.62976 5.86668C4.65241 5.92504 4.66206 5.97215 4.6587 6.00799C4.65684 6.02791 4.64302 6.0467 4.61726 6.06437L4.62791 6.14371C4.61123 6.15019 4.60289 6.15342 4.60289 6.15342ZM4.94502 2.82281L4.951 2.82337C4.97489 2.82561 4.99611 2.81354 5.01465 2.78715C5.0042 2.7701 4.99499 2.7612 4.98702 2.76046L4.91142 2.79556C4.92187 2.81261 4.93308 2.82169 4.94502 2.82281ZM4.82574 2.93819C4.82612 2.93421 4.82089 2.92568 4.81006 2.91262C4.81006 2.91262 4.8057 2.91623 4.79699 2.92345L4.82574 2.93819ZM3.89196 2.93509L3.92799 2.87217L3.89924 2.85743L3.87702 2.83727C3.85163 2.85096 3.83763 2.87174 3.83502 2.89962C3.85743 2.91779 3.87641 2.92961 3.89196 2.93509ZM3.70009 3.37511C3.70083 3.36714 3.69959 3.35899 3.69635 3.35065C3.6971 3.34269 3.69585 3.33454 3.69262 3.3262L3.6508 3.32228L3.64259 3.34562L3.6648 3.36578L3.70009 3.37511ZM3.43876 3.78452C3.43951 3.77655 3.44169 3.77475 3.4453 3.77911L3.43876 3.78452ZM3.74904 3.94616C3.77194 3.91617 3.77019 3.8919 3.74381 3.87336C3.73945 3.87697 3.73236 3.88836 3.72253 3.90752C3.72141 3.91947 3.73025 3.93235 3.74904 3.94616ZM3.59951 3.99845L3.61388 3.9094L3.59764 3.8898L3.55582 3.88588L3.54817 3.90324C3.54817 3.90324 3.55302 3.91575 3.56273 3.94076C3.57032 3.94549 3.5692 3.95744 3.55937 3.97661C3.57132 3.97773 3.5847 3.98501 3.59951 3.99845ZM3.66262 4.16104C3.66337 4.15307 3.6643 4.14312 3.66542 4.13117C3.66654 4.11922 3.66965 4.10746 3.67475 4.09589C3.67077 4.09551 3.66224 4.10074 3.64918 4.11157C3.64806 4.12352 3.65254 4.14001 3.66262 4.16104ZM4.3806 4.21625L4.38658 4.2168C4.39454 4.21755 4.41483 4.21543 4.44743 4.21045L4.42036 4.17779C4.41352 4.16509 4.3992 4.16777 4.37743 4.18582C4.37593 4.20175 4.37699 4.21189 4.3806 4.21625ZM3.7435 4.77727C3.74785 4.77366 3.74462 4.76532 3.73379 4.75225C3.72582 4.75151 3.71966 4.75294 3.71531 4.75655L3.7435 4.77727ZM3.70767 4.96675C3.71564 4.9675 3.73194 4.96501 3.75658 4.95928L3.74314 4.90981C3.72683 4.9123 3.71812 4.91952 3.717 4.93147L3.70767 4.96675ZM3.45696 5.06982C3.45771 5.06186 3.45864 5.0519 3.45976 5.03995C3.46088 5.028 3.46381 5.01823 3.46853 5.01064C3.46493 5.00629 3.45659 5.00952 3.44352 5.02035L3.45696 5.06982ZM3.45063 5.2018C3.45536 5.19421 3.45411 5.18606 3.44689 5.17735C3.43967 5.16864 3.42972 5.16771 3.41702 5.17455C3.42026 5.18289 3.43146 5.19197 3.45063 5.2018ZM3.36011 5.52477C3.37355 5.50996 3.37703 5.49422 3.37056 5.47754L3.34667 5.4753L3.33136 5.51002C3.33858 5.51874 3.34816 5.52365 3.36011 5.52477ZM4.22671 5.85905C4.22746 5.85109 4.22422 5.84275 4.217 5.83404C4.21339 5.82968 4.20524 5.83093 4.19255 5.83777C4.19143 5.84972 4.20281 5.85681 4.22671 5.85905ZM4.23232 5.99216L4.34153 5.98431L4.32752 5.94081C4.32142 5.92015 4.30643 5.9087 4.28253 5.90647L4.22709 5.91935C4.22597 5.9313 4.22485 5.94325 4.22373 5.95519C4.22659 5.96751 4.22946 5.97984 4.23232 5.99216Z" fill="#C42121"/>
</svg>
