<svg width="23" height="25" viewBox="0 0 23 25" fill="none" xmlns="http://www.w3.org/2000/svg">
<g clip-path="url(#clip0_904_903)">
<path d="M10.5 25C11.9438 25 13.125 23.8462 13.125 22.4359H7.875C7.875 23.8462 9.05625 25 10.5 25ZM18.375 17.3077V10.8974C18.375 6.96154 16.2356 3.66667 12.4688 2.79487V1.92308C12.4688 0.858974 11.5894 0 10.5 0C9.41063 0 8.53125 0.858974 8.53125 1.92308V2.79487C4.7775 3.66667 2.625 6.94872 2.625 10.8974V17.3077L0 19.8718V21.1538H21V19.8718L18.375 17.3077Z" fill="#9B9B9B"/>
</g>
<path d="M18 0C15.235 0 13 2.235 13 5C13 7.765 15.235 10 18 10C20.765 10 23 7.765 23 5C23 2.235 20.765 0 18 0Z" fill="white"/>
<path d="M18 1C15.788 1 14 2.788 14 5C14 7.212 15.788 9 18 9C20.212 9 22 7.212 22 5C22 2.788 20.212 1 18 1Z" fill="#E31E1E"/>
<defs>
<clipPath id="clip0_904_903">
<rect width="21" height="25" fill="white"/>
</clipPath>
</defs>
</svg>
