<svg width="20" height="24" viewBox="0 0 20 24" fill="none" xmlns="http://www.w3.org/2000/svg">
<path d="M8.5 22C6.96667 22 5.66667 21.4667 4.6 20.4C3.53333 19.3333 3 18.0333 3 16.5V6C3 4.9 3.39167 3.95833 4.175 3.175C4.95833 2.39167 5.9 2 7 2C8.1 2 9.04167 2.39167 9.825 3.175C10.6083 3.95833 11 4.9 11 6V14H9.5V6C9.5 5.3 9.25833 4.70833 8.775 4.225C8.29167 3.74167 7.7 3.5 7 3.5C6.3 3.5 5.70833 3.74167 5.225 4.225C4.74167 4.70833 4.5 5.3 4.5 6V16.5C4.5 17.6 4.89167 18.5417 5.675 19.325C6.45833 20.1083 7.4 20.5 8.5 20.5C8.98333 20.5 9.43767 20.4207 9.863 20.262C10.2877 20.104 10.6667 19.8833 11 19.6V21.4C10.6167 21.5833 10.2167 21.729 9.8 21.837C9.38333 21.9457 8.95 22 8.5 22ZM13 18H11C10.7167 18 10.4793 17.904 10.288 17.712C10.096 17.5207 10 17.2833 10 17C10 16.7167 10.096 16.4793 10.288 16.288C10.4793 16.096 10.7167 16 11 16H13V14C13 13.7167 13.096 13.479 13.288 13.287C13.4793 13.0957 13.7167 13 14 13C14.2833 13 14.5207 13.0957 14.712 13.287C14.904 13.479 15 13.7167 15 14V16H17C17.2833 16 17.5207 16.096 17.712 16.288C17.904 16.4793 18 16.7167 18 17C18 17.2833 17.904 17.5207 17.712 17.712C17.5207 17.904 17.2833 18 17 18H15V20C15 20.2833 14.904 20.5207 14.712 20.712C14.5207 20.904 14.2833 21 14 21C13.7167 21 13.4793 20.904 13.288 20.712C13.096 20.5207 13 20.2833 13 20V18ZM8.5 16.5V18C7.8 18 7.20833 17.7583 6.725 17.275C6.24167 16.7917 6 16.2 6 15.5V6.75C6 6.53333 6.071 6.35433 6.213 6.213C6.35433 6.071 6.53333 6 6.75 6C6.96667 6 7.146 6.071 7.288 6.213C7.42933 6.35433 7.5 6.53333 7.5 6.75V15.5C7.5 15.7833 7.596 16.0207 7.788 16.212C7.97933 16.404 8.21667 16.5 8.5 16.5ZM12.5 11V6.75C12.5 6.53333 12.571 6.35433 12.713 6.213C12.8543 6.071 13.0333 6 13.25 6C13.4667 6 13.646 6.071 13.788 6.213C13.9293 6.35433 14 6.53333 14 6.75V11H12.5Z" fill="#2B2F40"/>
</svg>
