<svg width="24" height="24" viewBox="0 0 24 24" fill="none" xmlns="http://www.w3.org/2000/svg">
<path d="M16.4 15.3C15.4833 15.3 14.7042 14.9792 14.0625 14.3375C13.4208 13.6958 13.1 12.9167 13.1 12C13.1 11.0833 13.4208 10.3042 14.0625 9.6625C14.7042 9.02083 15.4833 8.7 16.4 8.7C17.3167 8.7 18.0958 9.02083 18.7375 9.6625C19.3792 10.3042 19.7 11.0833 19.7 12C19.7 12.9167 19.3792 13.6958 18.7375 14.3375C18.0958 14.9792 17.3167 15.3 16.4 15.3ZM7.6 19.81V20.8H3.2C2.595 20.8 2.0769 20.5848 1.6457 20.1543C1.21523 19.7231 1 19.205 1 18.6V3.2C1 2.595 1.21523 2.0769 1.6457 1.6457C2.0769 1.21523 2.595 1 3.2 1H18.6C19.205 1 19.7231 1.21523 20.1543 1.6457C20.5848 2.0769 20.8 2.595 20.8 3.2V8.7C20.2317 7.985 19.59 7.4394 18.875 7.0632C18.16 6.68773 17.335 6.5 16.4 6.5C16.4 6.18833 16.2944 5.9269 16.0832 5.7157C15.8727 5.50523 15.6117 5.4 15.3 5.4H6.5C6.18833 5.4 5.9269 5.50523 5.7157 5.7157C5.50523 5.9269 5.4 6.18833 5.4 6.5C5.4 6.81167 5.50523 7.07273 5.7157 7.2832C5.9269 7.4944 6.18833 7.6 6.5 7.6H13.1C12.7333 7.89333 12.4033 8.22333 12.11 8.59C11.8167 8.95667 11.5692 9.36 11.3675 9.8H6.5C6.18833 9.8 5.9269 9.90523 5.7157 10.1157C5.50523 10.3269 5.4 10.5883 5.4 10.9C5.4 11.2117 5.50523 11.4727 5.7157 11.6832C5.9269 11.8944 6.18833 12 6.5 12H10.9C10.9 12.385 10.9414 12.7608 11.0243 13.1275C11.1064 13.4942 11.2208 13.8517 11.3675 14.2H6.5C6.18833 14.2 5.9269 14.3052 5.7157 14.5157C5.50523 14.7269 5.4 14.9883 5.4 15.3C5.4 15.6117 5.50523 15.8727 5.7157 16.0832C5.9269 16.2944 6.18833 16.4 6.5 16.4H9.195C8.7 16.8217 8.31023 17.3302 8.0257 17.9257C7.7419 18.5219 7.6 19.15 7.6 19.81ZM10.9 23C10.5883 23 10.3273 22.8944 10.1168 22.6832C9.9056 22.4727 9.8 22.2117 9.8 21.9V19.81C9.8 19.425 9.89167 19.0627 10.075 18.7232C10.2583 18.3844 10.515 18.1142 10.845 17.9125C11.4317 17.5642 11.9267 17.3211 12.33 17.1832C12.7333 17.0461 13.2742 16.9225 13.9525 16.8125C14.1725 16.7758 14.3925 16.7802 14.6125 16.8257C14.8325 16.8719 15.0158 16.9775 15.1625 17.1425L16.4 18.6L17.61 17.1425C17.7567 16.9592 17.94 16.8492 18.16 16.8125C18.38 16.7758 18.6 16.7758 18.82 16.8125C19.4983 16.9225 20.0392 17.0461 20.4425 17.1832C20.8458 17.3211 21.3408 17.5642 21.9275 17.9125C22.2575 18.1142 22.5189 18.3844 22.7118 18.7232C22.9039 19.0627 23 19.425 23 19.81V21.9C23 22.2117 22.8944 22.4727 22.6832 22.6832C22.4727 22.8944 22.2117 23 21.9 23H10.9Z" fill="#2B2F40"/>
</svg>
