<svg width="24" height="24" viewBox="0 0 24 24" xmlns="http://www.w3.org/2000/svg">
<path d="M16.424 22.5646L6.32949 12.8127C6.20968 12.6966 6.12501 12.5708 6.07548 12.4354C6.02516 12.2999 6 12.1548 6 12C6 11.8452 6.02516 11.7001 6.07548 11.5646C6.12501 11.4292 6.20968 11.3034 6.32949 11.1873L16.424 1.40633C16.7035 1.13544 17.053 1 17.4724 1C17.8917 1 18.2512 1.14512 18.5507 1.43536C18.8502 1.72559 19 2.0642 19 2.45119C19 2.83817 18.8502 3.17678 18.5507 3.46702L9.74424 12L18.5507 20.533C18.8303 20.8039 18.97 21.1374 18.97 21.5337C18.97 21.9308 18.8203 22.2744 18.5207 22.5646C18.2212 22.8549 17.8717 23 17.4724 23C17.073 23 16.7235 22.8549 16.424 22.5646Z"/>
</svg>
