<svg width="24" height="24" viewBox="0 0 18 21" fill="none" xmlns="http://www.w3.org/2000/svg">
<path d="M10.2999 2.66895L10.4621 3.47059H11.28H16.8C16.852 3.47059 16.8763 3.47913 16.8853 3.48286C16.8937 3.48632 16.9105 3.49448 16.9371 3.52191C16.9748 3.56072 17 3.59926 17 3.70588V13.5882C17 13.6948 16.9749 13.7322 16.9383 13.7697L16.9359 13.7722C16.9091 13.7999 16.8923 13.8081 16.8842 13.8114C16.8755 13.815 16.8516 13.8235 16.8 13.8235H10.59C10.5527 13.8235 10.5293 13.8187 10.4842 13.7807C10.4402 13.7437 10.415 13.7068 10.3994 13.6335L10.1001 12.1546L9.93789 11.3529H9.12H2.4H1.4V12.3529V19.7647C1.4 19.8724 1.37454 19.9102 1.33832 19.9474C1.31094 19.9756 1.29356 19.9841 1.28496 19.9877C1.27577 19.9915 1.25155 20 1.2 20C1.14845 20 1.12423 19.9915 1.11504 19.9877C1.10644 19.9841 1.08906 19.9756 1.06168 19.9474C1.02546 19.9102 1 19.8724 1 19.7647V1.23529C1 1.12873 1.02499 1.08948 1.06173 1.05127C1.09696 1.01535 1.12147 1 1.2 1H9.81C9.84734 1 9.87074 1.00485 9.9158 1.0428C9.95981 1.07987 9.98501 1.11678 10.0006 1.19007L10.2999 2.66895Z" fill="#2B2F40" stroke="#2B2F40" stroke-width="2"/>
</svg>
