<?xml version="1.0" standalone="no"?>
<!DOCTYPE svg PUBLIC "-//W3C//DTD SVG 20010904//EN"
 "http://www.w3.org/TR/2001/REC-SVG-20010904/DTD/svg10.dtd">
<svg version="1.0" xmlns="http://www.w3.org/2000/svg"
 width="120" height="100%" viewBox="0 0 522.000000 101.000000"
 preserveAspectRatio="xMidYMid meet">
<g transform="translate(0.000000,101.000000) scale(0.100000,-0.100000)">
<path d="M511 919 c-53 -16 -110 -59 -136 -103 -23 -40 -187 -509 -200 -572
-4 -20 0 -46 9 -68 26 -62 55 -68 300 -64 183 3 216 5 246 22 46 24 88 64 107
100 13 25 63 162 63 173 0 2 -48 2 -107 1 l-106 -3 -16 -46 c-27 -78 -29 -79
-152 -79 -59 0 -110 3 -112 8 -6 9 139 440 154 458 16 19 227 20 235 1 2 -7
-2 -32 -11 -56 -8 -24 -15 -47 -15 -52 0 -5 47 -9 105 -9 l104 0 26 81 c14 44
25 95 25 113 0 44 -32 83 -78 96 -46 12 -395 12 -441 -1z"/>
<path d="M1023 538 c-72 -211 -134 -393 -137 -406 l-8 -23 108 3 107 3 47 140
47 140 65 3 66 3 5 -33 c4 -18 9 -86 13 -150 l7 -118 114 0 c104 0 114 2 109
18 -3 9 -8 79 -12 154 l-7 137 34 14 c73 30 105 80 163 248 39 116 44 155 21
198 -23 46 -55 51 -345 51 l-268 0 -129 -382z m516 213 c11 -7 9 -23 -14 -90
-21 -65 -32 -84 -52 -92 -29 -11 -223 -12 -223 -2 0 5 14 50 31 100 l31 93
106 0 c59 0 113 -4 121 -9z"/>
<path d="M1770 523 c-74 -218 -136 -400 -138 -405 -2 -4 135 -8 305 -8 l308 0
28 78 c15 43 27 83 27 90 0 9 -49 12 -196 12 -183 0 -196 1 -189 18 3 9 16 45
28 79 l22 63 194 2 194 3 24 69 c12 39 23 76 23 83 0 10 -40 13 -189 13 l-189
0 21 65 21 65 200 2 200 3 27 75 c15 41 28 78 28 83 1 4 -137 7 -307 7 l-307
0 -135 -397z"/>
<path d="M2486 527 c-38 -215 -71 -398 -74 -404 -3 -10 24 -13 116 -13 l119 0
104 179 c57 99 105 178 107 177 1 -2 -5 -67 -13 -145 -8 -79 -15 -158 -15
-177 l0 -34 115 0 115 0 200 400 c110 220 200 402 200 405 0 3 -46 5 -103 5
l-102 0 -105 -211 c-58 -115 -106 -204 -108 -196 -2 8 9 98 23 202 14 103 25
191 25 196 0 5 -37 9 -82 9 l-83 0 -114 -210 c-63 -115 -116 -208 -118 -206
-2 2 12 93 32 202 19 109 35 202 35 206 0 4 -46 8 -102 8 l-103 0 -69 -393z"/>
<path d="M4076 848 c-46 -129 -246 -723 -246 -730 0 -5 48 -8 108 -8 l107 0
137 405 137 405 -108 0 -109 0 -26 -72z"/>
<path d="M4260 524 c-74 -218 -136 -401 -138 -405 -2 -5 45 -9 105 -9 l108 0
80 237 79 238 22 -150 c11 -82 27 -189 34 -237 l12 -88 117 0 116 0 135 397
c74 218 137 400 138 405 2 4 -45 8 -105 8 l-108 0 -74 -222 c-40 -123 -76
-226 -80 -230 -4 -4 -19 83 -35 195 -15 111 -30 214 -33 230 l-5 27 -117 0
-116 0 -135 -396z"/>
<path d="M3405 608 c-18 -49 -55 -163 -55 -170 0 -4 114 -8 254 -8 l254 0 28
83 c15 45 29 88 32 95 3 9 -51 12 -252 12 -196 0 -258 -3 -261 -12z"/>
</g>
</svg>
