<svg width="24" height="24" viewBox="0 0 24 24" fill="none" xmlns="http://www.w3.org/2000/svg">
<path d="M17.4545 15.2727V6.54545H8.72727V4.36364H17.4545C18.0545 4.36364 18.5684 4.57745 18.996 5.00509C19.4229 5.432 19.6364 5.94545 19.6364 6.54545V15.2727H17.4545ZM18.5455 24C18.2364 24 17.9775 23.8953 17.7687 23.6858C17.5593 23.4771 17.4545 23.2182 17.4545 22.9091V19.6364H6.54545C5.94545 19.6364 5.432 19.4229 5.00509 18.996C4.57745 18.5684 4.36364 18.0545 4.36364 17.4545V6.54545H1.09091C0.781818 6.54545 0.522909 6.44109 0.314182 6.23236C0.104727 6.02291 0 5.76364 0 5.45455C0 5.14545 0.104727 4.88618 0.314182 4.67673C0.522909 4.468 0.781818 4.36364 1.09091 4.36364H4.36364V1.09091C4.36364 0.781818 4.468 0.522545 4.67673 0.313091C4.88618 0.104364 5.14545 0 5.45455 0C5.76364 0 6.02291 0.104364 6.23236 0.313091C6.44109 0.522545 6.54545 0.781818 6.54545 1.09091V17.4545H22.9091C23.2182 17.4545 23.4771 17.5593 23.6858 17.7687C23.8953 17.9775 24 18.2364 24 18.5455C24 18.8545 23.8953 19.1135 23.6858 19.3222C23.4771 19.5316 23.2182 19.6364 22.9091 19.6364H19.6364V22.9091C19.6364 23.2182 19.5316 23.4771 19.3222 23.6858C19.1135 23.8953 18.8545 24 18.5455 24Z" fill="#2B2F40"/>
</svg>
