<svg width="7" height="12" viewBox="0 0 7 12" fill="none" xmlns="http://www.w3.org/2000/svg">
<path d="M5.10544 11.0288L4.97479 10.9653C4.83021 10.929 4.69639 10.8994 4.57332 10.8765C4.46048 10.8659 4.35946 10.8508 4.27024 10.831L4.13166 10.8522L3.73496 10.7126L3.57787 10.7491L3.11028 10.637L2.85481 10.6301C2.83224 10.628 2.80915 10.6315 2.78552 10.6407L2.71623 10.6513L2.01486 10.4831L1.8932 10.5059C1.87169 10.4925 1.8389 10.478 1.79482 10.4625C1.76203 10.4481 1.72359 10.4331 1.67951 10.4176L1.62556 10.4467C1.60405 10.4333 1.54816 10.4224 1.45789 10.4139L1.42245 10.4277L1.11778 10.3991C0.948525 10.3833 0.889806 10.281 0.941628 10.0923L0.996092 9.87548C1.01477 9.79755 1.02623 9.73602 1.03046 9.69088C1.03574 9.63446 1.03997 9.58933 1.04314 9.55547C1.05654 9.53396 1.08175 9.50787 1.11877 9.47719C1.15685 9.43522 1.21803 9.38973 1.3023 9.34071L1.30547 9.30686L1.13939 9.25715L1.1288 9.18786C1.1362 9.10887 1.16458 9.04893 1.21395 9.00802C1.29011 8.92409 1.337 8.8488 1.35463 8.78216C1.29926 8.76559 1.264 8.71675 1.24883 8.63565L1.21549 8.44471C1.21549 8.44471 1.24105 8.29343 1.29215 7.99088L1.40588 8.05276C1.41822 8.04253 1.42703 8.00921 1.43232 7.95279L1.44183 7.85123C1.41115 7.81421 1.38611 7.77771 1.36672 7.74175L1.35296 7.70631C1.35507 7.68374 1.37059 7.63966 1.3995 7.57407C1.42841 7.50848 1.44286 7.47569 1.44286 7.47569C1.44709 7.43055 1.42822 7.38895 1.38626 7.35087C1.39049 7.30573 1.40705 7.25037 1.43596 7.18478C1.43596 7.18478 1.42627 7.1668 1.40687 7.13083C1.41004 7.09698 1.41727 7.08058 1.42855 7.08164C1.42255 7.02416 1.43401 6.96263 1.46292 6.89704C1.50206 6.84379 1.52162 6.81717 1.52162 6.81717L1.50363 6.64474C1.49763 6.58726 1.49004 6.54671 1.48088 6.52308C1.47276 6.48817 1.46923 6.46508 1.47029 6.45379C1.47241 6.43123 1.49814 6.39949 1.54751 6.35858C1.59687 6.31767 1.62261 6.28594 1.62473 6.26337C1.62473 6.26337 1.61661 6.22846 1.60039 6.15864C1.56971 6.12162 1.55489 6.09746 1.55595 6.08618L1.66754 5.80637C1.61323 5.77852 1.60829 5.70975 1.65271 5.60009L1.72251 5.40173C1.71652 5.34426 1.70946 5.29806 1.70135 5.26315C1.70452 5.2293 1.70716 5.20109 1.70927 5.17852L1.76532 4.94473L1.86105 4.83418C1.85188 4.81055 1.83918 4.76383 1.82296 4.69402L1.86525 4.42479C1.83774 4.35391 1.82452 4.31283 1.82557 4.30155L1.98794 4.02649C1.98794 4.02649 1.98282 4.02032 1.9726 4.00798C1.97365 3.9967 1.9696 3.97924 1.96043 3.95562C1.9636 3.92177 1.9673 3.88227 1.97153 3.83714C1.98809 3.78177 2.00572 3.71513 2.0244 3.6372L2.00958 3.43092C2.01981 3.44326 2.03902 3.35968 2.06721 3.1802L2.04288 3.07547C2.03371 3.05185 2.02401 3.03386 2.01378 3.02152C2.01484 3.01024 2.01589 2.99895 2.01695 2.98767C2.03035 2.96616 2.04375 2.94465 2.05715 2.92314C2.07054 2.90163 2.07883 2.87395 2.082 2.84009L2.165 2.31856L2.3347 1.05388C2.4038 0.923755 2.441 0.830484 2.44628 0.774064L2.43728 0.687849C2.4394 0.665282 2.43534 0.647827 2.42511 0.635486C2.41489 0.623145 2.4103 0.611333 2.41136 0.600049L2.41346 0.395352C2.41557 0.372785 2.44395 0.312837 2.4986 0.21551C2.54268 0.231022 2.5924 0.247062 2.64777 0.263631C2.70419 0.268916 2.75955 0.285486 2.81385 0.313339C2.84453 0.350362 2.89214 0.38897 2.95667 0.429164C2.96796 0.430221 2.99264 0.409767 3.03072 0.367802C3.06774 0.337122 3.09754 0.322839 3.12011 0.324953L3.21532 0.40217C3.27879 0.453648 3.37718 0.497013 3.51047 0.532265C3.53727 0.489243 3.56301 0.457506 3.58769 0.437052L3.72468 0.43281C3.77087 0.425754 3.8109 0.423812 3.84475 0.426983L3.90769 0.484103C3.92815 0.508785 3.96147 0.517598 4.00766 0.510542L4.18009 0.492547C4.22629 0.48549 4.26067 0.483019 4.28324 0.485133C4.3058 0.487247 4.32273 0.488833 4.33401 0.48989L4.63075 0.603059C4.65438 0.593889 4.67747 0.590362 4.70004 0.592476C4.73495 0.584363 4.7755 0.576779 4.82169 0.569723L4.97086 0.617844C4.97791 0.664037 5.00965 0.689776 5.06607 0.695061C5.07735 0.696119 5.10715 0.681835 5.15545 0.652211C5.20482 0.611304 5.23409 0.602663 5.24326 0.626288C5.24326 0.626288 5.27605 0.640742 5.34164 0.669652C5.36632 0.649199 5.39612 0.634916 5.43103 0.626803L5.54634 0.671753C5.56785 0.685151 5.58372 0.698021 5.59394 0.710362C5.61545 0.72376 5.63185 0.730987 5.64313 0.732044L5.72935 0.723047C5.72724 0.745614 5.74505 0.798506 5.78278 0.881722C5.80852 0.849984 5.81275 0.804848 5.79547 0.746314L5.93563 0.708221C5.95714 0.721619 5.98941 0.741716 6.03243 0.768512C6.07545 0.795308 6.12412 0.822632 6.17842 0.850486C6.17631 0.873053 6.19059 0.902849 6.22127 0.939872L6.27205 0.944628L6.3847 0.83566C6.40833 0.82649 6.43707 0.823491 6.47092 0.826662C6.51605 0.83089 6.56172 0.829476 6.60791 0.822421L6.72481 0.850445L6.6307 1.49046C6.57006 1.53031 6.53709 1.57844 6.5318 1.63486L6.53605 1.77186L6.42609 2.58113C6.41869 2.66012 6.35293 2.6938 6.2288 2.68217C6.19812 2.64515 6.16639 2.61941 6.13359 2.60495C6.08951 2.58944 6.02798 2.57798 5.94899 2.57059C5.87106 2.5519 5.78079 2.54345 5.67818 2.54522C5.65561 2.5431 5.6274 2.54046 5.59355 2.53729C5.56075 2.52283 5.51667 2.50732 5.46131 2.49075L5.31056 2.45956L5.03658 2.46804L4.75042 2.42416C4.72786 2.42205 4.70582 2.41429 4.68431 2.40089L4.61819 2.37762C4.52897 2.35788 4.45616 2.34537 4.39974 2.34009C4.3546 2.33586 4.32639 2.33321 4.31511 2.33216C4.27314 2.29408 4.22959 2.27292 4.18446 2.26869C4.16189 2.26658 4.12028 2.28545 4.05963 2.3253C3.99899 2.36515 3.95738 2.38402 3.93481 2.3819C3.93164 2.41576 3.92388 2.4378 3.91154 2.44802L3.92054 2.53424C3.92971 2.55786 3.93271 2.5866 3.92954 2.62045C3.92742 2.64302 3.92989 2.6774 3.93695 2.72359C3.81988 2.75816 3.74249 2.91596 3.70478 3.197L3.7709 3.22027L3.88938 3.23137C3.89961 3.24371 3.90261 3.27245 3.89838 3.31759C3.89415 3.36272 3.86736 3.40574 3.81799 3.44665C3.75629 3.49779 3.72544 3.52335 3.72544 3.52335C3.76106 3.62914 3.77923 3.73898 3.77994 3.85287C3.77783 3.87544 3.7505 3.9241 3.69797 3.99886C3.64543 4.07362 3.61652 4.13921 3.61124 4.19563L3.58214 4.14168L3.52819 4.17078L3.52344 4.22156C3.54389 4.24624 3.58797 4.26175 3.65567 4.26809C3.65356 4.29066 3.65092 4.31887 3.64774 4.35272C3.65691 4.37635 3.66556 4.40561 3.67367 4.44052C3.72163 4.53608 3.76818 4.58597 3.81332 4.5902L3.93656 4.55052C3.94678 4.56286 3.96724 4.58754 3.99792 4.62457C4.04094 4.65136 4.06809 4.66529 4.07938 4.66635C4.06915 4.654 4.11746 4.62438 4.2243 4.57747C4.32479 4.59827 4.39867 4.5995 4.44592 4.58116C4.51751 4.66755 4.57023 4.71233 4.60408 4.7155L4.67178 4.72184L4.79502 4.68216C4.8063 4.68322 4.82376 4.67916 4.84738 4.66999C4.87101 4.66082 4.89463 4.65165 4.91826 4.64248L5.02298 4.61814C5.05684 4.62131 5.09422 4.64758 5.13512 4.69695C5.18626 4.75865 5.21747 4.79003 5.22875 4.79109C5.26472 4.77169 5.31708 4.75952 5.38584 4.75458C5.38584 4.75458 5.38478 4.76587 5.38267 4.78843C5.3929 4.80077 5.39642 4.82387 5.39325 4.85772C5.38903 4.90286 5.37704 4.97003 5.3573 5.05925C5.3499 5.13823 5.33475 5.23926 5.31183 5.36233L5.27164 5.42686C5.27975 5.46177 5.278 5.54129 5.26637 5.66541C5.25297 5.68692 5.23799 5.72536 5.22142 5.78072C5.20485 5.83608 5.19551 5.87505 5.19339 5.89761L5.19022 5.93147C5.18811 5.95403 5.19411 6.01151 5.20822 6.1039L5.20188 6.1716C5.19448 6.25059 5.16557 6.31618 5.11515 6.36837C4.99174 6.47064 4.91875 6.52072 4.89618 6.5186L4.7486 6.45355C4.72604 6.45144 4.6973 6.45444 4.66239 6.46255L4.55925 6.46996C4.53879 6.44528 4.51217 6.42571 4.47937 6.41126C4.45892 6.38658 4.42665 6.36648 4.38258 6.35097C4.35895 6.36014 4.32968 6.36878 4.29478 6.37689C4.27221 6.37478 4.23783 6.37725 4.19163 6.3843L4.01021 6.31609C3.90054 6.27166 3.82878 6.24787 3.79493 6.2447L3.6225 6.26269C3.59993 6.26058 3.57542 6.21844 3.54897 6.13628C3.59516 6.12923 3.62601 6.10366 3.64152 6.05958L3.65845 6.06117C3.68102 6.06328 3.71487 6.06645 3.76 6.07068C3.80514 6.07491 3.84975 6.08478 3.89383 6.10029L3.91709 6.03417L3.92027 6.00032C3.92344 5.96647 3.90457 5.92486 3.86366 5.8755C3.85238 5.87444 3.82981 5.87233 3.79596 5.86916C3.77445 5.85576 3.74165 5.8413 3.69757 5.82579C3.67289 5.84624 3.65738 5.89032 3.65104 5.95803C3.61824 5.94357 3.58175 5.96861 3.54155 6.03314C3.5211 6.00846 3.48002 6.02169 3.41832 6.07282L3.40722 6.1913C3.38253 6.21176 3.35627 6.24914 3.32841 6.30344C3.24626 6.32989 3.20253 6.37133 3.19725 6.42775C3.19725 6.42775 3.20748 6.44009 3.22793 6.46477C3.23816 6.47711 3.24221 6.49457 3.2401 6.51714L3.23376 6.58484C3.23058 6.61869 3.22741 6.65254 3.22424 6.68639C3.22107 6.72025 3.2112 6.76485 3.19463 6.82022L3.23907 6.89268C3.21016 6.95827 3.11232 7.09139 2.94554 7.29204L2.94237 7.32589C2.93814 7.37103 2.95137 7.41211 2.98205 7.44913C3.01096 7.38354 3.07989 7.31601 3.18885 7.24653C3.2287 7.30718 3.24598 7.36572 3.24069 7.42214C3.23964 7.43342 3.16559 7.49478 3.01856 7.60622L3.07516 7.73104L3.14445 7.72046C3.18959 7.72469 3.20898 7.76065 3.20264 7.82836C3.17796 7.84881 3.14552 7.8913 3.10533 7.95584C3.07853 7.99886 3.06302 8.04294 3.05879 8.08807L3.10481 8.14361C3.10375 8.15489 3.06303 8.22507 2.98264 8.35413L3.02074 8.49429C3.01545 8.55071 2.97279 8.58087 2.89274 8.58475C2.90297 8.59709 2.93065 8.60538 2.97579 8.60961L2.98796 8.66197C2.95093 8.69265 2.92519 8.72439 2.91074 8.75718C2.92696 8.827 2.96276 8.87019 3.01812 8.88676C3.07454 8.89205 3.11915 8.90192 3.15194 8.91637C3.24327 8.91354 3.33407 8.91636 3.42434 8.92481C3.51461 8.93327 3.61053 8.94226 3.71208 8.95177C3.71914 8.99796 3.74523 9.02317 3.79037 9.0274C3.81294 9.02951 3.86847 8.98349 3.95697 8.88934C4.02468 8.89568 4.064 8.96197 4.07494 9.08821L4.12572 9.09296C4.12889 9.05911 4.13717 9.03143 4.15057 9.00992C4.23273 8.98347 4.35227 8.98328 4.50919 9.00936L4.70437 9.11302C4.70331 9.1243 4.74792 9.13417 4.83819 9.14263C4.88333 9.14686 4.91101 9.15514 4.92123 9.16748L5.14603 9.13732C5.17988 9.14049 5.20915 9.13185 5.23383 9.11139C5.24617 9.10117 5.28619 9.09923 5.3539 9.10557C5.44205 9.13659 5.48085 9.20852 5.47028 9.32136C5.46605 9.3665 5.43802 9.48339 5.3862 9.67205C5.3862 9.67205 5.37386 9.68228 5.34918 9.70273C5.33578 9.72424 5.32802 9.74628 5.32591 9.76885L5.28627 10.192C5.28627 10.192 5.25136 10.2001 5.18155 10.2163C5.24573 10.3817 5.27307 10.5152 5.26356 10.6167C5.25827 10.6731 5.21914 10.7264 5.14615 10.7765L5.17631 11.0013C5.12906 11.0196 5.10544 11.0288 5.10544 11.0288ZM6.07481 1.59205L6.09173 1.59364C6.15943 1.59998 6.21955 1.56577 6.27209 1.49101C6.24247 1.44271 6.21637 1.4175 6.1938 1.41538L5.97959 1.51484C6.00922 1.56314 6.04095 1.58888 6.07481 1.59205ZM5.73684 1.91896C5.7379 1.90767 5.72309 1.88352 5.69241 1.8465C5.69241 1.8465 5.68007 1.85672 5.65538 1.87718L5.73684 1.91896ZM3.09113 1.91016L3.1932 1.7319L3.11174 1.69012L3.0488 1.633C2.97686 1.6718 2.9372 1.73069 2.9298 1.80968C2.99327 1.86115 3.04705 1.89465 3.09113 1.91016ZM2.54748 3.15689C2.5496 3.13432 2.54607 3.11123 2.5369 3.0876C2.53901 3.06503 2.53548 3.04194 2.52631 3.01831L2.40783 3.00721L2.38456 3.07333L2.44751 3.13045L2.54748 3.15689ZM1.80706 4.31689C1.80918 4.29432 1.81535 4.28921 1.82557 4.30155L1.80706 4.31689ZM2.68618 4.77488C2.75106 4.68989 2.74611 4.62113 2.67135 4.5686C2.65901 4.57882 2.63892 4.61109 2.61106 4.6654C2.60789 4.69925 2.63293 4.73574 2.68618 4.77488ZM2.26252 4.92301L2.30323 4.67071L2.25721 4.61517L2.13872 4.60407L2.11704 4.65327C2.11704 4.65327 2.1308 4.6887 2.15831 4.75958C2.17982 4.77298 2.17665 4.80683 2.14879 4.86113C2.18264 4.86431 2.22055 4.88493 2.26252 4.92301ZM2.44133 5.3837C2.44344 5.36113 2.44609 5.33292 2.44926 5.29907C2.45243 5.26521 2.46124 5.23189 2.4757 5.1991C2.46441 5.19804 2.44026 5.21285 2.40324 5.24353C2.40007 5.27738 2.41276 5.3241 2.44133 5.3837ZM4.47561 5.54011L4.49253 5.5417C4.5151 5.54381 4.57258 5.53781 4.66496 5.5237L4.58826 5.43114C4.56887 5.39518 4.52832 5.40276 4.46661 5.45389C4.46238 5.49903 4.46538 5.52777 4.47561 5.54011ZM2.67048 7.12968C2.68283 7.11945 2.67366 7.09583 2.64298 7.0588C2.62041 7.05669 2.60295 7.06075 2.59061 7.07097L2.67048 7.12968ZM2.56897 7.66655C2.59154 7.66867 2.63773 7.66161 2.70755 7.64538L2.66945 7.50522C2.62326 7.51228 2.59858 7.53273 2.59541 7.56658L2.56897 7.66655ZM1.85864 7.95857C1.86075 7.93601 1.86339 7.9078 1.86656 7.87394C1.86974 7.84009 1.87802 7.81241 1.89142 7.7909C1.88119 7.77856 1.85757 7.78773 1.82054 7.81841L1.85864 7.95857ZM1.84068 8.33253C1.85408 8.31102 1.85055 8.28792 1.8301 8.26324C1.80964 8.23856 1.78143 8.23591 1.74547 8.25531C1.75464 8.27894 1.78638 8.30468 1.84068 8.33253ZM1.58422 9.2476C1.6223 9.20563 1.63217 9.16103 1.61383 9.11378L1.54612 9.10743L1.50276 9.20582C1.52321 9.2305 1.55036 9.24443 1.58422 9.2476ZM4.03958 10.1947C4.0417 10.1722 4.03253 10.1485 4.01207 10.1239C4.00185 10.1115 3.97875 10.115 3.94278 10.1344C3.93961 10.1683 3.97188 10.1884 4.03958 10.1947ZM4.05548 10.5719L4.3649 10.5496L4.32522 10.4264C4.30794 10.3678 4.26545 10.3354 4.19774 10.3291L4.04065 10.3656C4.03748 10.3994 4.03431 10.4333 4.03114 10.4671C4.03925 10.502 4.04737 10.5369 4.05548 10.5719Z" fill="#C42121"/>
</svg>
