<svg width="8" height="12" viewBox="0 0 8 12" fill="none" xmlns="http://www.w3.org/2000/svg">
<path d="M3.78813 11.7385C3.69786 11.73 3.6261 11.7062 3.57285 11.6671C3.53089 11.629 3.47041 11.6062 3.39142 11.5988L3.37291 11.6142C3.37291 11.6142 3.36163 11.6131 3.33906 11.611C3.32672 11.6212 3.28828 11.6063 3.22375 11.5661L3.0931 11.5026L3.07459 11.5179C3.07353 11.5292 3.06736 11.5343 3.05607 11.5333C3.07864 11.5354 3.03615 11.503 2.9286 11.436C2.87218 11.4307 2.80659 11.4018 2.73183 11.3492L2.51389 11.1239C2.49238 11.1105 2.45959 11.0961 2.41551 11.0806C2.38271 11.0661 2.34427 11.0511 2.3002 11.0356C2.24695 10.9965 2.17836 10.9388 2.09443 10.8627C2.02178 10.7876 1.94561 10.6894 1.86591 10.5681L1.86008 10.448L1.78655 10.3216L1.7749 10.0815C1.76784 10.0353 1.75003 9.98238 1.72146 9.92278C1.70524 9.85297 1.68954 9.77751 1.67437 9.69641C1.64158 9.68195 1.60067 9.63259 1.55165 9.54831C1.49874 9.384 1.47493 9.27363 1.48022 9.21721C1.48128 9.20592 1.49415 9.19006 1.51883 9.1696C1.54457 9.13786 1.56308 9.12252 1.57436 9.12358C1.55497 9.08762 1.50277 9.03719 1.41779 8.97232L1.4183 8.78455C1.50258 8.73553 1.556 8.71207 1.57856 8.71419L1.69705 8.72529C1.73195 8.71717 1.77251 8.70959 1.8187 8.70253C1.86489 8.69548 1.91673 8.68895 1.9742 8.68295C2.03274 8.66567 2.07629 8.68682 2.10485 8.74641C2.11191 8.79261 2.14365 8.81835 2.20007 8.82363C2.21135 8.82469 2.24326 8.78784 2.29579 8.71308L2.46715 8.52424C2.63113 8.59651 2.73057 8.62859 2.76548 8.62048L3.05373 8.45966L3.22299 8.47552L3.20555 8.6617L3.35154 8.74368L3.29391 8.9944C3.29179 9.01696 3.30608 9.04676 3.33676 9.08378C3.36744 9.1208 3.38225 9.14496 3.38119 9.15624C3.39142 9.16858 3.38313 9.19626 3.35634 9.23929L3.29763 9.31916C3.31174 9.41154 3.35512 9.49529 3.42777 9.57039C3.45034 9.57251 3.49442 9.58802 3.56 9.61693C3.55578 9.66206 3.569 9.70314 3.59968 9.74017C3.64165 9.77825 3.68626 9.78812 3.73351 9.76978C3.73351 9.76978 3.74003 9.82161 3.75309 9.92528C3.77037 9.98381 3.7903 10.0141 3.81286 10.0163C3.81286 10.0163 3.83649 10.0071 3.88374 9.98874C3.90842 9.96829 3.93204 9.95912 3.95461 9.96123L4.03766 9.98609C4.06022 9.9882 4.07662 9.99543 4.08685 10.0078C4.09708 10.0201 4.10783 10.0268 4.11911 10.0279C4.1304 10.0289 4.15455 10.0141 4.19157 9.98343C4.23882 9.96509 4.26809 9.95645 4.27938 9.95751C4.29172 9.94728 4.33068 9.95662 4.39627 9.98553L4.49466 10.0289C4.49466 10.0289 4.51828 10.0197 4.56553 10.0014L4.61789 9.98922C4.61789 9.98922 4.65069 10.0037 4.71628 10.0326C4.74096 10.0121 4.75436 9.99062 4.75647 9.96805C4.76493 9.87778 4.79295 9.76088 4.84055 9.61736L4.99446 9.61471C5.05088 9.61999 5.08685 9.60059 5.10236 9.55652C5.09214 9.54418 5.0768 9.52566 5.05634 9.50098C5.03589 9.4763 5.01543 9.45162 4.99498 9.42694C4.98792 9.38074 4.98087 9.33455 4.97381 9.28836C4.96781 9.23088 4.96182 9.1734 4.95582 9.11593C4.95899 9.08208 4.97908 9.04981 5.01611 9.01913C5.05102 9.01102 5.08081 8.99673 5.10549 8.97628C5.10549 8.97628 5.0824 8.97981 5.0362 8.98686C4.97978 8.98158 4.93993 8.92093 4.91665 8.80492L4.86798 8.59547C4.83624 8.56973 4.81067 8.53887 4.79127 8.50291C4.75037 8.45355 4.73203 8.4063 4.73625 8.36116C4.73837 8.33859 4.7456 8.32219 4.75794 8.31197C4.74877 8.28834 4.71492 8.28517 4.65638 8.30245L4.59395 8.05756C4.58267 8.05651 4.5765 8.06162 4.57544 8.0729C4.55076 8.09336 4.53277 8.10306 4.52149 8.102C4.51126 8.08966 4.48922 8.0819 4.45537 8.07873L4.43579 7.92323L4.32207 7.86135L4.1364 7.65614C4.12723 7.63251 4.10624 7.61347 4.07345 7.59902C4.05194 7.58562 4.01967 7.56552 3.97665 7.53873L3.97241 7.40174C3.96324 7.37811 3.9479 7.3596 3.92639 7.3462C3.90593 7.32152 3.88548 7.29684 3.86503 7.27216L3.7804 7.26423C3.76806 7.27445 3.73932 7.27745 3.69418 7.27323C3.68184 7.28345 3.65627 7.2526 3.61748 7.18067C3.59914 7.13342 3.57974 7.09745 3.55929 7.07277C3.53989 7.03681 3.51944 7.01212 3.49793 6.99872L3.24297 6.8041L3.11232 6.74063L3.10966 6.58672L2.83619 6.40743L2.77959 6.28261C2.7623 6.22407 2.71981 6.19163 2.65211 6.18529L2.63518 6.18371C2.6045 6.14668 2.59075 6.11125 2.59392 6.07739C2.46025 5.80307 2.38778 5.66537 2.3765 5.66432C2.3765 5.66432 2.34159 5.67243 2.27177 5.68865L2.25484 5.68707C2.19842 5.68178 2.16827 5.63912 2.16439 5.55907L2.13264 5.35121C2.0198 5.34064 1.95861 5.204 1.94907 4.9413L1.80308 4.85932C1.79919 4.77928 1.79319 4.7218 1.78508 4.68689C1.78825 4.65304 1.78931 4.64176 1.78825 4.65304C1.80905 4.55254 1.82403 4.51411 1.8332 4.53773C1.8272 4.48026 1.79705 4.43759 1.74275 4.40974C1.70889 4.40657 1.68227 4.387 1.66287 4.35103C1.66322 4.22585 1.67432 4.10737 1.69617 3.99559C1.71908 3.87252 1.74199 3.74946 1.7649 3.62639C1.76807 3.59254 1.76155 3.5407 1.74532 3.47089L1.70564 3.34765L1.76276 3.2847L1.7691 3.217C1.77967 3.10416 1.81387 2.98215 1.87169 2.85097C1.88297 2.85203 1.90554 2.85414 1.93939 2.85731C1.9743 2.8492 2.00463 2.82927 2.03037 2.79754L1.94942 2.56799L2.2091 2.16545C2.31417 2.01593 2.39491 1.94382 2.45133 1.9491L2.5513 1.97554C2.56259 1.9766 2.5744 1.97201 2.58674 1.96178C2.5878 1.9505 2.58074 1.90431 2.56557 1.82321L2.63328 1.82955C2.65584 1.83166 2.66713 1.83272 2.66713 1.83272L2.78137 1.70683C2.80605 1.68637 2.87022 1.66962 2.97389 1.65656L3.05904 1.47672L3.12674 1.48306C3.13697 1.4954 3.1472 1.50775 3.15742 1.52009C3.16765 1.53243 3.17735 1.55041 3.18652 1.57404C3.26868 1.54758 3.34378 1.47494 3.41183 1.3561L3.57526 1.25189C3.57526 1.25189 3.5809 1.25242 3.59218 1.25347C3.61475 1.25559 3.64349 1.25259 3.6784 1.24447L3.76144 1.26933C3.79424 1.28378 3.82192 1.29207 3.84449 1.29418C3.87834 1.29735 3.93846 1.26314 4.02485 1.19156C4.12146 1.13231 4.17541 1.10321 4.18669 1.10427L4.3311 1.20317C4.32793 1.23702 4.33093 1.26576 4.3401 1.28939L4.62359 1.17935C4.65745 1.18252 4.73732 1.24122 4.86321 1.35546C4.88261 1.39143 4.87521 1.47042 4.84101 1.59243L4.89338 1.58026L4.91665 1.51414C4.94027 1.50497 4.96442 1.49016 4.98911 1.4697C5.01379 1.44925 5.04411 1.42932 5.08008 1.40993C5.08219 1.38736 5.10229 1.35509 5.14037 1.31313C5.1506 1.32547 5.16082 1.33781 5.17105 1.35015C5.19256 1.36355 5.21354 1.38259 5.234 1.40727C5.2749 1.45664 5.30664 1.48237 5.32921 1.48449C5.35389 1.46403 5.38933 1.45028 5.43552 1.44322L5.46937 1.44639C5.57093 1.45591 5.68007 1.50597 5.79679 1.59659L6.00097 1.78646L6.00997 1.87267C5.9874 1.87056 5.95761 1.88484 5.92059 1.91552C5.94915 1.97511 5.99729 2.00808 6.06499 2.01442L6.05865 2.08213C6.08016 2.09552 6.12018 2.09358 6.17872 2.0763C6.19494 2.14612 6.24819 2.18525 6.33846 2.19371C6.36103 2.19582 6.3866 2.22668 6.41516 2.28627C6.40071 2.31906 6.39701 2.35856 6.40406 2.40475C6.50705 2.64205 6.5596 2.74942 6.56171 2.72686L6.56012 2.74378C6.55695 2.77763 6.52857 2.83758 6.47498 2.92362C6.40588 3.05375 6.3708 3.12445 6.36974 3.13573C6.36551 3.18087 6.43004 3.22106 6.56334 3.25632C6.68534 3.29051 6.73965 3.31836 6.72625 3.33987L6.79978 3.46628C6.78744 3.47651 6.77969 3.49855 6.77651 3.5324C6.77334 3.56625 6.77987 3.61809 6.7961 3.68791C6.83172 3.79369 6.84742 3.86915 6.84319 3.91428C6.81851 3.93474 6.78765 3.96031 6.75063 3.99099C6.71466 4.01038 6.67253 4.03489 6.62422 4.06452C6.6006 4.07369 6.56005 4.08127 6.50257 4.08727C6.45638 4.09433 6.38762 4.09927 6.29629 4.1021L5.91916 4.11799C5.89554 4.12716 5.86627 4.1358 5.83136 4.14391C5.79645 4.15203 5.76154 4.16014 5.72663 4.16825L5.52987 4.08152C5.46005 4.09775 5.40346 4.15505 5.36009 4.25344C5.30439 4.36205 5.25396 4.41424 5.20883 4.41001C5.19754 4.40896 5.18326 4.37916 5.16598 4.32063C5.13741 4.26104 5.11749 4.23071 5.1062 4.22965C5.09492 4.2286 5.07077 4.24341 5.03374 4.27409L4.9306 4.2815L4.90785 4.15985C4.91208 4.11471 4.9327 4.07681 4.96973 4.04613C4.99652 4.0031 5.01045 3.97595 5.0115 3.96467L4.93639 3.85518C4.9847 3.82556 5.03053 3.76156 5.0739 3.66317C5.00619 3.65683 4.92315 3.63198 4.82476 3.58861C4.82688 3.56604 4.82388 3.53731 4.81577 3.5024C4.80871 3.4562 4.79601 3.40948 4.77767 3.36223L4.72741 3.16971C4.67839 3.08543 4.57136 3.0128 4.40633 2.95181L4.25242 2.95447C4.22985 2.95235 4.20111 2.95535 4.1662 2.96346C4.14363 2.96135 4.10925 2.96382 4.06306 2.97088C4.02921 2.96771 3.98883 2.9127 3.94192 2.80586C3.91935 2.80374 3.90596 2.82526 3.90173 2.87039L3.9705 3.04758C3.83687 3.13751 3.73108 3.17313 3.65315 3.15445L3.62937 3.40833C3.60469 3.42879 3.58565 3.44977 3.57225 3.47128C3.57013 3.49385 3.56749 3.52206 3.56432 3.55591C3.57243 3.59082 3.58002 3.63137 3.58707 3.67756C3.60013 3.78123 3.59943 3.84946 3.58497 3.88226C3.58392 3.89354 3.57722 3.9043 3.56488 3.91453C3.54019 3.93498 3.52627 3.96213 3.5231 3.99598C3.52098 4.01855 3.53527 4.04835 3.56595 4.08537C3.58429 4.13262 3.59346 4.15624 3.59346 4.15624C3.5924 4.16753 3.54868 4.20896 3.46229 4.28055C3.3759 4.35214 3.33218 4.39358 3.33112 4.40486C3.32232 4.62031 3.39691 4.73544 3.55489 4.75024L3.60566 4.75499C3.63952 4.75816 3.67337 4.76134 3.70722 4.76451C3.74213 4.75639 3.77651 4.75392 3.81036 4.75709C3.8555 4.76132 3.9001 4.77119 3.94418 4.7867C3.98932 4.79093 4.03393 4.8008 4.078 4.81631L4.06215 4.98557C4.05581 5.05328 4.12017 5.15606 4.25523 5.29393C4.2778 5.29604 4.30548 5.30432 4.33828 5.31878C4.38341 5.32301 4.42802 5.33288 4.4721 5.34839L4.51336 5.4547C4.53487 5.4681 4.57119 5.50565 4.62233 5.56736L4.67735 5.70911C4.69675 5.74507 4.71773 5.76411 4.7403 5.76623C4.83162 5.7634 4.8891 5.7574 4.91273 5.74823C4.92401 5.74929 4.92401 5.74929 4.91273 5.74823C4.91909 6.04478 4.92792 6.19359 4.9392 6.19464L5.146 5.99205L5.19678 5.99681L5.24704 6.18933C5.25727 6.20167 5.26238 6.20784 5.26238 6.20784C5.27367 6.2089 5.27931 6.20943 5.27931 6.20943L5.38403 6.18509C5.42811 6.2006 5.43975 6.25861 5.41896 6.35911L5.58029 6.45959C5.59157 6.46065 5.62684 6.50948 5.68609 6.6061C5.78764 6.61561 5.85729 6.66198 5.89502 6.74519C5.90419 6.76882 5.91283 6.79808 5.92095 6.83299C5.93012 6.85662 5.94387 6.89205 5.96221 6.9393L6.09128 7.01969C6.08916 7.04226 6.08652 7.07047 6.08335 7.10432C6.08018 7.13817 6.08159 7.18384 6.08759 7.24131C6.08231 7.29773 6.08989 7.33828 6.11034 7.36297C6.12163 7.36402 6.16482 7.32823 6.23992 7.25558C6.29529 7.27215 6.32949 7.33227 6.34255 7.43594C6.35666 7.52833 6.38628 7.57663 6.43142 7.58086C6.45399 7.58298 6.47144 7.57892 6.48378 7.56869C6.4919 7.6036 6.49384 7.64362 6.48961 7.68876C6.48644 7.72261 6.48274 7.76211 6.47851 7.80724C6.47534 7.84109 6.49474 7.87706 6.5367 7.91514C6.57972 7.94193 6.61869 7.95128 6.6536 7.94316L6.70069 8.16954C6.71797 8.22808 6.69735 8.26598 6.63881 8.28327C6.65927 8.30795 6.68131 8.31571 6.70493 8.30654L6.68008 8.38958L6.75202 8.53291L6.75626 8.66991C6.78694 8.70693 6.80687 8.73725 6.81604 8.76088C6.85589 8.82153 6.86666 9.01035 6.84835 9.32736C6.83389 9.36016 6.82191 9.42733 6.81239 9.52889L6.73518 9.6241C6.75352 9.67135 6.76251 9.75756 6.76217 9.88274L6.68813 9.94411C6.68178 10.0118 6.60228 10.1922 6.44962 10.4852L6.38667 10.4281C6.35176 10.4362 6.33166 10.4685 6.32638 10.5249C6.31264 10.6716 6.2996 10.75 6.28726 10.7603L6.10848 10.846C6.11237 10.926 6.10708 10.9824 6.09263 11.0152L5.8012 11.2099L5.72398 11.3051C5.63971 11.3541 5.55544 11.4032 5.47117 11.4522C5.39923 11.491 5.32272 11.518 5.24162 11.5331C5.23033 11.5321 5.20724 11.5356 5.17233 11.5437C5.14976 11.5416 5.11538 11.5441 5.06919 11.5511C5.01877 11.6033 4.93344 11.6636 4.8132 11.732L4.64869 11.6654L4.54238 11.7067C4.5177 11.7271 4.44894 11.7321 4.3361 11.7215L4.06529 11.6961C4.01909 11.7032 3.9729 11.7102 3.92671 11.7173C3.8918 11.7254 3.84561 11.7325 3.78813 11.7385ZM2.93009 3.03549C2.94244 3.02526 2.98351 3.01204 3.05333 2.99581L3.18715 3.02542L3.31939 3.07196C3.41178 3.05785 3.46167 3.0113 3.46907 2.93231L3.45848 2.86302L3.21835 2.87467C3.16193 2.86939 3.1034 2.88667 3.04275 2.92652C2.96905 2.8627 2.91527 2.82921 2.88142 2.82604C2.89059 2.84966 2.89923 2.87893 2.90734 2.91384C2.91545 2.94875 2.92304 2.9893 2.93009 3.03549ZM2.61167 2.97151C2.64341 2.99725 2.67373 2.97733 2.70264 2.91174C2.68219 2.88705 2.65962 2.88494 2.63494 2.90539C2.61026 2.92585 2.6025 2.94789 2.61167 2.97151ZM6.04287 3.34416L6.11692 3.28279C6.11798 3.27151 6.09541 3.2694 6.04922 3.27645L6.04287 3.34416ZM6.25498 3.4494C6.28778 3.46385 6.32322 3.4501 6.36129 3.40813C6.35107 3.39579 6.33467 3.38856 6.3121 3.38645C6.27825 3.38328 6.25921 3.40426 6.25498 3.4494ZM3.36014 3.36604C3.36437 3.3209 3.3552 3.29728 3.33263 3.29516C3.32346 3.27154 3.30036 3.27507 3.26334 3.30575C3.26017 3.3396 3.29244 3.3597 3.36014 3.36604ZM2.11242 3.74432C2.12265 3.75666 2.12723 3.76847 2.12617 3.77975C2.1364 3.79209 2.14663 3.80444 2.15685 3.81678C2.15791 3.80549 2.1595 3.78857 2.16161 3.766L2.1632 3.74907L2.11242 3.74432ZM4.27854 5.77419C4.30111 5.77631 4.32473 5.76714 4.34941 5.74668C4.3741 5.72623 4.36493 5.7026 4.3219 5.67581C4.29722 5.69626 4.28277 5.72906 4.27854 5.77419ZM2.95832 5.65052C2.96043 5.62795 2.95126 5.60433 2.93081 5.57965C2.91036 5.55496 2.88673 5.56413 2.85994 5.60716C2.85676 5.64101 2.88956 5.65546 2.95832 5.65052ZM5.16043 8.02526C5.183 8.02737 5.20663 8.0182 5.23131 7.99775C5.23448 7.9639 5.22584 7.93463 5.20538 7.90995C5.16942 7.92934 5.15443 7.96778 5.16043 8.02526ZM5.84912 8.32881C5.85124 8.30625 5.84207 8.28262 5.82161 8.25794C5.78988 8.2322 5.76061 8.24084 5.73381 8.28386C5.75321 8.31983 5.79165 8.33481 5.84912 8.32881ZM6.07661 8.99895C6.07978 8.9651 6.06497 8.94095 6.03218 8.92649C6.00961 8.92438 5.98598 8.93355 5.9613 8.954C5.9807 8.98997 6.01914 9.00495 6.07661 8.99895ZM5.10708 8.95935C5.11731 8.97169 5.11678 8.97734 5.10549 8.97628C5.11783 8.96605 5.124 8.96094 5.124 8.96094L5.10708 8.95935ZM2.51639 9.0923L2.58885 9.04787C2.58885 9.04787 2.57862 9.03553 2.55817 9.01085C2.55817 9.01085 2.55147 9.0216 2.53807 9.04311C2.52467 9.06462 2.51744 9.08102 2.51639 9.0923ZM2.92963 11.0604L2.99891 11.0498C3.01126 11.0396 3.05128 11.0377 3.11898 11.044L3.34429 10.8261C3.32384 10.8014 3.30444 10.7654 3.2861 10.7182C3.26882 10.6596 3.25206 10.5955 3.23584 10.5257L3.24059 10.4749C3.24588 10.4185 3.26703 10.3749 3.30406 10.3442L3.13321 10.3453L3.20306 10.6933C3.1946 10.7836 3.18014 10.8164 3.15969 10.7917L3.14435 10.7732C3.14435 10.7732 3.13307 10.7721 3.1105 10.77C3.08476 10.8018 3.01636 10.8637 2.90529 10.9557C2.92574 10.9804 2.93385 11.0153 2.92963 11.0604ZM3.82824 10.5811C3.8293 10.5699 3.81449 10.5457 3.78381 10.5087C3.78381 10.5087 3.77147 10.5189 3.74679 10.5394C3.74679 10.5394 3.75754 10.5461 3.77905 10.5595C3.80056 10.5729 3.81696 10.5801 3.82824 10.5811ZM2.69052 10.6965C2.69264 10.674 2.68347 10.6503 2.66301 10.6257C2.65384 10.602 2.63075 10.6056 2.59372 10.6362C2.59055 10.6701 2.62282 10.6902 2.69052 10.6965ZM3.83831 10.8382C3.85171 10.8167 3.84818 10.7936 3.82773 10.7689C3.81856 10.7453 3.78929 10.7539 3.73993 10.7948C3.75932 10.8308 3.79212 10.8453 3.83831 10.8382Z" fill="#428901"/>
</svg>
