<svg width="24" height="24" viewBox="0 0 24 24" fill="none" xmlns="http://www.w3.org/2000/svg">
<path d="M7.35111 9.19772C7.59186 8.98909 7.86519 8.88478 8.17111 8.88478C8.4763 8.88478 8.73074 8.98909 8.93445 9.19772L9.96223 10.2504L10.99 11.303L10.99 3.13798C10.99 2.81555 11.0967 2.54547 11.31 2.32774C11.5226 2.10925 11.7863 2 12.1011 2C12.4159 2 12.68 2.10925 12.8933 2.32774C13.1059 2.54547 13.2122 2.81555 13.2122 3.13798L13.2122 11.303L15.2678 9.19772C15.49 8.97013 15.7537 8.85633 16.0589 8.85633C16.3648 8.85633 16.6289 8.97013 16.8511 9.19772C17.0733 9.40635 17.1844 9.66733 17.1844 9.98065C17.1844 10.2932 17.0826 10.5538 16.8789 10.7624L12.8789 14.8592C12.7678 14.973 12.6474 15.0538 12.5178 15.1016C12.3882 15.1486 12.2493 15.1721 12.1011 15.1721C11.953 15.1721 11.8141 15.1486 11.6844 15.1016C11.5548 15.0538 11.4344 14.973 11.3233 14.8592L7.32334 10.7624C7.0826 10.5159 6.9763 10.2458 7.00445 9.9522C7.03186 9.65785 7.14741 9.40635 7.35111 9.19772Z" fill="#2B2F40"/>
<path d="M4.5 22C3.8125 22 3.22417 21.7554 2.735 21.2663C2.245 20.7763 2 20.1875 2 19.5V15.75H4.5V19.5H19.5V15.75H22V19.5C22 20.1875 21.7554 20.7763 21.2663 21.2663C20.7763 21.7554 20.1875 22 19.5 22H4.5Z" fill="#2B2F40"/>
</svg>
