<?xml version="1.0" standalone="no"?>
<!DOCTYPE svg PUBLIC "-//W3C//DTD SVG 20010904//EN"
 "http://www.w3.org/TR/2001/REC-SVG-20010904/DTD/svg10.dtd">
<svg version="1.0" xmlns="http://www.w3.org/2000/svg"
 width="256.000000pt" height="256.000000pt" viewBox="0 0 256.000000 256.000000"
 preserveAspectRatio="xMidYMid meet">
<metadata>
Created by potrace 1.16, written by Peter Selinger 2001-2019
</metadata>
<g transform="translate(0.000000,256.000000) scale(0.100000,-0.100000)"
fill="#000000" stroke="none">
<path d="M1198 2462 c-97 -53 -205 -118 -240 -144 -80 -58 -201 -185 -258
-268 -82 -120 -156 -311 -175 -448 -6 -43 -10 -52 -23 -48 -63 20 -290 85
-305 88 -21 4 -69 -98 -121 -262 -61 -190 -71 -254 -71 -470 l0 -195 34 -99
c62 -179 168 -327 312 -436 101 -76 202 -124 325 -155 86 -22 117 -25 291 -25
222 0 304 13 426 65 118 50 181 92 274 179 226 212 322 508 268 821 -34 191
-110 322 -288 495 -171 167 -236 272 -271 442 -23 112 -19 237 19 516 5 31 3
42 -7 41 -7 0 -93 -44 -190 -97z m8 -330 c1 -128 5 -158 28 -235 53 -177 119
-278 290 -445 124 -121 163 -170 203 -258 37 -82 53 -147 60 -254 14 -221 -71
-429 -239 -584 -39 -36 -74 -66 -78 -66 -4 0 -1 19 8 43 20 57 27 190 13 257
-19 93 -54 152 -144 247 -47 50 -95 110 -107 133 -30 59 -35 136 -20 285 7 69
11 127 9 130 -3 2 -65 -28 -139 -68 -203 -109 -302 -212 -356 -374 -12 -35
-24 -66 -27 -69 -5 -5 -38 3 -138 32 -20 6 -68 -103 -100 -224 -29 -107 -30
-266 -2 -344 l20 -57 -38 30 c-84 67 -170 172 -214 264 -65 133 -78 200 -72
375 3 80 13 179 22 220 18 82 70 247 84 269 7 11 44 3 199 -43 104 -31 192
-56 195 -56 2 0 7 51 10 113 12 198 61 351 162 503 67 101 193 221 294 280 41
24 76 44 76 44 0 0 1 -66 1 -148z m-156 -1072 c0 -98 66 -224 170 -325 81 -78
112 -139 118 -230 3 -56 -1 -82 -18 -129 -28 -72 -95 -147 -165 -184 -47 -25
-59 -27 -180 -27 -118 0 -135 2 -180 25 -119 58 -188 172 -187 309 1 83 28
211 46 211 6 0 55 -13 109 -29 l97 -29 0 57 c0 81 18 167 47 228 24 52 116
163 134 163 5 0 9 -18 9 -40z"/>
</g>
</svg>
