<svg width="65" height="65" viewBox="0 0 65 65" fill="none" xmlns="http://www.w3.org/2000/svg">
<g clip-path="url(#clip0_912_843)">
<path d="M48.7501 54.1668H10.8334V16.2502H35.2084V10.8335H10.8334C7.85425 10.8335 5.41675 13.271 5.41675 16.2502V54.1668C5.41675 57.146 7.85425 59.5835 10.8334 59.5835H48.7501C51.7292 59.5835 54.1667 57.146 54.1667 54.1668V29.7918H48.7501V54.1668ZM27.6522 45.5814L22.3438 39.1897L14.8959 48.7502H44.6876L35.1001 35.9939L27.6522 45.5814ZM54.1667 10.8335V2.7085H48.7501V10.8335H40.6251C40.6522 10.8606 40.6251 16.2502 40.6251 16.2502H48.7501V24.3481C48.7772 24.3752 54.1667 24.3481 54.1667 24.3481V16.2502H62.2917V10.8335H54.1667Z" fill="#D5D5D9"/>
</g>
<defs>
<clipPath id="clip0_912_843">
<rect width="65" height="65" fill="white"/>
</clipPath>
</defs>
</svg>
