<?xml version="1.0" standalone="no"?>
<!DOCTYPE svg PUBLIC "-//W3C//DTD SVG 20010904//EN"
 "http://www.w3.org/TR/2001/REC-SVG-20010904/DTD/svg10.dtd">
<svg version="1.0" xmlns="http://www.w3.org/2000/svg"
 width="256.000000pt" height="256.000000pt" viewBox="0 0 256.000000 256.000000"
 preserveAspectRatio="xMidYMid meet">
<metadata>
Created by potrace 1.16, written by Peter Selinger 2001-2019
</metadata>
<g transform="translate(0.000000,256.000000) scale(0.100000,-0.100000)"
fill="#000000" stroke="none">
<path d="M1198 2462 c-97 -53 -205 -118 -240 -144 -80 -58 -201 -185 -258
-268 -82 -120 -156 -311 -175 -448 -6 -43 -10 -52 -23 -48 -63 20 -290 85
-305 88 -21 4 -69 -98 -121 -262 -61 -190 -71 -254 -71 -470 l0 -195 34 -99
c62 -179 168 -327 312 -436 151 -113 341 -181 503 -179 l81 2 -64 8 c-127 16
-270 108 -341 219 -98 152 -98 359 0 593 l31 75 77 -24 c42 -13 78 -24 79 -24
1 0 9 26 18 58 26 90 81 184 143 246 69 68 96 87 236 161 l109 58 -7 -44 c-3
-24 -9 -98 -12 -164 -9 -165 6 -204 126 -330 95 -99 122 -142 145 -232 72
-277 -120 -554 -410 -593 l-60 -7 78 -2 c141 -2 300 45 444 131 82 48 216 180
273 266 195 297 200 693 12 976 -26 39 -100 123 -165 186 -171 167 -236 272
-271 442 -23 112 -19 237 19 516 5 31 3 42 -7 41 -7 0 -93 -44 -190 -97z"/>
<path d="M980 1062 c-87 -89 -130 -201 -130 -339 0 -29 -3 -53 -7 -53 -5 0
-51 14 -103 29 -108 33 -101 36 -126 -60 -21 -80 -21 -211 0 -267 35 -97 107
-169 208 -207 71 -26 276 -18 336 14 66 34 128 97 159 160 25 49 28 67 28 151
0 119 -15 151 -130 270 -45 47 -91 103 -103 125 -29 58 -52 142 -52 192 0 27
-5 43 -12 43 -7 0 -37 -26 -68 -58z"/>
</g>
</svg>
