<svg width="27" height="27" viewBox="0 0 27 27" fill="none" xmlns="http://www.w3.org/2000/svg">
<g clip-path="url(#clip0_871_830)">
<path d="M13.5 14.3438C15.3337 14.3438 16.9537 14.7825 18.27 15.3562C19.485 15.8962 20.25 17.1112 20.25 18.4275V20.25H6.75V18.4387C6.75 17.1112 7.515 15.8962 8.73 15.3675C10.0463 14.7825 11.6663 14.3438 13.5 14.3438ZM4.5 14.625C5.7375 14.625 6.75 13.6125 6.75 12.375C6.75 11.1375 5.7375 10.125 4.5 10.125C3.2625 10.125 2.25 11.1375 2.25 12.375C2.25 13.6125 3.2625 14.625 4.5 14.625ZM5.77125 15.8625C5.355 15.795 4.93875 15.75 4.5 15.75C3.38625 15.75 2.32875 15.9862 1.3725 16.4025C0.54 16.7625 0 17.5725 0 18.4838V20.25H5.0625V18.4387C5.0625 17.505 5.32125 16.6275 5.77125 15.8625ZM22.5 14.625C23.7375 14.625 24.75 13.6125 24.75 12.375C24.75 11.1375 23.7375 10.125 22.5 10.125C21.2625 10.125 20.25 11.1375 20.25 12.375C20.25 13.6125 21.2625 14.625 22.5 14.625ZM27 18.4838C27 17.5725 26.46 16.7625 25.6275 16.4025C24.6713 15.9862 23.6138 15.75 22.5 15.75C22.0613 15.75 21.645 15.795 21.2288 15.8625C21.6788 16.6275 21.9375 17.505 21.9375 18.4387V20.25H27V18.4838ZM13.5 6.75C15.3675 6.75 16.875 8.2575 16.875 10.125C16.875 11.9925 15.3675 13.5 13.5 13.5C11.6325 13.5 10.125 11.9925 10.125 10.125C10.125 8.2575 11.6325 6.75 13.5 6.75Z" fill="#2B2F40"/>
</g>
<defs>
<clipPath id="clip0_871_830">
<rect width="27" height="27" fill="white"/>
</clipPath>
</defs>
</svg>
