<svg width="29" height="29" viewBox="0 0 29 29" fill="none" xmlns="http://www.w3.org/2000/svg">
<g clip-path="url(#clip0_871_830)">
<path d="M14.5 14.3322C16.4696 14.3322 18.2096 14.8034 19.6233 15.4197C20.9283 15.9997 21.75 17.3047 21.75 18.7184V20.6759H7.25V18.7305C7.25 17.3047 8.07167 15.9997 9.37667 15.4317C10.7904 14.8034 12.5304 14.3322 14.5 14.3322ZM4.83333 14.6342C6.1625 14.6342 7.25 13.5467 7.25 12.2176C7.25 10.8884 6.1625 9.8009 4.83333 9.8009C3.50417 9.8009 2.41667 10.8884 2.41667 12.2176C2.41667 13.5467 3.50417 14.6342 4.83333 14.6342ZM6.19875 15.9634C5.75167 15.8909 5.30458 15.8426 4.83333 15.8426C3.63708 15.8426 2.50125 16.0963 1.47417 16.5434C0.58 16.9301 0 17.8001 0 18.7788V20.6759H5.4375V18.7305C5.4375 17.7276 5.71542 16.7851 6.19875 15.9634ZM24.1667 14.6342C25.4958 14.6342 26.5833 13.5467 26.5833 12.2176C26.5833 10.8884 25.4958 9.8009 24.1667 9.8009C22.8375 9.8009 21.75 10.8884 21.75 12.2176C21.75 13.5467 22.8375 14.6342 24.1667 14.6342ZM29 18.7788C29 17.8001 28.42 16.9301 27.5258 16.5434C26.4988 16.0963 25.3629 15.8426 24.1667 15.8426C23.6954 15.8426 23.2483 15.8909 22.8013 15.9634C23.2846 16.7851 23.5625 17.7276 23.5625 18.7305V20.6759H29V18.7788ZM14.5 6.1759C16.5058 6.1759 18.125 7.79507 18.125 9.8009C18.125 11.8067 16.5058 13.4259 14.5 13.4259C12.4942 13.4259 10.875 11.8067 10.875 9.8009C10.875 7.79507 12.4942 6.1759 14.5 6.1759Z"/>
</g>
<defs>
<clipPath id="clip0_871_830">
<rect width="29" height="29"/>
</clipPath>
</defs>
</svg>
