<?xml version="1.0" standalone="no"?>
<!DOCTYPE svg PUBLIC "-//W3C//DTD SVG 20010904//EN"
 "http://www.w3.org/TR/2001/REC-SVG-20010904/DTD/svg10.dtd">
<svg version="1.0" xmlns="http://www.w3.org/2000/svg" width="24" height="24" viewBox="0 0 103.000000 118.000000">
<g transform="translate(0.000000,118.000000) scale(0.100000,-0.100000)">
<path d="M432 1153 c-54 -23 -142 -88 -265 -197 -115 -103 -143 -137 -156
-196 -6 -25 -11 -162 -11 -306 0 -299 8 -346 63 -388 38 -29 101 -45 175 -46
l52 0 0 205 c0 133 4 213 12 229 21 47 54 60 166 64 138 6 188 -3 224 -38 l28
-28 0 -218 0 -217 84 6 c92 6 133 22 165 63 39 49 43 86 39 394 -3 257 -5 299
-20 327 -33 59 -281 280 -370 328 -62 34 -130 40 -186 18z"/>
<path d="M400 215 l0 -195 110 0 110 0 0 195 0 195 -110 0 -110 0 0 -195z"/>
</g>
</svg>
