<svg width="24" height="24" viewBox="0 0 20 23" xmlns="http://www.w3.org/2000/svg">
<path d="M1 10.7605C1 9.06327 1 8.21468 1.34308 7.46875C1.68615 6.72283 2.33046 6.17057 3.61906 5.06605L4.86906 3.99462C7.19821 1.99821 8.36278 1 9.75 1C11.1372 1 12.3018 1.99821 14.6309 3.99462L15.8809 5.06605C17.1695 6.17057 17.8138 6.72283 18.1569 7.46875C18.5 8.21468 18.5 9.06327 18.5 10.7605V16.061C18.5 18.418 18.5 19.5965 17.7678 20.3287C17.0355 21.061 15.857 21.061 13.5 21.061H6C3.64298 21.061 2.46447 21.061 1.73223 20.3287C1 19.5965 1 18.418 1 16.061V10.7605Z" stroke-width="2"/>
<path d="M12.875 21.061V14.561C12.875 14.0087 12.4273 13.561 11.875 13.561H7.625C7.07272 13.561 6.625 14.0087 6.625 14.561V21.061" stroke-width="2" stroke-linecap="square" stroke-linejoin="round"/>
</svg>
