<svg width="24" height="24" viewBox="0 0 24 24" fill="none" xmlns="http://www.w3.org/2000/svg">
<path d="M8.57604 1.43536L18.6705 11.1873C18.7903 11.3034 18.875 11.4292 18.9245 11.5646C18.9748 11.7001 19 11.8452 19 12C19 12.1548 18.9748 12.2999 18.9245 12.4354C18.875 12.5708 18.7903 12.6966 18.6705 12.8127L8.57604 22.5937C8.29647 22.8646 7.947 23 7.52765 23C7.10829 23 6.74885 22.8549 6.44931 22.5646C6.14977 22.2744 6 21.9358 6 21.5488C6 21.1618 6.14977 20.8232 6.44931 20.533L15.2558 12L6.44931 3.46702C6.16974 3.19613 6.02996 2.86255 6.02996 2.46628C6.02996 2.06923 6.17973 1.72559 6.47926 1.43535C6.7788 1.14512 7.12827 0.999999 7.52765 0.999999C7.92704 0.999999 8.2765 1.14512 8.57604 1.43536Z" fill="#2B2F40"/>
</svg>
