<svg width="24" height="24" viewBox="0 0 24 24" fill="none" xmlns="http://www.w3.org/2000/svg">
<path d="M9.78341 3.3562L16.7719 11.3351C16.8548 11.4301 16.9135 11.533 16.9477 11.6438C16.9826 11.7546 17 11.8734 17 12C17 12.1266 16.9826 12.2454 16.9477 12.3562C16.9135 12.467 16.8548 12.5699 16.7719 12.6649L9.78341 20.6675C9.58986 20.8892 9.34792 21 9.0576 21C8.76728 21 8.51843 20.8813 8.31106 20.6438C8.10369 20.4063 8 20.1293 8 19.8127C8 19.496 8.10369 19.219 8.31106 18.9815L14.4078 12L8.31106 5.01847C8.11751 4.79683 8.02074 4.5239 8.02074 4.19968C8.02074 3.87483 8.12442 3.59367 8.3318 3.3562C8.53917 3.11873 8.78111 3 9.0576 3C9.3341 3 9.57604 3.11873 9.78341 3.3562Z" fill="#2B2F40"/>
</svg>
