<svg width="24" height="24" viewBox="0 0 24 24" fill="none" xmlns="http://www.w3.org/2000/svg">
<path d="M16.0256 16.75C15.817 16.5093 15.7127 16.2359 15.7127 15.93C15.7127 15.6248 15.817 15.3704 16.0256 15.1667L18.1309 13.1111H9.96586C9.64343 13.1111 9.37335 13.0044 9.15562 12.7911C8.93713 12.5785 8.82788 12.3148 8.82788 12C8.82788 11.6852 8.93713 11.4211 9.15562 11.2078C9.37335 10.9952 9.64343 10.8889 9.96586 10.8889H18.1309L16.0256 8.83333C15.798 8.61111 15.6842 8.34741 15.6842 8.04222C15.6842 7.7363 15.798 7.47222 16.0256 7.25C16.2342 7.02778 16.4952 6.91667 16.8085 6.91667C17.1211 6.91667 17.3817 7.01852 17.5903 7.22222L21.6871 11.2222C21.8009 11.3333 21.8816 11.4537 21.9294 11.5833C21.9765 11.713 22 11.8519 22 12C22 12.1481 21.9765 12.287 21.9294 12.4167C21.8816 12.5463 21.8009 12.6667 21.6871 12.7778L17.5903 16.7778C17.3438 17.0185 17.0737 17.1248 16.7801 17.0967C16.4857 17.0693 16.2342 16.9537 16.0256 16.75ZM4.27596 22C3.65007 22 3.11408 21.7826 2.66799 21.3478C2.22266 20.9122 2 20.3889 2 19.7778V4.22222C2 3.61111 2.22266 3.08778 2.66799 2.65222C3.11408 2.21741 3.65007 2 4.27596 2H11.1038C11.4263 2 11.6967 2.1063 11.9152 2.31889C12.133 2.53222 12.2418 2.7963 12.2418 3.11111C12.2418 3.42593 12.133 3.68963 11.9152 3.90222C11.6967 4.11556 11.4263 4.22222 11.1038 4.22222H4.27596V19.7778H11.1038C11.4263 19.7778 11.6967 19.8844 11.9152 20.0978C12.133 20.3104 12.2418 20.5741 12.2418 20.8889C12.2418 21.2037 12.133 21.4674 11.9152 21.68C11.6967 21.8933 11.4263 22 11.1038 22H4.27596Z" fill="#2B2F40"/>
</svg>
