<svg width="24" height="24" viewBox="0 0 24 24" fill="none" xmlns="http://www.w3.org/2000/svg">
<g clip-path="url(#clip0_871_824)">
<path d="M4.5 10C3.125 10 2 11.125 2 12.5C2 13.875 3.125 15 4.5 15C5.875 15 7 13.875 7 12.5C7 11.125 5.875 10 4.5 10ZM19.5 10C18.125 10 17 11.125 17 12.5C17 13.875 18.125 15 19.5 15C20.875 15 22 13.875 22 12.5C22 11.125 20.875 10 19.5 10ZM12 10C10.625 10 9.5 11.125 9.5 12.5C9.5 13.875 10.625 15 12 15C13.375 15 14.5 13.875 14.5 12.5C14.5 11.125 13.375 10 12 10Z" fill="#2B2F40"/>
</g>
<defs>
<clipPath id="clip0_871_824">
<rect width="24" height="24" fill="white"/>
</clipPath>
</defs>
</svg>
