<svg width="24" height="24" viewBox="0 0 24 24" fill="none" xmlns="http://www.w3.org/2000/svg">
<path fill-rule="evenodd" clip-rule="evenodd" d="M9.23076 14.7692V11.6927L11.8774 9.04613H11.8739L16.476 4.43083C16.4815 4.43086 16.487 4.43093 16.4925 4.43101L18.3044 2.61912L21.3809 5.69562L18.4615 8.61495V8.61612L18.461 8.61554L12.3073 14.7692H9.23076ZM23.76 2.1597C24.08 2.47966 24.08 2.99651 23.76 3.31646L22.2587 4.81779L19.1822 1.7413L20.6835 0.239967C21.0035 -0.0799889 21.5203 -0.0799889 21.8403 0.239967L23.76 2.1597ZM2 4.43077H12.8635L8.26129 9.04613H2.03078V21.9692H16.4308V14.2382L18.4615 12.2017V22C18.4615 23.1046 17.5661 24 16.4615 24H2C0.89543 24 0 23.1046 0 22V6.43078C0 5.32621 0.895431 4.43077 2 4.43077Z" fill="#2B2F40"/>
</svg>
