<?xml version="1.0" standalone="no"?>
<!DOCTYPE svg PUBLIC "-//W3C//DTD SVG 20010904//EN"
 "http://www.w3.org/TR/2001/REC-SVG-20010904/DTD/svg10.dtd">
<svg version="1.0" xmlns="http://www.w3.org/2000/svg" width="24" height="24" viewBox="0 0 133.000000 130.000000">
<g transform="translate(0.000000,130.000000) scale(0.100000,-0.100000)">
<path d="M494 1250 c-54 -22 -113 -130 -214 -399 -95 -251 -110 -373 -61 -501
54 -140 187 -252 340 -285 l35 -7 -19 28 c-53 79 -75 137 -75 198 0 80 14 126
53 178 105 138 267 30 267 -177 0 -63 -22 -120 -75 -199 l-19 -29 29 7 c161
37 290 143 347 286 31 80 31 218 0 319 -59 187 -82 240 -117 261 -18 11 -42
20 -54 20 -54 0 -111 -57 -111 -110 0 -31 -44 -70 -78 -70 -17 0 -37 9 -49 23
-19 20 -21 38 -25 182 -4 135 -8 167 -26 208 -28 64 -89 91 -148 67z"/>
<path d="M630 388 c-21 -34 -25 -58 -20 -118 2 -39 35 -110 50 -110 5 0 19 19
31 41 27 54 28 136 3 180 -26 44 -40 46 -64 7z"/>
</g>
</svg>
