<svg width="15" height="11" viewBox="0 0 15 11" fill="none" xmlns="http://www.w3.org/2000/svg">
<path fill-rule="evenodd" clip-rule="evenodd" d="M10.6841 6.27649C11.6182 6.91586 12.2727 7.78211 12.2727 8.93711V10.9996H15V8.93711C15 7.43836 12.5659 6.55149 10.6841 6.27649Z" fill="#2B2F40"/>
<path d="M5.45432 5.5C6.96055 5.5 8.1816 4.26878 8.1816 2.75C8.1816 1.23122 6.96055 0 5.45432 0C3.94809 0 2.72705 1.23122 2.72705 2.75C2.72705 4.26878 3.94809 5.5 5.45432 5.5Z" fill="#2B2F40"/>
<path fill-rule="evenodd" clip-rule="evenodd" d="M9.54549 5.5C11.0523 5.5 12.2728 4.26938 12.2728 2.75C12.2728 1.23062 11.0523 0 9.54549 0C9.22504 0 8.92504 0.0687498 8.63867 0.165C9.20458 0.873125 9.54549 1.77375 9.54549 2.75C9.54549 3.72625 9.20458 4.62688 8.63867 5.335C8.92504 5.43125 9.22504 5.5 9.54549 5.5Z" fill="#2B2F40"/>
<path fill-rule="evenodd" clip-rule="evenodd" d="M5.45455 6.18738C3.63409 6.18738 0 7.10863 0 8.93738V10.9999H10.9091V8.93738C10.9091 7.10863 7.275 6.18738 5.45455 6.18738Z" fill="#2B2F40"/>
</svg>
