<svg width="24" height="24" viewBox="0 0 18 23" fill="none" xmlns="http://www.w3.org/2000/svg">
<path d="M13 8.03066C13 6.80206 14.6844 6.47641 15.1313 7.62597C16.2123 10.4067 17 12.8943 17 14.2392C17 18.5254 13.4183 22 9 22C4.58172 22 1 18.5254 1 14.2392C1 12.7943 1.90916 10.0304 3.11449 7.0011C4.67588 3.07693 5.45658 1.11484 6.42028 1.00916C6.72864 0.975343 7.06505 1.03614 7.34018 1.17541C8.2 1.61066 8.2 3.75066 8.2 8.03066C8.2 9.31651 9.27452 10.3589 10.6 10.3589C11.9255 10.3589 13 9.31651 13 8.03066Z" stroke="#9B9B9B" stroke-width="2"/>
<path d="M7.40005 21.9997L7.01541 21.0669C6.26731 19.2525 6.57992 17.1736 7.82852 15.6595V15.6595C8.4359 14.923 9.5642 14.923 10.1716 15.6595V15.6595C11.4202 17.1736 11.7328 19.2525 10.9847 21.0669L10.6 21.9997" stroke="#9B9B9B" stroke-width="2"/>
</svg>
