<svg width="24" height="24" viewBox="0 0 18 24" fill="none" xmlns="http://www.w3.org/2000/svg">
<path d="M13 8.03065C13 6.80206 14.6844 6.47641 15.1313 7.62597C16.2123 10.4067 17 12.8943 17 14.2392C17 18.5254 13.4183 22 9 22C4.58172 22 1 18.5254 1 14.2392C1 12.7943 1.90916 10.0304 3.11449 7.0011C4.67588 3.07693 5.45658 1.11484 6.42028 1.00916C6.72864 0.975343 7.06505 1.03614 7.34018 1.17541C8.2 1.61066 8.2 3.75066 8.2 8.03065C8.2 9.31651 9.27452 10.3589 10.6 10.3589C11.9255 10.3589 13 9.31651 13 8.03065Z" fill="#2B2F40" stroke="#2B2F40" stroke-width="2"/>
<path d="M7.67572 20.9802L8.26963 21.886C8.61449 22.412 9.38552 22.412 9.73039 21.886L10.3243 20.9801C11.4398 19.2789 11.3179 17.0496 10.0236 15.48C9.49292 14.8366 8.50717 14.8366 7.97653 15.48C6.68222 17.0496 6.56029 19.2789 7.67572 20.9802Z" stroke="white" stroke-width="2"/>
</svg>
