<svg width="24" height="24" viewBox="0 0 24 24" fill="none" xmlns="http://www.w3.org/2000/svg">
<path d="M13.924 22H10.076C9.8195 22 9.59717 21.9167 9.40905 21.75C9.22093 21.5833 9.10976 21.375 9.07556 21.125L8.76772 18.8C8.5454 18.7167 8.33607 18.6167 8.13974 18.5C7.94272 18.3833 7.75016 18.2583 7.56203 18.125L5.33022 19.025C5.0908 19.1083 4.85137 19.1167 4.61194 19.05C4.37251 18.9833 4.18439 18.8417 4.04757 18.625L2.14925 15.4C2.01244 15.1833 1.96968 14.95 2.02099 14.7C2.07229 14.45 2.20056 14.25 2.40578 14.1L4.32976 12.675C4.31266 12.5583 4.3041 12.4457 4.3041 12.337V11.662C4.3041 11.554 4.31266 11.4417 4.32976 11.325L2.40578 9.9C2.20056 9.75 2.07229 9.55 2.02099 9.3C1.96968 9.05 2.01244 8.81667 2.14925 8.6L4.04757 5.375C4.16729 5.14167 4.35096 4.99567 4.5986 4.937C4.84692 4.879 5.0908 4.89167 5.33022 4.975L7.56203 5.875C7.75016 5.74167 7.94683 5.61667 8.15205 5.5C8.35728 5.38333 8.5625 5.28333 8.76772 5.2L9.07556 2.875C9.10976 2.625 9.22093 2.41667 9.40905 2.25C9.59717 2.08333 9.8195 2 10.076 2H13.924C14.1805 2 14.4028 2.08333 14.591 2.25C14.7791 2.41667 14.8902 2.625 14.9244 2.875L15.2323 5.2C15.4546 5.28333 15.6643 5.38333 15.8613 5.5C16.0576 5.61667 16.2498 5.74167 16.438 5.875L18.6698 4.975C18.9092 4.89167 19.1486 4.88333 19.3881 4.95C19.6275 5.01667 19.8156 5.15833 19.9524 5.375L21.8507 8.6C21.9876 8.81667 22.0303 9.05 21.979 9.3C21.9277 9.55 21.7994 9.75 21.5942 9.9L19.6702 11.325C19.6873 11.4417 19.6959 11.554 19.6959 11.662V12.337C19.6959 12.4457 19.6788 12.5583 19.6446 12.675L21.5686 14.1C21.7738 14.25 21.9021 14.45 21.9534 14.7C22.0047 14.95 21.9619 15.1833 21.8251 15.4L19.9268 18.6C19.79 18.8167 19.5977 18.9627 19.3501 19.038C19.1018 19.1127 18.8579 19.1083 18.6185 19.025L16.438 18.125C16.2498 18.2583 16.0532 18.3833 15.8479 18.5C15.6427 18.6167 15.4375 18.7167 15.2323 18.8L14.9244 21.125C14.8902 21.375 14.7791 21.5833 14.591 21.75C14.4028 21.9167 14.1805 22 13.924 22ZM12.0513 15.5C13.0432 15.5 13.8898 15.1583 14.591 14.475C15.2921 13.7917 15.6427 12.9667 15.6427 12C15.6427 11.0333 15.2921 10.2083 14.591 9.525C13.8898 8.84167 13.0432 8.5 12.0513 8.5C11.0423 8.5 10.1913 8.84167 9.49832 9.525C8.80603 10.2083 8.45989 11.0333 8.45989 12C8.45989 12.9667 8.80603 13.7917 9.49832 14.475C10.1913 15.1583 11.0423 15.5 12.0513 15.5Z" fill="#2B2F40"/>
</svg>
