<svg width="21" height="28" viewBox="0 0 21 28" xmlns="http://www.w3.org/2000/svg">
<path d="M10.5 18.9154C10.1281 18.9154 9.81663 18.7908 9.5655 18.5416C9.3135 18.2933 9.1875 17.9853 9.1875 17.6176V4.41251L8.00625 5.58053C7.76563 5.81846 7.46506 5.93743 7.10456 5.93743C6.74319 5.93743 6.43125 5.80765 6.16875 5.54809C5.92812 5.28853 5.80781 4.98008 5.80781 4.62276C5.80781 4.2663 5.92812 3.9691 6.16875 3.73117L9.58125 0.356895C9.69063 0.248745 9.82756 0.162225 9.99206 0.0973349C10.1557 0.032445 10.325 0 10.5 0C10.675 0 10.8447 0.032445 11.0092 0.0973349C11.1729 0.162225 11.3094 0.248745 11.4187 0.356895L14.8313 3.73117C15.0938 3.99073 15.225 4.30436 15.225 4.67207C15.225 5.03978 15.0938 5.3426 14.8313 5.58053C14.5688 5.81846 14.2573 5.93743 13.8968 5.93743C13.5354 5.93743 13.2344 5.81846 12.9937 5.58053L11.8125 4.41251V17.6176C11.8125 17.9853 11.6869 18.2933 11.4358 18.5416C11.1838 18.7908 10.8719 18.9154 10.5 18.9154ZM2.625 28C1.90312 28 1.28537 27.7461 0.77175 27.2382C0.25725 26.7295 0 26.1182 0 25.4044V11.1286C0 10.4148 0.25725 9.80357 0.77175 9.29483C1.28537 8.78696 1.90312 8.53302 2.625 8.53302H5.25C5.62187 8.53302 5.93381 8.65718 6.18581 8.90549C6.43694 9.15467 6.5625 9.46311 6.5625 9.83082C6.5625 10.1985 6.43694 10.5065 6.18581 10.7549C5.93381 11.004 5.62187 11.1286 5.25 11.1286H2.625V25.4044H18.375V11.1286H15.75C15.3781 11.1286 15.0666 11.004 14.8155 10.7549C14.5635 10.5065 14.4375 10.1985 14.4375 9.83082C14.4375 9.46311 14.5635 9.15467 14.8155 8.90549C15.0666 8.65718 15.3781 8.53302 15.75 8.53302H18.375C19.0969 8.53302 19.7151 8.78696 20.2296 9.29483C20.7432 9.80357 21 10.4148 21 11.1286V25.4044C21 26.1182 20.7432 26.7295 20.2296 27.2382C19.7151 27.7461 19.0969 28 18.375 28H2.625Z"/>
</svg>
