<svg width="18" height="24" viewBox="0 0 18 24" fill="none" xmlns="http://www.w3.org/2000/svg">
<path d="M9 16.2132C8.68125 16.2132 8.41425 16.1064 8.199 15.8928C7.983 15.68 7.875 15.416 7.875 15.1008V3.78216L6.8625 4.78331C6.65625 4.98725 6.39863 5.08922 6.08963 5.08922C5.77988 5.08922 5.5125 4.97798 5.2875 4.7555C5.08125 4.53302 4.97813 4.26864 4.97813 3.96236C4.97813 3.65683 5.08125 3.40209 5.2875 3.19815L8.2125 0.30591C8.30625 0.21321 8.42362 0.13905 8.56462 0.0834299C8.70487 0.02781 8.85 0 9 0C9.15 0 9.2955 0.02781 9.4365 0.0834299C9.57675 0.13905 9.69375 0.21321 9.7875 0.30591L12.7125 3.19815C12.9375 3.42063 13.05 3.68946 13.05 4.00464C13.05 4.31981 12.9375 4.57937 12.7125 4.78331C12.4875 4.98725 12.2205 5.08922 11.9115 5.08922C11.6018 5.08922 11.3437 4.98725 11.1375 4.78331L10.125 3.78216V15.1008C10.125 15.416 10.0174 15.68 9.80213 15.8928C9.58613 16.1064 9.31875 16.2132 9 16.2132ZM2.25 24C1.63125 24 1.10175 23.7823 0.6615 23.347C0.2205 22.911 0 22.387 0 21.7752V9.53882C0 8.927 0.2205 8.40306 0.6615 7.967C1.10175 7.53168 1.63125 7.31402 2.25 7.31402H4.5C4.81875 7.31402 5.08613 7.42044 5.30213 7.63328C5.51738 7.84686 5.625 8.11124 5.625 8.42642C5.625 8.7416 5.51738 9.00561 5.30213 9.21845C5.08613 9.43203 4.81875 9.53882 4.5 9.53882H2.25V21.7752H15.75V9.53882H13.5C13.1813 9.53882 12.9143 9.43203 12.699 9.21845C12.483 9.00561 12.375 8.7416 12.375 8.42642C12.375 8.11124 12.483 7.84686 12.699 7.63328C12.9143 7.42044 13.1813 7.31402 13.5 7.31402H15.75C16.3688 7.31402 16.8986 7.53168 17.3396 7.967C17.7799 8.40306 18 8.927 18 9.53882V21.7752C18 22.387 17.7799 22.911 17.3396 23.347C16.8986 23.7823 16.3688 24 15.75 24H2.25Z" fill="#2B2F40"/>
</svg>
